<svg width="40" height="40" viewBox="0 0 40 40" fill="none" xmlns="http://www.w3.org/2000/svg">
<g id="request 1">
<g id="ESSENTIAL UI">
<path id="Vector" d="M36.2696 9.84975C35.6302 6.96275 32.8315 4.3181 29.9365 3.75637C28.1723 3.40379 23.2515 2.96822 19.998 3.00208C16.7445 2.96623 11.8244 3.40047 10.0601 3.75438C7.16518 4.3181 4.36648 6.96275 3.73038 9.84975C3.3632 11.6027 3.00531 13.9877 3 17.2432C3.00531 20.4967 3.3632 22.8824 3.73038 24.636C4.3698 27.523 7.1685 30.1677 10.0635 30.7294C11.0156 30.9193 12.8887 31.1344 14.9218 31.2858C15.152 31.6475 15.4021 32.0326 15.6721 32.4412C16.7511 34.0759 17.5765 35.2146 18.2026 36.0081C19.2437 37.3281 20.7589 37.3281 21.8001 36.0081C22.4262 35.2146 23.2515 34.0759 24.3305 32.4412C24.6005 32.033 24.8506 31.6479 25.0808 31.2858C27.1146 31.1344 28.987 30.9193 29.9399 30.7294C32.8348 30.1677 35.6335 27.523 36.2729 24.636C36.6368 22.8824 36.994 20.4981 37 17.2432C36.9907 13.987 36.6335 11.6033 36.2696 9.84975Z" fill="#268A66"/>
<path id="Vector_2" d="M19.998 3.00208C16.7445 2.96623 11.8244 3.40047 10.0601 3.75438C7.16517 4.3181 4.36648 6.96274 3.73038 9.84975C3.3632 11.6027 3.00531 13.9877 3 17.2432C3.00531 20.4967 3.3632 22.8824 3.73038 24.636C4.10686 26.3351 5.23165 27.9506 6.68378 29.1066C8.10027 29.4457 9.5518 29.6167 11.0083 29.6159C21.2091 29.6159 29.4784 21.3466 29.4784 11.1465C29.4807 8.4901 28.9076 5.86471 27.7985 3.45094C25.5296 3.19597 22.3346 2.97818 19.998 3.00208Z" fill="#A90100" fill-opacity="0.47"/>
<path id="Vector_3" d="M21.8762 27.1195C21.8321 27.3264 21.7291 27.516 21.5796 27.6655C21.4301 27.815 21.2404 27.918 21.0336 27.9621C20.3478 28.0675 19.6498 28.0675 18.964 27.9621C18.7571 27.9181 18.5675 27.8151 18.4179 27.6656C18.2684 27.5161 18.1654 27.3264 18.1214 27.1195C18.0152 26.4335 18.0152 25.7352 18.1214 25.0492C18.1654 24.8424 18.2684 24.6527 18.4179 24.5032C18.5675 24.3537 18.7571 24.2506 18.964 24.2066C19.6498 24.1013 20.3478 24.1013 21.0336 24.2066C21.2408 24.2509 21.4307 24.3543 21.5802 24.5044C21.7298 24.6544 21.8326 24.8446 21.8762 25.0519C21.9825 25.7379 21.9825 26.4362 21.8762 27.1222V27.1195ZM25.9186 16.2442C25.406 16.9692 24.6377 17.6312 23.501 18.3264C22.0621 19.2135 21.8317 19.578 21.8317 20.2918V20.574C21.8364 20.818 21.7923 21.0604 21.7022 21.2872C21.612 21.514 21.4775 21.7205 21.3066 21.8947C21.1357 22.0689 20.9318 22.2072 20.7068 22.3017C20.4818 22.3962 20.2402 22.4448 19.9962 22.4448C19.7521 22.4448 19.5105 22.3962 19.2855 22.3017C19.0605 22.2072 18.8566 22.0689 18.6857 21.8947C18.5148 21.7205 18.3803 21.514 18.2901 21.2872C18.2 21.0604 18.1559 20.818 18.1606 20.574V19.92C18.1606 19.078 18.371 18.3636 18.804 17.7361C19.2236 17.1279 19.8531 16.5874 20.7853 16.033C22.5044 15.0218 22.8191 14.4541 22.8191 13.7004C22.8191 12.7536 22.0123 12.1414 20.7607 12.1414C19.3936 12.1414 18.5032 12.7629 18.1148 13.9893C17.9889 14.3838 17.7402 14.7278 17.405 14.971C17.0699 15.2142 16.6657 15.3439 16.2516 15.3411C16.2038 15.3411 16.1553 15.3411 16.1082 15.3358C15.8107 15.3149 15.5219 15.2262 15.2639 15.0766C15.0059 14.927 14.7855 14.7204 14.6195 14.4726C14.4537 14.2293 14.3457 13.9512 14.3038 13.6597C14.2619 13.3682 14.2873 13.071 14.3778 12.7908C14.7762 11.5138 15.5933 10.4083 16.6971 9.65279C17.81 8.89452 19.2156 8.49414 20.7607 8.49414C22.3656 8.49414 23.8549 9.00607 24.9545 9.93565C26.0866 10.8918 26.7094 12.2111 26.7094 13.65C26.7127 14.6393 26.4531 15.4905 25.9186 16.2442Z" fill="white"/>
</g>
</g>
</svg>
