<svg width="216" height="215" viewBox="0 0 216 215" fill="none" xmlns="http://www.w3.org/2000/svg">
<path d="M107.993 214.21C103.406 214.21 99.3838 206.589 94.9191 206.014C90.4544 205.439 84.4892 211.726 80.1598 210.576C75.8304 209.427 73.8379 200.998 69.6684 199.273C65.4989 197.549 58.1315 202.099 54.2203 199.848C50.309 197.598 50.6288 188.973 47.0374 186.233C43.4459 183.493 35.1684 186.013 31.9582 182.833C28.7481 179.652 31.3064 171.407 28.539 167.835C25.7716 164.263 17.1251 164.594 14.8497 160.692C12.5743 156.789 17.1743 149.499 15.4277 145.327C13.6812 141.156 5.24381 139.272 4.06306 134.893C2.88231 130.514 9.2534 124.715 8.65073 120.214C8.04806 115.712 0.410156 111.773 0.410156 107.21C0.410156 102.647 8.07266 98.6474 8.65073 94.1947C9.22881 89.742 2.90691 83.8214 4.06306 79.5155C5.21921 75.2096 13.6935 73.2279 15.4277 69.081C17.162 64.9341 12.5866 57.6068 14.8497 53.7168C17.1128 49.8268 25.7839 50.1448 28.539 46.5729C31.2941 43.001 28.7604 34.7683 31.9582 31.5756C35.1561 28.3829 43.4459 30.9273 47.0374 28.1749C50.6288 25.4226 50.2721 16.7985 54.208 14.5233C58.1438 12.248 65.462 16.8352 69.6561 15.0982C73.8502 13.3612 75.8058 4.96955 80.1475 3.79522C84.4892 2.62088 90.3806 8.95738 94.9068 8.35798C99.433 7.75858 103.393 0.162109 107.981 0.162109C112.569 0.162109 116.591 7.78305 121.068 8.35798C125.545 8.93292 131.498 2.64534 135.827 3.79522C140.157 4.94509 142.149 13.3734 146.319 15.0982C150.488 16.823 157.855 12.2724 161.767 14.5233C165.678 16.7741 165.358 25.3981 168.95 28.1382C172.541 30.8784 180.819 28.3584 184.029 31.5389C187.239 34.7194 184.681 42.9643 187.448 46.5362C190.215 50.1081 198.862 49.7779 201.137 53.6801C203.413 57.5823 198.813 64.873 200.559 69.0565C202.306 73.2401 210.743 75.0995 211.924 79.4788C213.105 83.8581 206.734 89.6564 207.336 94.158C207.939 98.6596 215.577 102.599 215.577 107.174C215.577 111.749 207.914 115.736 207.336 120.177C206.758 124.617 213.08 130.55 211.924 134.856C210.768 139.162 202.293 141.144 200.559 145.291C198.825 149.437 203.4 156.765 201.137 160.655C198.874 164.545 190.203 164.227 187.448 167.799C184.693 171.371 187.227 179.603 184.029 182.796C180.831 185.989 172.541 183.444 168.95 186.197C165.358 188.949 165.69 197.549 161.767 199.812C157.843 202.075 150.513 197.5 146.306 199.237C142.1 200.974 140.23 209.365 135.827 210.54C131.424 211.714 125.594 205.39 121.068 205.977C116.542 206.564 112.593 214.21 107.993 214.21Z" fill="#122F2A"/>
</svg>
