<svg width="127" height="160" viewBox="0 0 127 160" fill="none" xmlns="http://www.w3.org/2000/svg">
<path id="Vector" d="M110.824 6.98937C108.024 7.78937 104.424 10.9894 105.824 19.2894C107.224 27.5894 108.724 42.9894 108.924 48.5894C109.124 54.1894 110.224 61.4894 107.724 61.9894C105.224 62.4894 100.924 56.0894 98.7238 50.4894C96.5238 44.9894 90.6238 32.1894 87.3238 26.4894C84.0238 20.7894 77.8238 6.18937 76.1238 3.38937C74.3238 0.589371 70.7238 -0.810629 66.9238 0.489371C63.0238 1.88937 61.0238 5.58937 64.0238 13.3894C67.0238 21.1894 72.0238 30.6894 74.1238 35.0894C76.1238 39.4894 85.0238 63.1894 85.7238 66.7894C86.4238 70.3894 82.1238 71.5894 79.3238 67.8894C76.5238 64.1894 66.4238 53.0894 61.8238 48.4894C57.2238 43.8894 49.2238 35.5894 46.3238 32.3894C43.4238 29.2894 37.0238 21.6894 35.2238 19.7894C33.4238 17.8894 29.5238 14.1894 24.6238 18.3894C19.6238 22.5894 21.8238 28.3894 24.9238 32.0894C28.0238 35.7894 33.1238 41.8894 35.8238 45.6894C38.4238 49.5894 46.7238 59.7894 50.8238 64.2894C54.8238 68.7894 67.7238 80.2894 64.5238 83.4894C61.3238 86.6894 43.6238 73.9894 39.5238 71.5894C35.4238 69.1894 27.2238 63.3894 23.5238 61.4894C19.8238 59.5894 6.92383 48.4894 1.72383 56.1894C-3.47617 63.8894 4.32384 68.7894 8.82384 71.8894C13.3238 74.9894 30.0238 86.5894 36.4238 91.3894C42.7238 96.0894 64.3238 109.989 67.6238 118.689C70.8238 127.289 67.8238 126.189 61.2238 124.589C54.6238 122.989 45.3238 118.789 37.2238 119.689C32.4238 120.189 24.0238 122.689 23.0238 128.489C22.0238 134.289 26.8238 132.689 31.9238 134.489C37.1238 136.289 50.6238 142.689 56.2238 143.789C61.8238 144.889 67.4238 150.089 71.2238 151.589C78.5238 154.589 89.7238 155.689 95.3238 157.089C100.924 158.489 111.724 160.589 115.224 159.789C115.324 159.789 119.124 159.789 124.024 157.789C128.924 155.789 136.024 146.289 140.724 142.589C145.124 138.989 153.324 137.289 155.524 129.389C156.724 125.189 155.424 120.289 154.624 117.989C152.924 113.089 148.024 99.7894 145.124 94.7894C142.224 89.7894 135.924 79.4894 134.624 75.3894C133.324 71.2894 127.624 63.5894 127.624 63.5894C127.624 63.5894 124.824 47.1894 124.224 41.3894C123.624 35.5894 121.824 20.1894 119.824 14.2894C117.524 8.28937 113.624 6.28937 110.824 6.98937Z" fill="#E3E9E7"/>
</svg>
