<svg width="156" height="514" viewBox="0 0 156 514" fill="none" xmlns="http://www.w3.org/2000/svg">
<path d="M-27.6408 513.9C-30.4427 448.436 -16.8712 404.121 13.774 378.446C21.9606 371.591 31.2855 366.303 40.3478 361.15C44.8132 358.596 49.4538 355.953 53.8754 353.175C70.2487 342.869 80.4054 331.801 84.7833 319.434C85.5276 317.418 86.0529 315.267 86.3594 313.072C76.334 317.239 68.2349 318.628 60.7925 317.463C52.6934 316.163 43.4123 310.562 40.8731 300.929C39.0782 294.028 41.7049 286.725 47.9653 281.393C55.3639 275.075 65.5206 273.372 73.1819 277.136C84.9147 282.871 89.993 296.224 89.4239 308.815C116.523 296.179 138.106 271.849 147.694 242.948C157.719 212.658 154.26 178.111 138.412 150.509C132.065 139.442 123.615 129.091 115.472 119.099C100.5 100.728 85.046 81.7741 82.2442 57.8916C79.7488 35.8014 89.4239 13.0839 106.935 0L108.468 2.19558C91.7004 14.7417 82.4631 36.4287 84.9147 57.5331C87.5852 80.6091 102.164 98.4874 117.53 117.351C125.76 127.433 134.253 137.873 140.733 149.12C156.931 177.349 160.477 212.747 150.233 243.754C140.295 273.82 117.617 299.047 89.2488 311.817C88.8986 314.774 88.2419 317.642 87.2787 320.331C82.6382 333.325 72.175 344.796 55.2764 355.46C50.8109 358.283 46.1266 360.926 41.6174 363.48C32.6865 368.544 23.4491 373.831 15.4376 380.507C-14.551 405.6 -27.7722 449.153 -25.0141 513.721L-27.6408 513.9ZM64.4699 277.763C58.91 277.763 53.4814 280.183 49.7165 283.409C44.2879 288.024 41.9676 294.297 43.4998 300.167C45.7326 308.636 54.0506 313.609 61.2741 314.774C68.2349 315.895 75.94 314.506 85.5276 310.518C85.9216 310.338 86.3594 310.159 86.7534 309.98C87.629 297.882 82.9008 284.753 72.0875 279.466C69.6358 278.301 67.0091 277.763 64.4699 277.763Z" fill="#E3E5E9"/>
</svg>
