<svg width="1920" height="660" viewBox="0 0 1920 660" fill="none" xmlns="http://www.w3.org/2000/svg">
<rect x="-2" y="42.001" width="1923" height="420" fill="#222325"/>
<g clip-path="url(#clip0_24_8980)">
<g filter="url(#filter0_b_24_8980)">
<path d="M2260.47 56.4186C2319.65 54.8468 2271.85 53.5719 2245.13 33.8C2227.59 44.0715 2145.03 17.8823 2194.89 14.8078C2271.24 -0.626334 2298.5 -1.22083 2287.47 -15.2438C2274.19 -36.0216 2201.35 -50.5492 2261.28 -62.9426C2265.2 -58.5521 2257.92 -63.8843 2250.63 -71.7681C2174.81 -76.2752 2249.7 -62.6002 2236.24 -80.1174C2262.39 -76.9306 2211.95 -94.1269 2193.46 -97.3215C2191.59 -109.086 2115.58 -115.435 2182.99 -117.913C2051.15 -131.956 2176.25 -132.271 2211.91 -136.843C2211.71 -148.845 2316.29 -138.177 2231.49 -158.505C2209.83 -166.421 2270.52 -152.401 2231.11 -167.483C2204.2 -192.783 2181.04 -200.509 2252.54 -214.757C2254.58 -225.674 2321.59 -247.856 2284.42 -258.073C2289.44 -276.459 2245.17 -293.614 2187.12 -281.743C2101.02 -296.635 2044.3 -262.792 2001.15 -273.569C1980.05 -274.257 1849.73 -261.934 1817.05 -268.28C1794.28 -260.035 1836.09 -274.962 1785.12 -267.586C1796.14 -271.283 1655.94 -246.003 1691.02 -266.074C1672.17 -260.337 1662.27 -260.705 1594.86 -268.623C1559.39 -262.586 1561.05 -278.04 1565.54 -270.673C1530.42 -287.648 1412.97 -289.798 1393.75 -280.848C1309.91 -276.085 1260.24 -285.06 1218.79 -283.554C1164.26 -293.091 1097.25 -270.295 1045.52 -277C936.841 -283.6 973.073 -274.659 879.355 -259.443C915.962 -250.03 869.462 -256.504 844.628 -256.856C783.559 -268.041 738.016 -251.835 739.882 -253.254C754.647 -238.999 694.673 -276.126 664.629 -258.518C707.581 -252.229 651.555 -261.482 593.481 -265.534C566.011 -287.715 546.979 -274.418 566.78 -266.547C566.968 -265.129 560.054 -269.847 538.024 -266.943C522.711 -269.479 374.295 -243.624 353.548 -264.205C242.998 -276.332 229.952 -251.7 173.174 -267.331C128.554 -260.812 169.647 -247.292 100.35 -270.612C61.8681 -288.246 -8.87246 -262.138 64.4982 -272.183C1.20014 -272.308 18.5486 -288.297 -143.52 -284.306C-196.748 -297.01 -298.121 -281.551 -264.689 -272.56C-266.188 -278.087 -279.048 -254.825 -259.066 -250.971C-264.665 -249.122 -253.261 -235.241 -246.16 -228.869C-287.612 -229.867 -241.487 -224.102 -240.175 -219.85C-254.537 -204.384 -236.611 -202.937 -210.64 -186.898C-205.029 -177.169 -175.333 -169.402 -197.723 -153.219C-190.991 -142.925 -196.404 -141.171 -199.208 -144.712C-213.391 -136.996 -197.506 -122.742 -235.026 -112.355C-253.121 -95.9404 -275.152 -94.2644 -297.92 -82.0974C-287.637 -69.0188 -286.513 -65.5705 -315.622 -45.8368C-285.362 -34.7157 -270.412 -22.6813 -274.507 -10.1552C-260.683 -3.0812 -240.685 15.2327 -235.633 26.4737C-227.418 25.4731 -255.226 38.6375 -236.183 36.0666C-225.535 40.7339 -254.288 42.4167 -238.6 46.0394C-267.531 56.7477 -235.599 60.0704 -242.325 55.6354C-245.855 72.9335 -285.248 77.6513 -259.83 101.441C-245.066 114.988 -263.724 128.804 -235.139 145.881C-217.567 165.898 -197.948 178.826 -185.613 190.627C-203.722 193.48 -189.898 199.467 -175.143 204.083C-178.87 211.411 -146.011 207.692 -171.589 210.506C-197.723 216.864 -164.096 234.125 -154.001 246.4C-179.195 259.42 -165.545 278.685 -157.7 281.465C-145.93 288.494 -162.932 277.691 -161.424 291.392C-195.764 308.107 -168.493 317.861 -197.979 333.295C-243.347 338.444 -229.513 354.969 -220.53 375.467C-252.257 390.809 -262.702 401.215 -228.329 417.766C-222.147 437.465 -193.938 452.273 -220.631 460.003C-256.489 452.289 -264.686 470.773 -223.61 467.897C-221.542 481.881 -190.547 482.134 -229.931 495.782C-282.208 500.135 -223.544 533.862 -222.805 525.733C-206.739 533.892 -175.735 542.697 -198.691 553.305C-187.469 571.391 -192.534 548.668 -188.412 562.178C-161.513 574.153 -161.497 589.793 -165.968 600.241C-135.332 613.582 -188.908 625.45 -145.019 636.085C-75.5556 639.369 -114.576 643.614 -49.9748 639.485C-19.919 633.548 18.3391 614.42 79.4078 625.651C121.426 631.657 161.936 623.631 226.906 615.91C216.826 618.33 225.424 627.205 260.141 614.223C311.296 608.596 340.614 611.07 407.084 609.302C467.215 616.282 497.837 616.204 533.871 613.38C587.092 619.611 604.27 619.121 633.405 625.565C621.269 626.853 642.188 633.07 666.084 629.123C723.221 629.586 739.657 634.531 803.148 640.326C828.361 646.821 883.635 651.207 938.141 635.701C1001.62 633.983 1051.65 623.49 1076.3 624.079C1117.94 628.29 1160.31 612.323 1219.51 619.351C1253.68 617.568 1285.05 620.135 1365.52 615.234C1390.74 621.352 1389.43 618.849 1400.25 616.57C1429.2 621.36 1447.69 625.311 1464.3 621.797C1456.46 617.222 1478.31 621.452 1486.15 623.76C1537.7 633.489 1577.47 636.143 1655.89 631.858C1707.43 636.72 1761.01 630.051 1825.05 627.671C1887.6 627.844 1938.75 618.153 1993.65 619.232C2071.51 612.868 2123.42 618.534 2161.88 614.526C2192.31 611.376 2183.17 620.316 2196.61 614.207C2217.71 613.241 2223.31 609.455 2231.34 613.7C2255.24 614.195 2253.17 599.549 2239.92 600.649C2225.35 604.161 2260.63 592.879 2240.66 594.175C2263.8 582.385 2274.99 570.278 2234.27 557.986C2238.93 544.845 2215.77 540.143 2222.66 521.754C2217.79 504.607 2207.69 492.473 2217.21 485.659C2210.86 488.595 2234 479.074 2218.32 475.829C2218.12 463.355 2237.72 457.05 2250.78 445.838C2243.48 431.528 2287.35 425.152 2274.65 418.408C2248.31 403.455 2233.36 397.611 2240.44 380.026C2243.41 367.642 2226.23 359.107 2203.62 342.166C2189.97 328.24 2193.7 321.763 2200.22 302.005C2198.53 293.784 2214.02 292.54 2208.05 292.121C2214.19 276.049 2227.07 272.87 2232.85 259.161C2221.25 241.5 2254.67 237.969 2215.64 226.904C2214.88 215.045 2158.67 204.044 2151.19 196.917C2161.08 191.473 2131.77 195.519 2151.17 179.858C2182.91 173.211 2155.08 168.656 2183.64 161.066C2234.98 147.642 2154.51 155.284 2208.64 141.715C2164.77 144.736 2237.58 132.849 2213.3 133.677C2223.94 127.571 2194.6 106.478 2204.68 97.5375C2218.12 93.6965 2244.04 62.8615 2249.27 62.1475C2188.93 38.5347 2199.97 54.3532 2260.47 56.4186Z" fill="#222325"/>
</g>
</g>
<path d="M1285.99 60.9231C1281.26 60.9231 1276.53 62.2417 1273.38 58.945C1272.59 58.2857 1271.8 57.6263 1271.8 56.967C1271.8 56.3077 1271.8 55.6483 1271.02 54.989C1270.23 53.6703 1268.65 54.3296 1266.29 54.3296C1262.35 54.3296 1260.77 52.3516 1257.62 51.0329C1255.25 49.7142 1252.89 49.0549 1250.52 49.0549C1247.37 49.0549 1245.79 50.3736 1244.22 52.3516C1242.64 53.6703 1241.85 54.989 1239.49 54.989C1238.7 54.989 1237.12 54.989 1236.33 54.989C1232.39 54.989 1228.45 54.989 1224.51 54.989C1221.36 54.989 1218.99 54.3296 1215.84 54.3296C1212.69 54.3296 1210.32 54.3296 1207.17 53.6703C1206.38 53.011 1205.59 53.011 1204.81 53.011C1203.23 53.011 1203.23 53.011 1201.65 51.6923C1200.86 51.0329 1200.08 49.7142 1198.5 49.7142C1197.71 49.7142 1195.35 49.7142 1194.56 49.7142C1189.04 49.7142 1183.52 50.3736 1177.22 50.3736C1174.85 50.3736 1174.06 50.3736 1172.49 51.6923C1170.91 53.011 1171.7 54.3296 1170.12 55.6483C1168.55 57.6263 1162.24 56.967 1159.88 56.3077C1151.21 55.6483 1142.54 55.6483 1134.65 56.3077C1133.87 56.3077 1133.08 56.967 1131.5 56.967C1129.14 56.967 1125.98 55.6483 1123.62 55.6483C1118.89 54.989 1112.58 53.011 1108.64 55.6483C1107.85 56.3077 1108.64 57.6263 1107.85 58.2857C1107.07 58.2857 1104.7 58.2857 1104.7 58.2857C1103.91 58.2857 1103.12 58.945 1102.34 58.945C1099.97 58.945 1098.39 59.6044 1096.03 59.6044C1092.09 59.6044 1088.15 59.6044 1084.21 59.6044C1081.05 59.6044 1077.9 60.2637 1073.96 60.9231C1072.38 60.9231 1070.81 60.9231 1070.02 61.5824C1068.44 62.9011 1069.23 64.2198 1066.87 64.8791C1066.08 64.8791 1063.71 64.8791 1062.92 64.8791C1061.35 64.8791 1058.98 64.8791 1057.41 64.2198C1056.62 64.2198 1056.62 63.5604 1056.62 63.5604C1055.83 63.5604 1055.83 63.5604 1055.04 63.5604C1051.89 62.9011 1049.53 60.2637 1047.16 59.6044C1044.01 58.2857 1040.85 58.2857 1037.7 57.6263C1033.76 56.967 1029.82 54.989 1025.09 54.989C1019.57 54.989 1014.05 54.3296 1008.54 53.6703C1006.96 53.6703 1006.17 53.6703 1004.6 53.6703C1001.44 53.6703 999.867 53.6703 997.502 52.3516C995.926 51.6923 994.349 51.6923 992.773 51.0329C991.985 51.0329 991.985 50.3736 991.196 50.3736L990.408 50.3736C990.408 50.3736 989.62 50.3736 989.62 51.0329C988.043 51.6923 986.467 51.6923 984.891 51.6923C983.314 51.6923 981.738 52.3516 980.949 52.3516C980.161 52.3516 980.161 53.011 979.373 53.011C978.585 53.011 977.008 53.011 976.22 53.011C974.644 53.011 973.067 53.6703 972.279 54.3296C969.126 53.011 966.761 53.011 964.397 53.011C962.82 53.011 961.244 53.011 960.456 53.011C958.879 52.3516 957.303 51.6923 955.726 51.6923C953.362 52.3516 952.573 54.3296 950.997 56.3077C950.209 56.967 950.997 56.967 949.42 57.6263C947.844 57.6263 946.268 57.6263 945.479 57.6263C941.538 57.6263 938.385 56.967 935.232 56.3077C931.291 55.6483 926.562 54.989 922.621 54.989C918.68 54.3296 914.739 53.6703 910.009 53.6703C906.068 53.6703 902.915 56.3077 898.974 56.3077C894.245 56.967 887.939 56.3077 883.998 54.3296C883.21 53.6703 881.633 53.011 880.845 53.011C879.268 53.011 878.48 53.011 877.692 53.011C874.539 53.6703 870.598 53.011 867.445 53.011C865.08 53.011 862.716 53.011 860.351 53.011C858.775 53.011 857.198 53.011 855.622 53.011C854.833 53.011 855.622 53.011 854.045 52.3516C852.469 51.6923 850.892 51.0329 849.316 51.0329C843.01 50.3736 837.492 49.0549 831.187 48.3956C828.034 47.7362 825.669 47.7362 823.304 47.7362C821.728 47.7362 818.575 46.4175 816.999 47.0769C814.634 48.3956 815.422 51.0329 814.634 52.3516C813.846 55.6483 811.481 55.6483 808.328 54.989C804.387 54.3296 801.234 52.3516 797.293 53.011C794.928 53.6703 792.564 54.989 790.199 54.989C787.046 54.989 784.681 54.3296 781.528 54.3296C779.164 54.3296 776.799 54.3296 775.223 53.6703C772.07 52.3516 769.705 51.0329 765.764 51.0329C763.399 51.0329 761.035 51.0329 758.67 51.0329C753.152 51.0329 749.999 51.0329 745.27 53.011C743.694 53.6703 742.905 54.3296 741.329 54.3296C738.176 54.3296 735.023 53.011 732.658 52.3516C731.082 51.6923 728.717 52.3516 727.141 51.6923C725.564 51.0329 724.776 50.3736 723.2 50.3736C721.623 50.3736 720.047 50.3736 717.682 49.7142C716.106 49.0549 715.318 48.3956 713.741 47.7362C712.953 47.7362 710.588 47.7362 710.588 47.0769C708.224 47.0769 706.647 46.4175 704.282 46.4175C700.341 47.0769 697.188 49.7142 694.035 51.0329C690.094 53.011 687.73 54.3296 683 54.3296C679.847 54.3296 677.483 54.3296 674.33 54.3296C671.177 54.3296 668.812 54.3296 665.659 53.6703C662.506 53.011 660.142 53.6703 656.989 53.011C655.412 52.3516 653.836 51.0329 652.26 50.3736C650.683 50.3736 649.107 50.3736 648.318 50.3736C646.742 50.3736 644.377 50.3736 642.801 50.3736C641.224 50.3736 638.86 50.3736 637.283 50.3736C634.919 50.3736 634.919 51.0329 633.342 51.6923C629.401 53.011 623.883 53.011 619.154 53.011C616.789 53.011 615.213 52.3516 612.848 52.3516C610.484 52.3516 608.907 52.3516 606.542 52.3516C602.601 52.3516 598.66 52.3516 594.719 52.3516C592.354 52.3516 589.99 52.3516 587.625 53.6703C586.049 54.989 585.26 56.3077 582.896 56.3077C581.319 56.3077 580.531 56.3077 578.955 56.3077C572.649 56.3077 565.555 55.6483 560.037 56.3077C558.461 56.3077 556.884 57.6263 555.308 58.2857C553.731 58.945 551.367 58.945 549.79 58.945C548.214 58.945 545.849 59.6044 544.273 58.945C543.484 58.2857 541.908 56.3077 541.12 55.6483C537.179 53.6703 534.026 56.3077 529.296 55.6483C526.932 54.989 526.932 53.6703 525.355 53.011C520.626 53.6703 519.838 53.011 518.261 53.011C516.685 52.3516 515.897 51.6923 513.532 52.3516C510.379 53.011 508.014 55.6483 505.65 57.6263C504.861 57.6263 504.073 56.967 503.285 56.3077C502.497 55.6483 500.92 55.6483 499.344 56.3077C497.767 55.6483 497.767 54.3296 496.191 53.6703C495.403 53.6703 493.826 53.6703 493.038 53.011C491.462 52.3516 489.097 52.3516 487.52 51.6923C485.156 51.6923 482.791 51.6923 480.426 51.6923C479.638 51.6923 477.274 51.6923 476.485 51.6923C475.697 51.6923 475.697 50.3736 474.909 49.7142C474.121 48.3956 470.968 47.7362 469.391 47.0769C466.238 45.0989 461.509 45.7582 457.568 45.0989C456.78 45.0989 456.78 44.4395 455.991 44.4395C454.415 44.4395 452.05 45.0989 450.474 44.4395L449.686 44.4395C448.109 43.1208 447.321 41.8021 446.533 40.4835C444.956 38.5054 443.38 39.1648 440.227 39.8241C435.498 41.1428 430.768 43.1208 427.615 45.7582C427.615 46.4175 426.039 47.7362 424.462 48.3956C423.674 48.3956 423.674 48.3956 422.886 47.7362C422.098 47.0769 421.31 45.7582 420.521 45.0989C418.157 43.7802 415.004 44.4395 412.639 45.0989C409.486 45.7582 407.121 46.4175 404.757 47.0769C401.604 47.7362 398.451 47.0769 396.086 47.0769C393.722 47.0769 392.933 46.4175 390.569 45.7582C385.051 44.4395 378.745 45.0989 373.228 45.7582C369.287 46.4175 366.922 46.4175 363.769 46.4175C362.193 46.4175 359.04 45.7582 357.463 46.4175C356.675 47.0769 356.675 47.7362 355.887 48.3956C355.099 49.7142 354.31 49.7142 352.734 50.3736C350.369 51.6923 348.005 52.3516 345.64 53.011C343.275 53.6703 340.122 53.011 336.969 53.011C333.028 52.3516 328.299 53.011 324.358 53.011C321.993 53.011 320.417 53.011 318.052 53.6703C316.476 54.3296 314.899 54.3296 313.323 54.989C309.382 55.6483 306.229 54.989 302.288 54.989C299.923 54.989 296.77 54.989 294.405 54.989C292.041 54.3296 290.464 53.6703 288.099 53.6703C282.582 53.011 276.276 49.7142 269.97 51.6923C268.394 52.3516 267.606 53.011 266.817 53.011C266.029 53.011 264.453 53.011 263.664 53.011C260.512 53.011 258.147 53.6703 255.782 54.989C252.629 56.3077 250.265 56.967 247.9 58.945C247.112 59.6044 245.535 59.6044 242.382 59.6044C240.018 59.6044 238.441 59.6044 236.077 60.2637C234.5 60.9231 233.712 60.9231 232.924 60.9231C229.771 60.9231 225.83 60.2637 222.677 60.2637C217.947 60.2637 215.583 58.2857 211.642 56.3077C210.065 55.6483 208.489 55.6483 206.124 54.989C205.336 54.989 204.548 53.6703 203.759 53.6703C201.395 53.011 198.242 53.6703 196.665 53.6703C189.571 53.6703 182.477 54.3296 175.383 53.6703C172.23 53.6703 169.866 51.6923 166.713 51.0329C159.619 50.3736 153.313 48.3956 146.219 47.7362C140.701 47.0769 135.184 47.0769 129.666 49.7142C128.09 50.3736 127.302 51.6923 125.725 52.3516C122.572 53.011 117.843 53.011 114.69 53.011C106.808 54.3296 98.9254 55.6483 91.0432 55.6483C88.6785 55.6483 85.5256 55.6483 83.1609 53.6703C80.7962 53.011 80.7962 51.6923 77.6433 51.0329C72.1258 50.3736 61.8788 51.6923 57.9377 54.989C55.573 56.967 54.7848 58.945 53.2084 60.9231C52.4201 61.5824 53.2084 61.5824 51.6319 61.5824C50.8437 62.2417 46.9026 61.5824 45.3261 61.5824C43.7497 61.5824 40.5967 61.5824 39.0203 62.2417C36.6556 63.5604 33.5027 66.1978 30.3498 65.5384C27.1969 64.8791 24.8322 62.9011 21.6793 62.9011C17.7382 62.9011 15.3735 62.2417 11.4324 60.9231C8.27952 60.2637 4.33838 59.6044 1.18548 59.6044C-3.54387 59.6044 -7.48499 59.6044 -12.2143 59.6044C-22.4613 59.6044 -31.92 62.2417 -42.1669 62.2417C-44.5316 62.2417 -46.8963 62.9011 -49.2609 62.9011C-53.9903 62.9011 -59.5079 62.2417 -64.2372 62.9011C-68.1783 63.5604 -72.1195 65.5384 -75.2724 66.8571C-76.8488 67.5165 -79.2135 68.8351 -80.7899 68.8351C-81.5782 68.8351 -82.3664 68.8351 -83.1546 68.8351C-84.7311 69.4945 -85.5193 70.1538 -87.0957 70.8132C-88.6722 71.4725 -91.0369 72.1319 -92.6133 72.1319C-98.9191 72.1319 -105.225 73.4505 -111.531 73.4505C-117.837 73.4505 -115.472 79.3846 -121.778 79.3846C-124.142 79.3846 -126.507 79.3846 -128.872 79.3846C-130.448 79.3846 -131.236 80.044 -132.813 80.044C-133.601 80.044 -134.389 80.044 -135.177 80.044C-136.754 80.044 -136.754 80.7033 -138.33 80.7033C-140.695 80.7033 -142.272 80.7033 -144.636 80.7033C-146.213 80.7033 -147.001 81.3626 -147.789 82.022C-150.154 82.6813 -152.518 75.4286 -154.883 75.4286C-157.248 75.4286 -159.612 75.4286 -161.977 75.4286C-163.554 75.4286 -165.918 69.4945 -167.495 68.8351C-169.859 67.5165 -173.012 61.5824 -175.377 61.5824C-177.742 61.5824 -179.318 61.5824 -181.683 61.5824C-183.259 61.5824 -184.836 60.9231 -186.412 62.2417C-190.353 65.5384 -188.777 67.5165 -194.294 66.1978C-195.083 66.1978 -196.659 64.8791 -198.235 64.8791C-200.6 64.2198 -202.177 63.5604 -204.541 63.5604C-205.33 63.5604 -214 56.3077 -214 56.3077L-214 10.1538C-213.212 10.1538 -210.847 14.7692 -210.059 14.7692C-207.694 15.4285 -205.33 17.4065 -202.965 18.0659C-201.388 19.3845 -199.812 20.0439 -197.447 19.3845C-192.718 18.7252 -191.93 18.0659 -186.412 19.3845C-185.624 19.3845 -184.047 20.0439 -183.259 20.7032C-180.895 20.7032 -178.53 22.0219 -175.377 22.6812C-171.436 23.3406 -172.224 22.6812 -169.859 22.0219C-166.706 20.7032 -162.765 22.6812 -159.612 22.6812C-158.036 22.6812 -154.883 23.3406 -153.307 22.6812C-151.73 22.6812 -150.942 21.3626 -150.154 21.3626C-148.577 20.7032 -146.213 21.3626 -143.848 21.3626C-140.695 20.7032 -136.754 19.3845 -133.601 20.0439C-130.448 20.0439 -126.507 20.7032 -123.354 22.0219C-122.566 22.6812 -121.778 23.3406 -120.201 23.3406C-119.413 23.9999 -117.837 23.9999 -117.048 23.9999C-115.472 24.6593 -114.684 24.6593 -113.107 24.6593C-111.531 24.6593 -108.378 25.3186 -107.59 23.9999C-106.801 23.3406 -106.801 21.3626 -105.225 20.7032C-102.86 19.3845 -99.7073 20.0439 -97.3427 20.0439C-91.0369 19.3845 -84.7311 19.3845 -78.4253 17.4065C-76.8488 16.7472 -72.1195 13.4505 -69.7548 14.1098C-68.9666 14.1098 -68.1783 14.7692 -68.1783 15.4285C-65.8137 16.0878 -64.2372 16.0878 -61.8725 16.0878C-57.9314 16.0878 -53.9903 16.7472 -49.2609 17.4065C-46.108 17.4065 -42.1669 18.0659 -39.014 17.4065C-36.6493 16.7472 -35.8611 15.4285 -34.2847 14.1098C-32.7082 12.7911 -32.7082 12.1318 -30.3435 11.4724C-28.7671 11.4724 -27.1906 11.4724 -24.8259 11.4724C-23.2495 11.4724 -20.8848 10.8131 -19.3084 10.8131C-17.7319 10.8131 -16.1555 10.1538 -14.579 10.8131C-13.7908 11.4724 -13.0026 12.1318 -13.0026 12.7911C-12.2143 14.1098 -12.2143 14.7692 -10.6379 14.7692C-9.06145 14.7692 -6.69677 14.1098 -5.12032 14.1098C-3.54387 14.1098 -1.96742 14.1098 -1.17919 14.1098C0.39726 14.1098 0.397257 14.7692 1.97371 14.1098C2.76193 14.1098 3.55016 13.4505 5.12661 13.4505C7.49128 12.7911 9.06774 12.1318 10.6442 11.4724C13.0089 10.8131 14.5853 10.8131 17.7382 10.8131C21.6793 10.8131 25.6205 10.8131 28.7734 10.8131C31.9263 10.8131 35.0792 10.1538 37.4438 10.1538C38.2321 10.1538 39.0203 10.8131 39.8085 10.8131C40.5968 10.8131 41.385 10.1538 42.1732 9.49442C44.5379 8.83508 45.3261 8.17574 46.1143 6.85705C46.1143 6.19771 46.1143 5.53837 46.9025 5.53837C48.479 5.53837 48.479 6.85705 50.0554 7.5164C52.4201 8.83508 51.6319 9.49442 53.9966 9.49442C55.573 9.49442 57.1495 10.1538 58.7259 10.1538C61.8788 10.8131 65.0317 11.4724 68.1846 12.1318C70.5493 12.7911 72.1258 13.4505 73.7022 14.7692C76.0669 15.4285 78.4316 14.1098 80.008 13.4505C82.3727 12.7911 84.7374 12.1318 87.8903 12.1318C94.1961 11.4724 102.078 10.8131 107.596 13.4505C110.749 14.7692 111.537 16.7472 114.69 16.0878C119.419 15.4285 122.572 12.7911 127.302 12.7911C129.666 12.7911 132.031 12.7911 134.396 12.7911C135.972 12.7911 139.125 12.1318 140.701 12.7911C143.066 13.4505 143.066 16.0878 146.219 16.7472C147.007 16.7472 147.795 16.7472 148.584 16.7472C149.372 16.0878 150.16 15.4285 151.737 14.7692C154.101 12.7911 158.831 11.4724 161.983 11.4724C163.56 11.4724 165.136 10.8131 166.713 10.8131C169.077 10.8131 170.654 10.8131 173.019 10.8131C173.807 10.8131 174.595 10.8131 175.383 10.1538L176.171 9.49442C177.748 8.83508 180.113 8.83508 181.689 9.49442C181.689 11.4724 184.054 12.7911 185.63 13.4505C186.418 14.1098 186.418 14.1098 187.995 14.1098C190.36 14.1098 192.724 14.1098 195.089 13.4505C197.454 12.7911 199.03 11.4724 200.606 10.8131C204.548 8.83508 204.548 5.53837 207.7 2.90101C208.489 2.24166 210.065 3.56035 210.853 4.87903C212.43 7.5164 216.371 8.17574 219.524 9.49442C223.465 13.4505 227.406 12.1318 231.347 13.4505C235.288 14.1098 239.229 15.4285 243.959 15.4285C245.535 15.4285 247.112 15.4285 249.476 15.4285C251.053 15.4285 251.841 14.7692 252.629 14.7692C253.418 14.7692 254.994 14.7692 255.782 14.7692C255.782 14.1098 255.782 13.4505 255.782 13.4505C255.782 12.7911 256.57 12.1318 256.57 11.4724C257.359 10.8131 257.359 10.1538 257.359 9.49442C257.359 8.83508 258.147 9.49442 258.147 8.17574C258.935 7.5164 259.723 7.5164 261.3 7.5164C262.876 7.5164 263.664 6.19771 265.241 6.19771C269.182 6.19771 272.335 10.1538 275.488 12.1318C277.853 13.4505 279.429 14.7692 281.005 16.0878C283.37 18.0659 284.158 17.4065 284.947 14.7692C285.735 12.7911 286.523 10.8131 288.099 8.83508C288.888 8.17574 288.099 6.19771 289.676 6.19771C291.252 6.19771 292.041 10.8131 293.617 11.4724C295.194 12.1318 297.558 11.4724 299.135 11.4724C302.288 11.4724 303.864 10.8131 307.017 10.1538C309.382 10.1538 311.746 9.49442 314.111 8.83508C314.899 8.83508 316.476 8.17574 316.476 8.17574C317.264 7.5164 318.052 6.85705 318.052 6.19771C318.84 5.53837 320.417 4.21969 320.417 2.90101C321.993 2.24166 321.993 0.922981 322.781 0.26364C325.146 -1.05504 329.875 2.90101 331.452 4.87903C333.028 6.19771 333.817 6.19771 335.393 6.85705C340.911 8.17574 347.216 8.83508 353.522 8.83508C355.887 8.83508 356.675 9.49442 358.251 8.17574L358.251 7.5164C358.251 7.5164 359.04 7.5164 359.828 7.5164C362.193 7.5164 364.557 6.85705 366.922 6.19771C368.498 5.53837 370.075 3.56035 372.44 3.56035C374.016 2.90101 375.592 4.21969 377.169 4.87903C379.534 4.87903 382.686 4.87903 385.051 4.87903C387.416 4.87903 389.781 5.53837 392.145 5.53837C396.086 6.19771 400.027 6.85705 403.969 6.85705C407.91 6.85705 411.063 7.5164 414.215 8.17574C415.792 8.17574 418.157 8.83508 420.521 8.17574C422.098 8.17574 421.31 8.83508 421.31 9.49442C421.31 10.1538 422.098 12.1318 423.674 10.8131C423.674 10.8131 423.674 10.8131 423.674 10.1538C425.251 12.1318 426.827 12.7911 429.98 12.7911C433.133 12.7911 434.709 12.1318 436.286 10.1538C437.862 8.83508 439.439 6.85705 441.803 6.19771C443.38 5.53837 445.745 6.19771 447.321 6.19771C449.686 6.19771 452.05 6.85705 454.415 8.17574C455.203 8.83508 456.78 8.83508 457.568 8.83508C459.933 8.83508 459.933 7.5164 459.144 5.53837C459.144 4.21969 459.933 3.56035 462.297 3.56035C466.238 4.21969 469.391 7.5164 472.544 9.49442C474.909 10.8131 477.274 11.4724 479.638 11.4724C481.215 11.4724 483.579 11.4724 485.944 11.4724C489.097 12.1318 489.097 15.4285 490.673 17.4065C493.038 20.7032 497.767 15.4285 502.497 15.4285C504.073 15.4285 506.438 21.3626 508.014 20.7032C511.955 20.7032 515.108 19.3845 515.108 15.4285C515.108 12.7911 513.532 9.49442 515.897 7.5164C517.473 6.19771 521.414 9.49442 523.779 10.1538C526.143 11.4724 526.932 13.4505 529.296 14.7692C531.661 16.7472 532.449 16.7472 534.814 17.4065C537.179 18.0659 539.543 20.0439 541.12 21.3626C542.696 22.6812 545.061 18.0659 547.426 18.7252C549.002 19.3845 550.578 20.0439 552.155 20.0439C555.308 21.3626 556.884 25.978 558.461 23.9999C558.461 22.0219 560.037 20.0439 560.825 18.7252C561.614 17.4065 561.614 15.4285 562.402 14.1098C563.19 12.7911 562.402 13.4505 563.978 13.4505L564.767 13.4505C566.343 13.4505 567.919 13.4505 570.284 14.1098C571.861 14.1098 572.649 14.1098 573.437 14.7692C574.225 15.4285 574.225 16.0878 575.013 16.0878C575.802 16.7472 576.59 16.7472 577.378 16.7472C582.896 18.0659 590.778 14.1098 594.719 17.4065C596.296 18.7252 593.143 22.0219 594.719 23.3406C599.448 25.978 604.966 20.7032 610.484 20.7032C613.636 20.7032 616.001 20.7032 619.154 20.0439C620.73 19.3845 622.307 19.3845 623.095 19.3845C624.672 18.7252 627.036 18.0659 628.613 17.4065C629.401 17.4065 630.977 16.7472 630.977 16.7472C630.977 16.7472 630.977 16.0878 630.977 15.4285C631.766 14.1098 634.13 16.7472 634.919 17.4065C635.707 18.0659 635.707 18.0659 636.495 18.7252C638.86 20.7032 642.013 20.7032 644.377 20.7032C645.954 20.7032 649.107 20.7032 649.895 22.6812C650.683 23.3406 652.26 22.6812 653.836 22.6812C656.201 22.6812 659.354 22.6812 661.718 22.0219C665.659 22.0219 669.6 22.0219 673.542 22.0219C675.906 22.0219 681.424 22.0219 683 20.0439C683.789 18.7252 683.789 18.7252 685.365 18.0659C686.941 17.4065 687.73 17.4065 690.094 17.4065C691.671 17.4065 694.035 18.0659 696.4 17.4065C697.977 17.4065 698.765 16.7472 700.341 16.0878C702.706 15.4285 704.282 14.1098 706.647 13.4505C708.224 13.4505 708.223 13.4505 709.012 14.1098C711.376 14.7692 712.953 14.7692 715.318 15.4285C717.682 16.0878 719.259 18.0659 721.623 19.3845C722.412 20.0439 724.776 20.0439 726.353 20.0439C729.506 20.7032 731.87 20.7032 735.023 22.0219C738.176 23.3406 742.117 23.9999 745.27 23.9999C746.058 23.9999 746.847 23.9999 747.635 23.9999C749.999 23.3406 751.576 21.3626 753.152 20.7032C753.941 20.0439 754.729 20.0439 754.729 18.7252C754.729 18.0659 754.729 17.4065 754.729 16.0878C755.517 16.0878 756.305 16.0878 757.093 16.0878C760.246 16.0878 762.611 16.0878 765.764 16.0878C766.552 16.0878 769.705 15.4285 770.493 16.0878C771.282 16.0878 770.493 16.7472 771.282 17.4065C771.282 18.0659 772.07 18.7252 772.858 19.3845C775.223 20.7032 777.587 20.0439 779.164 19.3845C780.74 18.7252 782.317 18.0659 784.681 18.0659C786.258 18.0659 787.046 17.4065 788.622 18.0659C790.199 18.0659 791.775 18.7252 794.14 18.7252C795.717 18.7252 796.505 19.3845 798.081 19.3845C798.869 19.3845 798.869 18.7252 798.869 18.7252C799.658 18.7252 800.446 18.7252 801.234 18.7252C802.811 18.0659 802.022 16.7472 802.022 16.0878C802.022 14.7692 802.022 15.4285 802.811 14.7692C802.811 14.1098 803.599 13.4505 803.599 12.7911C804.387 12.1318 805.175 10.8131 805.963 10.1538C809.905 8.83508 813.846 10.8131 817.787 11.4724C819.363 12.1318 820.151 12.1318 821.728 13.4505C822.516 14.1098 824.093 14.7692 824.881 15.4285C826.457 16.7472 826.457 17.4065 828.822 18.0659C830.398 18.0659 831.187 18.0659 832.763 18.7252C833.551 18.7252 835.128 19.3845 835.916 18.7252C837.492 18.7252 838.281 17.4065 839.857 17.4065C842.222 16.7472 844.587 17.4065 846.951 16.7472C847.739 16.7472 847.739 16.0878 848.528 16.0878C850.892 15.4285 852.469 16.0878 854.045 16.7472C857.198 17.4065 861.139 16.7472 864.292 16.7472C865.869 16.7472 868.233 16.7472 869.81 16.7472C871.386 16.7472 872.963 16.7472 874.539 15.4285C875.327 14.7692 876.115 14.1098 877.692 14.1098C879.268 14.1098 879.268 14.7692 880.057 15.4285C880.845 16.0878 881.633 16.0878 883.209 16.7472C884.786 17.4065 886.362 17.4065 888.727 17.4065C890.303 17.4065 892.668 17.4065 894.245 16.7472C895.033 16.0878 895.033 16.0878 896.609 15.4285C898.186 14.7692 897.398 15.4285 898.974 14.7692C900.55 14.1098 898.974 14.1098 900.55 14.1098C901.339 14.1098 902.915 14.1098 903.703 14.1098C905.28 14.1098 908.433 13.4505 910.009 14.1098C911.586 14.7692 913.162 15.4285 913.95 15.4285C916.315 16.0878 918.68 15.4285 921.044 15.4285C924.197 14.7692 926.562 14.7692 929.715 14.1098C932.08 13.4505 934.444 12.7911 937.597 12.7911C939.962 12.1318 944.691 10.8131 945.479 12.7911C947.056 14.7692 949.42 14.7692 950.997 15.4285C954.15 16.0878 955.726 14.1098 958.879 13.4505C961.244 12.7911 963.608 13.4505 965.973 13.4505C970.702 13.4505 975.432 12.7911 979.373 13.4505C980.949 13.4505 981.738 14.1098 982.526 14.7692C984.891 16.7472 987.255 18.0659 991.196 18.0659C991.985 18.0659 992.773 18.0659 994.349 18.0659C995.926 18.0659 997.502 17.4065 999.867 16.7472C1001.44 16.0878 1003.02 16.0878 1003.81 15.4285C1003.81 15.4285 1003.81 14.7692 1004.6 14.7692C1006.17 14.1098 1006.96 14.7692 1007.75 14.1098L1007.75 13.4505C1007.75 13.4505 1009.33 12.7911 1010.11 12.7911C1014.05 12.1318 1018 13.4505 1021.15 11.4724C1021.94 10.8131 1022.73 10.8131 1024.3 10.1538C1025.88 10.1538 1027.45 10.1538 1029.03 10.8131C1030.61 11.4724 1032.97 10.8131 1034.55 11.4724C1034.55 14.7692 1040.07 13.4505 1042.43 13.4505C1045.58 13.4505 1047.95 10.8131 1050.31 11.4724C1051.1 11.4724 1052.68 12.1318 1054.25 12.7911C1055.04 13.4505 1055.83 13.4505 1056.62 14.1098C1058.98 15.4285 1060.56 15.4285 1063.71 15.4285C1066.08 15.4285 1068.44 15.4285 1070.81 15.4285C1073.17 15.4285 1075.54 15.4285 1077.11 15.4285C1079.48 15.4285 1081.05 14.7692 1083.42 14.1098C1085 14.1098 1085.78 14.1098 1087.36 13.4505C1088.94 12.7911 1090.51 12.7911 1092.09 12.7911C1093.67 12.7911 1096.03 11.4724 1098.39 10.8131C1100.76 10.1538 1103.12 10.8131 1106.28 10.1538C1108.64 10.1538 1109.43 10.1538 1111.01 10.8131C1115.74 12.1318 1120.47 11.4724 1125.19 12.7911C1126.77 13.4505 1127.56 14.7692 1129.14 15.4285C1131.5 16.7472 1134.65 16.7472 1137.81 16.7472C1140.96 17.4065 1144.11 17.4065 1148.05 17.4065C1152.78 17.4065 1155.94 14.7692 1160.66 13.4505C1163.03 12.7911 1166.18 13.4505 1168.55 13.4505C1170.91 13.4505 1172.49 12.1318 1174.85 11.4724C1175.64 10.8131 1177.22 10.1538 1178.01 9.49442C1181.16 8.17574 1185.1 8.83508 1188.25 8.17574C1192.19 7.5164 1197.71 5.53837 1201.65 7.5164C1204.02 8.83508 1205.59 12.1318 1208.75 12.7911C1212.69 14.1098 1216.63 14.7692 1219.78 16.7472C1222.93 18.0659 1223.72 18.0659 1226.88 17.4065C1230.03 16.7472 1234.76 18.0659 1237.91 17.4065C1238.7 17.4065 1239.49 16.7472 1240.28 16.0878C1241.06 15.4285 1241.85 15.4285 1242.64 14.7692C1244.22 13.4505 1242.64 12.7911 1245 12.7911C1246.58 12.7911 1247.37 12.7911 1248.95 12.7911C1251.31 12.7911 1254.46 12.1318 1256.83 12.1318C1256.83 12.1318 1258.4 12.1318 1259.19 12.1318C1259.98 12.7911 1259.98 13.4505 1260.77 14.1098C1261.56 14.7692 1263.13 14.7692 1264.71 14.7692C1267.08 14.7692 1269.44 14.7692 1272.59 14.7692C1274.96 14.7692 1278.11 15.4285 1279.69 15.4285C1281.26 15.4285 1282.05 14.1098 1283.63 14.7692C1284.42 15.4285 1284.42 15.4285 1285.2 16.0878C1285.99 16.0878 1287.57 16.0878 1289.15 15.4285C1292.3 14.7692 1295.45 15.4285 1298.6 15.4285C1303.33 16.0878 1307.27 15.4285 1312 14.7692C1315.16 14.1098 1318.31 14.1098 1320.67 13.4505C1321.46 12.7911 1323.04 12.1318 1323.83 12.7911C1325.4 13.4505 1326.19 14.1098 1326.98 15.4285C1327.77 16.0878 1326.98 17.4065 1327.77 18.0659C1328.56 18.7252 1329.34 18.7252 1330.13 19.3845C1330.92 19.3845 1331.71 19.3845 1332.5 19.3845C1333.29 19.3845 1333.29 20.0439 1334.07 20.0439C1335.65 20.0439 1336.44 18.7252 1337.23 18.0659C1339.59 17.4065 1341.96 16.7472 1344.32 16.7472C1346.69 16.0878 1349.05 14.7692 1351.42 14.1098C1352.2 13.4505 1356.93 12.7911 1358.51 12.7911C1357.72 14.1098 1358.51 17.4065 1359.3 18.0659C1360.09 18.7252 1360.09 18.0659 1360.87 18.7252C1361.66 18.7252 1361.66 19.3845 1362.45 19.3845C1364.82 20.0439 1367.97 19.3845 1371.12 20.0439C1374.27 20.7032 1377.43 21.3626 1381.37 21.3626C1383.73 21.3626 1385.31 20.7032 1387.67 20.0439C1390.04 19.3845 1391.61 18.0659 1392.4 16.0878C1392.4 15.4285 1393.19 14.1098 1393.98 14.1098C1394.77 14.1098 1395.56 14.1098 1396.34 14.7692C1398.71 15.4285 1400.29 14.7692 1401.86 15.4285C1402.65 16.0878 1404.23 16.7472 1405.01 17.4065C1406.59 18.0659 1407.38 19.3845 1408.96 20.0439C1411.32 21.3626 1413.69 21.3626 1416.05 21.3626C1419.2 21.3626 1420.78 18.7252 1423.93 18.7252C1425.51 18.7252 1426.3 19.3845 1427.87 18.0659C1428.66 17.4065 1427.87 16.0878 1428.66 16.0878C1429.45 15.4285 1431.03 15.4285 1432.6 15.4285C1435.76 14.7692 1438.91 14.1098 1442.85 14.1098C1446 14.1098 1450.73 14.7692 1453.88 12.7911C1454.67 12.1318 1454.67 11.4724 1455.46 10.8131C1456.25 10.8131 1458.61 10.8131 1460.19 10.8131C1462.55 10.8131 1464.13 10.8131 1466.5 11.4724C1468.86 12.1318 1470.44 14.1098 1472.8 14.1098C1474.38 14.1098 1475.95 14.1098 1476.74 14.1098C1478.32 14.1098 1479.9 14.7692 1480.68 15.4285C1481.47 16.0878 1483.05 16.7472 1483.84 17.4065L1484.63 18.0659C1486.2 18.7252 1488.57 16.7472 1490.14 18.0659C1491.72 20.0439 1494.87 19.3845 1495.66 20.7032C1495.66 20.7032 1495.66 21.3626 1496.45 21.3626C1497.24 21.3626 1498.03 21.3626 1498.03 21.3626C1501.18 21.3626 1503.54 21.3626 1506.7 21.3626C1511.43 20.7032 1515.37 18.0659 1520.88 18.0659C1523.25 18.0659 1524.82 18.0659 1527.19 18.0659C1527.98 18.0659 1528.77 18.7252 1529.55 18.7252C1531.13 18.7252 1531.92 19.3845 1533.5 19.3845C1535.07 19.3845 1537.44 19.3845 1539.01 20.0439C1540.59 20.7032 1540.59 22.0219 1542.17 22.6812C1542.95 22.6812 1544.53 23.3406 1544.53 23.3406C1546.11 23.3406 1547.68 23.3406 1549.26 23.3406C1551.62 23.3406 1553.99 23.3406 1556.35 23.3406C1557.14 23.3406 1557.14 23.3406 1557.93 23.3406C1559.51 22.6812 1558.72 20.0439 1560.3 20.7032C1561.08 20.7032 1559.51 22.6812 1559.51 23.3406C1560.29 24.6593 1562.66 23.9999 1564.24 23.9999C1565.02 23.9999 1565.81 23.3406 1566.6 23.3406C1568.18 23.3406 1568.18 24.6593 1568.97 25.3186C1569.75 25.978 1570.54 25.978 1572.12 25.978C1572.91 25.978 1573.69 25.978 1574.48 25.978C1575.27 26.6373 1576.06 28.6153 1577.64 27.956C1579.21 27.2966 1580 25.978 1580.79 25.3186C1581.58 24.6593 1582.37 24.6593 1583.15 24.6593C1583.94 24.6593 1585.52 25.3186 1586.31 24.6593C1587.09 23.9999 1587.09 23.3406 1587.88 23.3406C1589.46 23.3406 1590.25 24.6593 1591.04 25.3186C1592.61 25.978 1591.82 22.6812 1591.82 22.0219C1591.82 21.3626 1591.82 20.7032 1592.61 20.7032C1594.19 19.3845 1596.55 18.7252 1598.92 18.7252C1602.86 18.7252 1607.59 18.7252 1612.32 18.7252C1613.89 18.7252 1613.89 18.7252 1615.47 19.3845C1617.05 20.0439 1617.84 20.7032 1619.41 21.3626C1621.78 22.6812 1624.14 22.6812 1627.29 22.6812C1628.87 22.6812 1630.45 22.6812 1632.02 22.6812C1635.18 22.6812 1636.75 21.3626 1639.91 20.7032C1641.48 20.0439 1642.27 20.0439 1643.85 20.0439C1645.42 20.0439 1645.42 19.3845 1647 18.7252C1649.36 18.0659 1652.52 18.7252 1655.67 18.0659C1656.46 18.0659 1658.82 17.4065 1659.61 17.4065C1661.98 18.0659 1663.55 22.0219 1664.34 23.3406C1665.13 24.6593 1665.92 25.3186 1668.28 25.978C1669.07 25.978 1669.07 25.978 1669.86 25.978C1669.86 25.978 1670.65 25.978 1670.65 26.6373C1673.01 27.2966 1675.38 26.6373 1677.74 27.2966C1680.89 27.956 1684.83 27.956 1687.99 27.2966C1691.14 26.6373 1694.29 25.3186 1696.66 24.6593C1698.23 23.9999 1700.6 23.3406 1702.18 22.6812C1702.96 22.0219 1703.75 22.0219 1704.54 21.3626C1706.9 20.7032 1709.27 21.3626 1711.63 22.0219C1712.42 22.0219 1715.58 22.0219 1717.15 22.6812C1718.73 24.6593 1721.88 25.978 1724.25 26.6373C1727.4 27.2966 1731.34 28.6153 1734.49 28.6153C1736.86 27.956 1740.01 26.6373 1741.59 26.6373C1743.16 26.6373 1745.53 28.6153 1746.32 29.2747C1747.1 29.2747 1747.1 29.934 1747.89 29.934C1748.68 30.5933 1749.47 30.5933 1750.26 31.2527C1751.83 31.912 1752.62 32.5714 1754.2 31.912C1756.56 31.2527 1757.35 29.934 1758.93 28.6153C1760.5 27.2966 1762.08 27.2966 1763.66 25.978C1766.02 24.6593 1766.81 24.6593 1769.17 24.6593C1774.69 23.9999 1779.42 22.6812 1784.94 22.0219C1786.52 22.0219 1788.88 22.6812 1791.24 22.0219C1792.03 22.0219 1792.03 20.7032 1793.61 20.7032C1795.97 20.7032 1797.55 21.3626 1799.92 21.3626C1802.28 21.3626 1805.43 21.3626 1807.8 20.7032C1810.16 20.7032 1812.53 20.7032 1814.89 21.3626C1817.26 22.0219 1818.83 22.6812 1821.2 22.6812C1822.77 23.3406 1821.99 23.3406 1823.56 22.6812C1831.44 18.7252 1841.69 19.3845 1850.36 18.0659C1855.09 17.4065 1859.03 16.0878 1862.97 16.0878C1865.34 16.0878 1867.7 15.4285 1870.07 14.7692C1873.22 13.4505 1875.59 14.7692 1878.74 15.4285C1881.89 16.0878 1883.47 18.7252 1886.62 19.3845C1888.98 20.0439 1891.35 19.3845 1893.71 19.3845C1897.66 19.3845 1903.17 20.0439 1906.33 18.0659C1907.9 17.4065 1908.69 16.0878 1911.06 16.0878C1912.63 16.0878 1914.21 16.0878 1915.78 16.0878C1918.15 16.0878 1922.09 16.7472 1924.45 16.0878C1928.4 14.7692 1932.34 15.4285 1937.07 15.4285C1938.64 15.4285 1941.01 15.4285 1942.58 15.4285C1944.95 15.4285 1947.31 16.0878 1949.68 16.0878C1951.25 16.0878 1952.83 15.4285 1954.41 15.4285C1958.35 15.4285 1962.29 15.4285 1966.23 15.4285C1967.02 15.4285 1968.6 15.4285 1969.38 15.4285C1972.54 16.0878 1976.48 16.7472 1978.84 18.0659C1982 19.3845 1984.36 21.3626 1987.51 22.6812C1988.3 22.6812 1988.3 22.0219 1988.3 21.3626C1989.09 20.0439 1989.88 19.3845 1991.45 18.0659C1993.03 16.7472 1995.4 13.4505 1997.76 12.7911C1998.55 12.7911 2000.12 12.7911 2001.7 12.7911C2005.64 12.1318 2008.01 10.8131 2011.95 9.49442C2013.52 8.83508 2014.31 8.83508 2015.89 8.83508C2016.68 8.83508 2017.47 8.17574 2017.47 8.17574C2019.04 7.5164 2019.04 8.17574 2019.83 9.49442C2021.41 11.4724 2023.77 12.7911 2026.14 14.1098C2026.92 14.7692 2028.5 14.7692 2029.29 15.4285C2030.87 16.0878 2032.44 16.7472 2034.02 16.7472C2034.81 16.7472 2035.59 17.4065 2037.17 17.4065C2038.75 18.7252 2039.54 20.0439 2041.9 20.0439C2043.48 20.0439 2045.84 20.0439 2046.63 19.3845C2048.21 18.7252 2048.21 17.4065 2048.99 16.0878C2049.78 14.7692 2052.15 15.4285 2053.72 15.4285C2055.3 15.4285 2057.67 14.7692 2059.24 15.4285C2061.61 16.0878 2062.39 18.0659 2064.76 19.3845C2067.91 21.3626 2072.64 22.0219 2075.79 22.0219C2079.74 22.0219 2083.68 21.3626 2086.83 18.7252C2088.41 17.4065 2089.98 18.0659 2092.35 18.7252C2095.5 19.3845 2097.86 21.3626 2099.44 23.3406C2101.81 26.6373 2105.75 25.978 2108.9 27.956C2110.48 29.2747 2111.26 29.2747 2113.63 27.956C2115.21 27.2966 2115.21 26.6373 2116.78 25.978C2117.57 25.3186 2118.36 23.9999 2119.15 23.9999C2120.72 23.9999 2121.51 25.3186 2123.09 24.6593C2123.88 23.9999 2122.3 22.6812 2123.09 22.0219C2124.66 20.7032 2126.24 22.6812 2127.82 23.3406C2130.97 24.6593 2133.33 24.6593 2136.49 24.6593C2139.64 24.6593 2142.01 24.6593 2145.16 24.6593C2147.52 24.6593 2149.89 24.6593 2152.25 25.3186C2153.83 25.978 2154.62 27.956 2156.98 27.956C2157.77 27.956 2159.35 27.956 2160.13 27.956C2161.71 27.2966 2162.5 25.978 2164.08 25.3186C2168.8 22.6812 2174.32 25.978 2178.26 23.9999C2179.05 23.9999 2179.05 23.3406 2179.05 22.6812C2179.84 22.6812 2180.63 22.6812 2181.42 22.6812C2182.99 22.6812 2182.99 22.6812 2184.57 22.0219C2185.36 21.3626 2186.15 20.7032 2186.93 20.0439C2194.03 18.0659 2198.76 26.6373 2205.06 23.9999C2207.43 23.3406 2209 22.6812 2211.37 22.0219C2212.95 21.3626 2214.52 20.7032 2216.1 20.0439C2217.67 20.0439 2217.67 20.0439 2219.25 19.3845C2220.83 18.7252 2222.4 18.7252 2223.98 18.7252C2225.56 18.7252 2227.13 19.3845 2228.71 19.3845C2229.5 19.3845 2230.29 19.3845 2231.07 20.0439C2231.07 20.0439 2231.86 20.7032 2232.65 21.3626C2233.44 21.3626 2233.44 21.3626 2234.23 21.3626C2235.02 21.3626 2235.8 22.0219 2236.59 22.0219C2237.38 22.0219 2238.96 22.0219 2239.75 22.6812C2240.53 22.6812 2241.32 23.3406 2242.9 23.3406C2246.05 23.9999 2249.2 23.3406 2252.36 24.6593C2253.14 25.3186 2254.72 25.3186 2255.51 25.3186C2257.09 25.978 2258.66 25.978 2260.24 26.6373C2263.39 26.6373 2266.54 26.6373 2268.91 26.6373C2270.49 26.6373 2271.27 26.6373 2272.85 26.6373C2274.43 25.978 2275.22 24.6593 2276.79 23.9999C2278.37 23.3406 2282.31 23.9999 2283.89 23.9999C2285.46 23.9999 2286.25 23.9999 2287.83 24.6593C2290.19 25.3186 2290.98 26.6373 2293.34 25.3186C2294.13 24.6593 2294.92 23.9999 2295.71 23.9999C2296.5 23.3406 2298.07 23.3406 2298.86 22.6812C2301.23 21.3626 2301.23 20.7032 2303.59 22.0219C2305.17 22.6812 2306.74 23.3406 2308.32 23.9999C2308.32 23.9999 2310.69 25.3186 2311.47 25.3186C2312.26 25.3186 2313.84 25.3186 2314.63 25.3186C2317.78 24.6593 2319.36 20.0439 2323.3 21.3626C2326.45 22.0219 2329.6 22.6812 2332.76 22.6812C2335.12 22.6812 2335.12 22.0219 2335.91 20.0439C2335.91 19.3845 2336.7 18.0659 2337.49 17.4065C2338.27 16.7472 2339.85 16.7472 2341.43 16.7472C2343.79 16.7472 2346.16 16.7472 2348.52 16.7472C2350.88 16.7472 2350.88 16.7472 2352.46 16.0878C2356.4 14.1098 2359.56 14.1098 2363.5 16.0878C2367.44 17.4065 2371.38 16.0878 2373.74 13.4505L2374.53 12.1318C2376.11 11.4724 2376.9 12.1318 2378.47 13.4505L2379.26 14.1098L2380.05 14.1098C2380.84 14.1098 2380.84 14.7692 2380.84 15.4285C2382.41 16.7472 2385.57 17.4065 2387.93 17.4065C2392.66 17.4065 2397.39 14.1098 2402.12 12.7911C2402.91 12.7911 2403.7 12.7911 2404.48 12.1318C2405.27 12.1318 2405.27 11.4724 2406.06 10.8131C2407.64 10.1538 2409.21 11.4724 2410.79 11.4724C2412.37 11.4724 2414.73 11.4724 2416.31 11.4724C2418.67 11.4724 2419.46 10.1538 2421.83 10.1538C2423.4 10.1538 2424.19 10.8131 2425.77 11.4724C2426.55 12.1318 2426.55 12.7911 2427.34 12.7911C2428.92 13.4505 2431.28 13.4505 2433.65 13.4505C2437.59 13.4505 2444.68 13.4505 2447.84 10.1538C2448.62 8.83508 2449.41 8.17574 2451.78 8.17574C2452.57 8.17574 2454.93 8.83508 2455.72 7.5164C2456.51 6.85705 2454.93 5.53837 2455.72 4.87903C2458.08 2.90101 2461.24 5.53837 2463.6 6.85705C2465.97 8.17574 2469.12 9.49442 2471.48 11.4724C2473.06 12.1318 2476.21 14.7692 2478.58 13.4505C2479.37 12.7911 2480.94 10.8131 2480.94 10.1538C2481.73 8.17574 2481.73 5.53837 2484.09 4.87903C2485.67 4.21969 2487.25 4.21969 2488.82 4.21969C2491.19 4.21969 2493.55 4.87903 2495.92 4.87903C2497.49 5.53837 2499.86 6.19771 2501.44 4.87903C2502.22 4.21969 2501.44 3.56035 2502.22 3.56035C2503.01 3.56035 2503.8 4.87903 2504.59 4.87903C2507.74 6.85705 2511.68 6.19771 2514.84 6.19771C2517.2 6.19771 2520.35 6.19771 2522.72 5.53837C2525.08 5.53837 2528.24 4.21969 2530.6 4.87903C2535.33 5.53837 2539.27 9.49442 2544 10.8131L2544 56.967C2543.21 56.967 2542.42 54.989 2540.85 54.989C2537.69 54.989 2534.54 54.989 2531.39 54.989C2529.02 54.989 2526.66 54.989 2524.29 54.3296C2523.51 54.3296 2522.72 53.6703 2521.93 53.6703C2521.14 53.011 2519.57 53.6703 2518.78 53.6703C2516.41 53.6703 2514.05 53.6703 2511.68 54.3296L2510.89 54.989C2510.11 54.989 2509.32 55.6483 2508.53 55.6483C2506.95 56.3077 2506.95 56.967 2506.17 57.6263C2505.38 58.2857 2504.59 57.6263 2503.01 58.2857C2501.44 58.2857 2500.65 59.6044 2499.07 60.2637C2497.49 60.9231 2495.92 60.2637 2494.34 60.9231C2492.77 60.9231 2493.55 60.9231 2492.77 61.5824C2491.19 62.2417 2488.82 62.2417 2487.25 62.2417C2485.67 62.2417 2484.1 62.9011 2483.31 62.9011C2482.52 62.9011 2481.73 62.9011 2480.94 62.9011C2478.58 62.9011 2476.21 63.5604 2473.85 62.9011C2472.27 62.9011 2469.12 62.9011 2468.33 61.5824C2466.75 60.2637 2467.54 58.2857 2465.97 56.967C2463.6 54.3296 2455.72 54.3296 2452.57 55.6483C2451.78 55.6483 2450.99 56.3077 2450.2 56.3077C2448.62 56.967 2448.62 58.2857 2448.62 59.6044C2447.84 60.9231 2447.05 62.9011 2446.26 64.2198C2446.26 64.8791 2443.9 69.4945 2441.53 68.8351C2440.74 68.8351 2440.74 67.5165 2439.95 66.8571C2438.38 66.1978 2436.01 66.8571 2434.44 66.8571C2432.07 66.8571 2429.71 66.8571 2428.13 66.8571C2425.77 66.8571 2423.4 66.8571 2421.04 66.8571C2416.31 66.8571 2412.37 64.2198 2408.43 63.5604C2403.7 62.2417 2398.97 63.5604 2394.24 63.5604C2391.87 63.5604 2388.72 62.9011 2386.35 63.5604C2383.2 64.2198 2380.84 64.8791 2377.68 65.5384C2376.9 65.5384 2376.9 65.5384 2375.32 65.5384C2373.74 66.1978 2372.17 66.8571 2371.38 68.1758C2369.8 68.8352 2369.01 69.4945 2368.23 70.8132C2367.44 72.7912 2367.44 74.7692 2366.65 76.7473C2365.07 76.7473 2365.07 74.7692 2365.07 74.1099C2364.28 72.1319 2363.5 70.8132 2361.13 70.1538C2356.4 69.4945 2350.1 69.4945 2344.58 69.4945C2338.27 70.1538 2331.97 70.8132 2325.66 69.4945C2322.51 68.8352 2319.36 68.1758 2316.2 68.1758C2313.84 68.1758 2310.69 68.1758 2308.32 68.1758C2305.96 68.1758 2303.59 67.5165 2302.8 70.1538C2302.8 71.4725 2302.8 72.7912 2301.23 73.4505C2299.65 74.1099 2297.29 73.4505 2294.92 74.1099C2291.77 74.7692 2289.4 75.4286 2286.25 75.4286C2283.89 75.4286 2281.52 74.7692 2279.16 74.1099C2276.79 72.7912 2274.43 72.1319 2271.27 72.1319C2270.49 72.1319 2268.91 72.1319 2268.12 72.1319C2266.54 72.1319 2264.97 71.4725 2262.6 70.8132C2260.24 70.8132 2257.87 70.8132 2255.51 70.8132C2253.93 70.8132 2252.36 70.8132 2250.78 70.8132C2247.63 71.4725 2245.26 72.7912 2242.9 73.4505C2241.32 74.1099 2239.75 74.7692 2238.17 74.1099C2236.59 73.4505 2235.8 72.7912 2234.23 71.4725C2233.44 70.8132 2233.44 69.4945 2232.65 68.1758C2231.86 67.5165 2230.29 66.8571 2229.5 66.1978C2227.92 65.5384 2225.56 65.5384 2223.98 65.5384C2221.62 65.5384 2221.62 65.5384 2220.83 63.5604C2220.04 61.5824 2218.46 62.2417 2216.89 62.9011C2214.52 64.2198 2211.37 64.8791 2209 64.8791C2207.43 64.8791 2206.64 65.5384 2205.06 65.5384C2204.27 65.5384 2204.28 65.5384 2203.49 65.5384C2202.7 65.5384 2201.91 66.1978 2201.12 66.8571C2199.55 66.8571 2197.18 66.8571 2195.6 66.8571C2188.51 66.8571 2181.42 66.8571 2175.11 70.8132C2173.53 71.4725 2173.53 71.4725 2171.96 72.1319L2171.17 72.7912C2169.59 73.4505 2168.02 74.7692 2166.44 75.4286C2164.86 76.0879 2164.08 76.0879 2162.5 75.4286C2161.71 75.4286 2160.13 74.1099 2160.13 74.1099C2157.77 72.7912 2156.19 71.4725 2153.83 70.8132C2153.04 70.1538 2151.46 70.8132 2151.46 70.1538C2150.68 69.4945 2150.68 68.8352 2149.89 68.1758C2147.52 66.1978 2144.37 66.1978 2141.22 66.1978C2138.85 66.1978 2136.49 65.5384 2134.91 66.8571C2134.12 67.5165 2133.33 68.1758 2131.76 68.8351C2130.97 69.4945 2130.18 69.4945 2129.39 70.1538C2128.61 70.8132 2128.61 70.8132 2128.61 71.4725C2127.82 72.7912 2128.61 72.7912 2127.03 72.7912C2123.09 74.1099 2117.57 71.4725 2113.63 70.1538C2112.84 70.1538 2112.05 69.4945 2111.26 69.4945C2110.48 69.4945 2110.48 68.8352 2109.69 68.1758C2108.9 68.1758 2108.11 68.8352 2107.32 69.4945C2105.75 70.8132 2103.38 72.1319 2101.81 73.4505C2099.44 72.7912 2098.65 70.1538 2097.08 68.8351C2095.5 67.5165 2093.92 66.8571 2092.35 66.8571C2089.98 66.8571 2089.98 67.5165 2089.19 69.4945C2088.41 71.4725 2088.41 74.1099 2086.04 73.4505C2082.1 73.4505 2079.74 68.1758 2075.79 68.1758C2073.43 68.1758 2071.06 69.4945 2067.91 69.4945C2065.55 69.4945 2062.39 68.8352 2060.82 70.1538C2060.03 70.8132 2060.03 71.4725 2059.24 72.1319C2058.45 72.7912 2055.3 72.1319 2054.51 72.1319C2052.94 72.1319 2050.57 71.4725 2048.99 71.4725C2048.21 71.4725 2047.42 71.4725 2046.63 71.4725C2045.05 72.7912 2045.84 75.4286 2045.84 77.4066C2041.9 76.0879 2038.75 72.7912 2034.81 70.8132C2032.44 69.4945 2030.87 69.4945 2028.5 68.8351C2026.92 68.1758 2026.92 68.1758 2025.35 68.1758C2023.77 68.1758 2022.19 68.8351 2020.62 68.8351C2017.47 69.4945 2013.52 68.8351 2009.58 68.8351C2006.43 68.8351 2004.07 67.5165 2001.7 67.5165C1999.34 67.5165 1996.97 68.1758 1995.4 67.5165C1993.03 66.8571 1992.24 67.5165 1989.88 68.1758C1987.51 69.4945 1985.15 68.8352 1982 69.4945C1980.42 69.4945 1980.42 70.1538 1978.84 71.4725C1978.05 72.1319 1975.69 72.7912 1974.11 72.7912C1973.33 72.7912 1972.54 72.7912 1971.75 72.7912C1969.38 72.1319 1967.02 70.1538 1965.44 68.8351C1963.87 67.5165 1961.5 66.8571 1959.14 66.1978C1958.35 66.1978 1956.77 65.5384 1955.98 65.5384C1955.2 65.5384 1955.2 65.5384 1955.2 65.5384C1954.41 66.1978 1953.62 66.8571 1953.62 67.5165C1952.83 68.1758 1950.47 67.5165 1948.89 67.5165C1942.58 67.5165 1937.07 67.5165 1930.76 67.5165C1927.61 67.5165 1925.24 67.5165 1922.88 65.5384C1922.09 64.8791 1922.09 64.2198 1920.51 63.5604C1919.73 62.9011 1919.73 63.5604 1918.15 63.5604C1915.78 63.5604 1914.21 60.9231 1911.84 60.9231C1909.48 60.9231 1908.69 63.5604 1907.11 64.8791C1905.54 66.1978 1904.75 67.5165 1903.96 68.8351C1901.6 69.4945 1899.23 66.1978 1897.66 64.8791C1896.08 63.5604 1894.5 63.5604 1892.14 62.9011C1889.77 62.2417 1888.2 60.2637 1885.83 59.6044C1884.26 58.945 1883.47 60.2637 1881.89 60.2637C1881.1 60.2637 1879.53 59.6044 1878.74 59.6044C1876.37 58.945 1875.58 58.2857 1873.22 58.2857C1871.64 58.2857 1869.28 58.2857 1867.7 57.6263C1866.13 56.967 1865.34 57.6263 1863.76 56.967C1862.19 56.967 1859.82 55.6483 1858.24 55.6483C1855.88 54.989 1854.3 54.3296 1851.94 54.3296C1850.36 54.989 1848.79 55.6483 1846.42 56.3077C1843.27 56.967 1840.12 58.2857 1836.96 58.945C1835.39 59.6044 1833.81 58.945 1832.23 58.945C1830.66 58.945 1831.44 59.6044 1829.87 59.6044C1825.93 60.2637 1821.99 59.6044 1818.04 59.6044C1812.53 59.6044 1807.8 55.6483 1803.07 57.6263C1802.28 58.2857 1803.86 59.6044 1803.07 60.2637C1800.7 62.2417 1799.92 64.2198 1798.34 65.5384C1796.76 67.5165 1797.55 66.8571 1795.19 66.1978C1793.61 65.5384 1792.03 64.2198 1790.46 64.2198C1788.09 64.2198 1788.88 65.5384 1786.52 66.1978C1780.21 66.8571 1773.9 55.6483 1769.17 59.6044C1767.6 60.9231 1770.75 64.8791 1769.96 66.8571C1769.17 68.8352 1766.02 63.5604 1764.45 64.2198C1762.87 64.8791 1763.66 65.5384 1762.87 66.1978C1762.08 66.8571 1760.5 67.5165 1758.93 67.5165C1756.56 67.5165 1753.41 66.8571 1751.05 66.8571C1748.68 66.8571 1746.32 66.8571 1743.95 67.5165C1742.37 68.1758 1740.8 68.1758 1738.43 68.8351C1736.86 69.4945 1735.28 70.1538 1734.49 70.1538C1733.7 70.1538 1733.7 70.1538 1732.92 70.1538C1732.13 70.1538 1732.13 70.1538 1732.13 70.8132C1732.13 71.4725 1725.82 72.1319 1725.03 72.1319C1723.46 72.1319 1721.88 71.4725 1721.09 72.7912C1720.3 74.1099 1720.3 78.7253 1717.94 80.044C1715.58 80.7033 1711.63 78.7253 1709.27 78.0659C1708.48 78.0659 1706.9 77.4066 1706.12 77.4066C1704.54 76.7472 1702.18 77.4066 1699.81 77.4066C1696.66 77.4066 1693.51 77.4066 1691.14 77.4066C1689.56 77.4066 1688.78 78.0659 1687.99 78.0659C1685.62 78.0659 1681.68 78.7253 1680.11 76.7473C1679.32 76.0879 1679.32 75.4286 1678.53 74.7692C1676.95 74.1099 1675.38 73.4505 1673.8 72.7912C1671.43 72.1319 1669.86 71.4725 1667.49 70.8132C1665.92 70.8132 1663.55 70.8132 1661.98 70.1538C1660.4 70.1538 1658.82 70.1538 1657.25 70.1538C1654.88 70.1538 1653.31 70.8132 1650.94 70.8132C1648.58 70.8132 1647 70.8132 1644.64 70.8132C1643.06 70.8132 1642.27 70.8132 1642.27 72.1319C1642.27 72.7912 1643.06 74.1099 1642.27 74.7692C1641.48 75.4286 1637.54 76.0879 1636.75 76.0879C1634.39 76.0879 1632.02 76.7472 1629.66 75.4286C1627.29 74.1099 1624.93 72.7912 1622.56 71.4725C1620.99 70.1538 1619.41 68.1758 1616.26 67.5165C1613.11 66.8571 1609.95 66.8571 1606.8 68.8351C1606.01 69.4945 1605.22 70.1538 1604.44 70.8132C1603.65 72.1319 1602.07 72.7912 1601.28 74.1099C1598.92 76.0879 1598.92 77.4066 1598.92 80.044C1598.92 81.3626 1598.92 82.6813 1598.13 84C1596.55 84 1594.98 82.6813 1594.19 81.3626C1593.4 80.044 1591.82 79.3846 1590.25 78.0659C1587.88 76.0879 1584.73 74.1099 1582.37 72.1319C1581.58 71.4725 1580 69.4945 1578.42 69.4945C1576.06 69.4945 1575.27 71.4725 1573.69 72.7912C1572.12 74.1099 1571.33 73.4505 1569.75 72.7912C1566.6 72.1319 1564.24 72.7912 1561.08 72.7912C1557.93 72.1319 1554.78 70.1538 1550.84 69.4945C1548.47 69.4945 1542.95 69.4945 1541.38 71.4725C1540.59 72.1319 1541.38 72.7912 1540.59 73.4505C1539.8 74.1099 1539.01 74.1099 1538.22 74.1099C1536.65 74.1099 1535.07 74.1099 1533.5 74.1099C1531.92 74.1099 1530.34 73.4505 1528.77 72.7912C1527.98 72.7912 1526.4 72.7912 1525.61 72.7912C1524.04 72.7912 1522.46 72.7912 1521.67 72.7912C1520.1 73.4505 1520.1 74.1099 1518.52 74.1099C1517.73 74.1099 1516.15 74.1099 1515.37 73.4505C1513.79 72.1319 1513 71.4725 1510.64 70.1538C1505.91 67.5165 1501.18 65.5384 1497.24 62.2417C1495.66 60.9231 1494.87 60.2637 1493.3 58.945C1489.35 56.3077 1483.84 55.6483 1479.11 55.6483C1475.95 55.6483 1472.8 56.3077 1468.86 56.967C1465.71 57.6263 1463.34 58.945 1460.19 58.945C1455.46 59.6044 1449.94 56.967 1445.21 56.967C1442.85 56.967 1441.27 56.967 1438.91 56.967C1436.54 56.967 1435.76 56.967 1434.18 56.3077C1433.39 55.6483 1432.6 55.6483 1431.03 54.989C1427.87 54.989 1423.93 53.6703 1420.78 54.989C1419.2 55.6483 1418.41 55.6483 1416.84 56.3077C1414.47 56.967 1412.11 58.945 1408.96 59.6044C1408.17 60.2637 1406.59 60.2637 1405.8 60.2637C1403.44 60.9231 1400.29 60.2637 1397.13 60.2637C1393.19 60.2637 1388.46 60.2637 1384.52 61.5824C1379 62.9011 1376.64 67.5165 1371.12 68.1758C1369.54 68.1758 1367.18 68.1758 1365.6 67.5165C1361.66 66.1978 1357.72 64.8791 1352.99 64.2198C1350.63 63.5604 1348.26 62.2417 1345.9 61.5824C1343.53 60.9231 1341.96 61.5824 1340.38 60.2637C1334.07 57.6263 1326.98 58.945 1320.67 58.945C1319.1 58.945 1317.52 57.6263 1316.73 56.3077C1315.95 55.6483 1315.95 55.6483 1315.16 54.989C1314.37 54.989 1314.37 54.3296 1314.37 54.3296C1313.58 53.6703 1312.79 53.6703 1312.79 53.6703C1312 53.011 1311.22 53.6703 1309.64 53.6703C1308.85 53.6703 1307.27 53.6703 1306.49 53.6703C1304.91 53.6703 1304.12 53.6703 1302.55 53.6703C1301.76 53.6703 1300.18 53.6703 1299.39 54.3296C1298.6 54.989 1298.6 54.989 1297.82 55.6483C1297.03 56.3077 1295.45 57.6263 1294.66 57.6263C1293.87 57.6263 1293.09 57.6263 1292.3 57.6263C1289.93 57.6263 1287.57 57.6263 1285.2 57.6263C1285.2 57.6263 1284.42 57.6263 1283.63 57.6263C1283.63 57.6263 1282.84 57.6263 1282.84 58.2857C1286.78 60.2637 1286.78 60.2637 1285.99 60.9231Z" fill="white"/>
<defs>
<filter id="filter0_b_24_8980" x="-334.622" y="-308.119" width="2649.25" height="973.384" filterUnits="userSpaceOnUse" color-interpolation-filters="sRGB">
<feFlood flood-opacity="0" result="BackgroundImageFix"/>
<feGaussianBlur in="BackgroundImageFix" stdDeviation="9.5"/>
<feComposite in2="SourceAlpha" operator="in" result="effect1_backgroundBlur_24_8980"/>
<feBlend mode="normal" in="SourceGraphic" in2="effect1_backgroundBlur_24_8980" result="shape"/>
</filter>
<clipPath id="clip0_24_8980">
<rect width="615.996" height="1921.96" fill="white" transform="translate(1921.49 41.7939) rotate(89.9422)"/>
</clipPath>
</defs>
</svg>
