<svg width="51" height="63" viewBox="0 0 51 63" fill="none" xmlns="http://www.w3.org/2000/svg">
<path id="Vector" d="M40.1968 42.6992C40.0982 40.7349 38.6591 39.0215 36.9471 38.4049C35.1886 37.7306 33.3765 38.0663 31.7891 38.4655C31.0295 38.791 30.2233 39.0589 29.4664 39.4595C28.7094 39.8601 28.0428 40.3011 27.3625 40.7728C26.7122 41.258 26.0784 41.7874 25.4911 42.3746L24.632 43.2466L24.2175 43.6893L24.0035 43.9261L23.9183 44.0358L23.8607 44.0839L23.7894 44.1629C22.9832 44.4307 22.2072 44.7121 21.4038 45.055C19.0535 46.1106 16.8016 47.4317 14.7658 48.997C13.7123 49.8191 12.719 50.6681 11.7886 51.619C13.9167 46.7714 16.151 42.4144 18.3572 38.5249C19.653 36.9985 21.176 35.6105 22.7946 34.4129C24.7892 32.94 26.9861 31.742 29.2512 30.7961C30.1588 30.4627 31.0527 30.1602 31.9767 29.8711L32.1739 29.9961L33.176 30.665C33.8578 31.0802 34.5533 31.4646 35.2928 31.8317C36.7553 32.5215 38.3717 32.9478 40.0378 33.1008C41.6875 33.2095 43.5376 33.1123 45.1012 32.0379C46.6676 31.0385 47.7118 29.1043 47.5693 27.1574C47.4707 25.1931 46.0315 23.4797 44.3195 22.863C42.561 22.1887 40.7489 22.5245 39.1616 22.9236C38.4019 23.2492 37.5958 23.517 36.8388 23.9176C36.0818 24.3182 35.4152 24.7592 34.7211 25.2617C34.0709 25.7469 33.4371 26.2764 32.8498 26.8635L31.9907 27.7355L31.5763 28.1783L31.3622 28.415L31.277 28.5247L31.2194 28.5729L31.148 28.6518C30.3419 28.9197 29.5659 29.201 28.7624 29.5439C26.4122 30.5995 24.1603 31.9206 22.1245 33.4859C21.6197 33.8883 21.1148 34.2907 20.6263 34.7373C26.2769 25.48 31.1634 19.7959 32.2339 18.6121C36.8653 18.7596 41.5239 17.1466 45.1102 14.1317C48.9983 10.8454 50.7848 7.24855 50.0711 4.23413C49.5998 2.21425 47.9767 0.751026 45.7821 0.325131C42.886 -0.22928 38.4801 0.979508 34.6277 6.1282C31.1734 10.7899 30.7064 17.3393 30.6868 17.626L30.6731 17.6567C29.5613 18.9329 26.3714 22.6787 22.4412 28.5681C22.6649 27.3386 22.8448 26.1264 22.8904 24.8912C23.0471 22.5978 22.8914 20.2757 22.4862 18.0268C22.2496 16.7764 21.9252 15.5606 21.5569 14.3622L21.5844 14.3007L21.7304 13.8119C21.8076 13.4771 21.8848 13.1423 21.9483 12.8382C22.0588 12.186 22.153 11.4894 22.1594 10.8276C22.1998 9.44234 21.944 8.07262 21.469 6.78962C20.9501 5.52395 20.179 4.25649 18.8756 3.453C17.6023 2.66297 15.8073 2.63707 14.5016 3.45739C13.1356 4.25081 12.3167 5.84234 12.3556 7.37378C12.3945 8.90522 13.1682 10.2477 14.0493 11.2688C14.9742 12.2726 16.0857 13.1013 17.2771 13.6701C17.8796 13.9391 18.4959 14.1773 19.0821 14.4021L19.9833 14.7306C20.1476 14.767 20.238 14.8074 20.3887 14.8746C20.7844 16.0115 21.1063 17.1522 21.354 18.2968C22.1787 22.3578 22.063 26.6637 21.0487 30.716C18.9117 34.0456 16.6151 37.8948 14.3231 42.3C14.3111 41.1129 14.2251 39.9297 14.0651 38.7504C13.7778 36.4803 13.1945 34.2258 12.3644 32.1195C11.9548 31.0135 11.4438 29.973 10.9026 28.9189L10.9137 28.8131L10.9255 28.3013L10.905 27.2951C10.8812 26.6198 10.8274 25.9311 10.6995 25.2462C10.474 23.89 9.96883 22.5935 9.27441 21.3972C8.56624 20.2317 7.56205 19.0817 6.10481 18.5419C4.70518 17.954 2.89056 18.2147 1.72965 19.3582C0.535984 20.4132 0.0647847 22.1969 0.413477 23.682C0.77855 25.2114 1.78268 26.3613 2.86407 27.1764C3.97559 28.005 5.18336 28.6181 6.48733 29.0156C7.11738 29.2231 7.77492 29.3689 8.44621 29.484L9.42994 29.6278L9.87654 29.6794C10.3987 30.6142 10.8933 31.6105 11.314 32.6107C12.8491 36.2134 13.5094 40.2379 13.3969 44.2129C10.8189 49.3397 8.32218 55.0936 6.09874 61.4497C5.93641 61.8942 6.1605 62.3635 6.53842 62.5692C6.56854 62.5826 6.59869 62.5961 6.62881 62.6095C7.09448 62.7805 7.60458 62.5282 7.78065 62.0529C8.65576 59.5263 9.57999 57.1324 10.5507 54.7962C11.9263 53.01 13.6497 51.416 15.4851 50.0567C17.4797 48.5837 19.6766 47.3858 21.9417 46.4399C22.8493 46.1066 23.7733 45.8174 24.6672 45.5149L24.8644 45.6398L25.8664 46.3088C26.5483 46.724 27.2438 47.1084 27.9833 47.4755C29.4458 48.1654 31.0622 48.5916 32.7282 48.7446C34.3779 48.8533 36.228 48.7561 37.7917 47.6816C39.2951 46.5803 40.353 44.6154 40.1968 42.6992ZM33.5775 27.7423C34.1839 27.2745 34.8203 26.8201 35.4732 26.4099C36.126 25.9998 36.7651 25.6204 37.4508 25.2987C38.1226 25.0078 38.8711 24.7881 39.5593 24.5414C40.9575 24.2424 42.446 23.9838 43.6511 24.5218C44.8399 25.0156 45.7071 26.0675 45.782 27.3565C45.9008 28.6282 45.2632 29.8945 44.1769 30.6281C43.0932 31.4368 41.6158 31.5896 40.1908 31.5442C38.7054 31.472 37.256 31.1572 35.8427 30.6C35.136 30.3215 34.4431 30.0121 33.7639 29.6719L33.4462 29.4932C34.4003 29.2175 35.3709 28.9862 36.344 28.8298C37.5503 28.5559 38.7808 28.5513 39.976 28.3833C41.2039 28.3037 42.4345 28.2992 43.6349 28.2812L43.7089 28.2774C43.7089 28.2774 43.7088 28.2773 43.7389 28.2908C44.2268 28.2501 44.6276 27.8382 44.5954 27.3438C44.5632 26.8493 44.1636 26.4493 43.6758 26.49C42.4177 26.5561 41.1295 26.6088 39.8577 26.7057C38.5748 26.9084 37.3168 26.9745 36.0666 27.2657C35.1538 27.449 34.2435 27.7073 33.347 27.9349L33.5775 27.7423ZM19.3903 13.4688C18.8179 13.2132 18.2593 12.9269 17.7445 12.6232C16.671 12.0331 15.754 11.2544 14.966 10.3487C14.2218 9.42562 13.6807 8.3716 13.6877 7.30381C13.6809 6.26681 14.2524 5.22948 15.1384 4.70183C16.0244 4.17418 17.1508 4.16009 18.0435 4.66944C18.9664 5.19224 19.6391 6.19423 20.1063 7.25213C20.5898 8.35429 20.8841 9.55659 20.9125 10.7879C20.9336 11.3882 20.9409 12.0192 20.8742 12.6541C20.8605 12.6849 20.8768 12.7292 20.8631 12.7599C20.6992 12.3175 20.5354 11.8751 20.3579 11.4635C19.4537 9.36112 18.141 7.4456 16.7431 5.63979C16.4941 5.30709 16.0036 5.27273 15.7018 5.54418C15.3698 5.80217 15.328 6.30049 15.5906 6.60241L15.607 6.64669C16.942 8.35056 18.2495 10.116 19.1648 12.1125C19.4353 12.6395 19.6319 13.1705 19.8285 13.7014L19.3903 13.4688ZM8.59009 28.5142C7.97642 28.351 7.37655 28.1571 6.8205 27.9457C5.67828 27.5096 4.58841 26.8754 3.65765 26.1275C2.74065 25.3488 2.01028 24.3949 1.76514 23.3253C1.52 22.2557 1.86684 21.1551 2.65716 20.437C3.43373 19.7497 4.53847 19.5413 5.56019 19.9236C6.56551 20.2617 7.42759 21.1635 8.07024 22.1521C8.72926 23.1849 9.24291 24.3004 9.53719 25.5027C9.69252 26.126 9.81773 26.7359 9.89906 27.363L9.9154 27.4073C9.63371 26.9861 9.37951 26.5033 9.0677 26.0687C7.7713 24.1974 6.11283 22.5707 4.39934 21.0671C4.39934 21.0671 4.39931 21.0671 4.36918 21.0536C4.04889 20.7998 3.60486 20.8232 3.31938 21.1389C3.06404 21.468 3.07985 21.9182 3.3864 22.2027L3.44664 22.2296C5.09725 23.6313 6.72037 25.0945 7.984 26.8773C8.41896 27.4408 8.77995 28.0081 9.12716 28.6063L8.59009 28.5142ZM43.8899 12.7376C40.9813 15.2057 37.3069 16.5564 33.5027 16.7413C35.1289 14.0699 39.9568 7.14108 47.9721 3.99867C48.0842 4.23333 48.166 4.45451 48.2342 4.70651C48.8037 6.99184 47.2018 9.93253 43.8899 12.7376ZM35.9855 7.21443C39.3135 2.7548 42.982 1.65999 45.341 2.12235C45.7438 2.19138 46.0889 2.30856 46.4066 2.48731C46.4969 2.52767 46.5435 2.58536 46.6339 2.62571C39.7397 5.60395 35.1991 10.9993 32.9718 14.2885C33.4599 12.1431 34.3572 9.40478 35.9855 7.21443ZM36.8182 46.1392C35.7346 46.9479 34.2571 47.1007 32.832 47.0553C31.3467 46.983 29.8974 46.6683 28.484 46.1111C27.7773 45.8325 27.0844 45.5232 26.4052 45.183L26.0875 45.0043C27.0417 44.7286 28.0122 44.4972 28.9853 44.3408C30.1916 44.0669 31.4221 44.0624 32.6173 43.8944C33.8452 43.8148 35.0757 43.8103 36.2761 43.7923L36.3502 43.7884C36.3502 43.7884 36.3502 43.7884 36.3803 43.8019C36.8682 43.7612 37.2689 43.3492 37.2367 42.8548C37.2045 42.3603 36.805 41.9604 36.3171 42.0011C35.0591 42.0672 33.7709 42.1198 32.4991 42.2167C31.2162 42.4195 29.9581 42.4856 28.708 42.7768C27.7951 42.9601 26.8849 43.2184 25.9884 43.4459L26.2188 43.2534C26.8252 42.7855 27.4617 42.3311 28.1145 41.921C28.7674 41.5108 29.4065 41.1315 30.0921 40.8098C30.764 40.5189 31.5124 40.2991 32.2007 40.0525C33.5988 39.7535 35.0874 39.4949 36.2925 40.0329C37.4812 40.5267 38.3485 41.5786 38.4234 42.8676C38.5422 44.1393 37.9046 45.4056 36.8182 46.1392Z" fill="#FFAC19"/>
</svg>
