<svg width="1920" height="84" viewBox="0 0 1920 84" fill="none" xmlns="http://www.w3.org/2000/svg">
<path d="M1220.32 60.9231C1216.15 60.9231 1211.97 62.2417 1209.19 58.945C1208.49 58.2857 1207.8 57.6264 1207.8 56.967C1207.8 56.3077 1207.8 55.6483 1207.1 54.989C1206.4 53.6703 1205.01 54.3296 1202.92 54.3296C1199.45 54.3296 1198.05 52.3516 1195.27 51.0329C1193.18 49.7142 1191.09 49.0549 1189.01 49.0549C1186.22 49.0549 1184.83 50.3736 1183.44 52.3516C1182.05 53.6703 1181.35 54.989 1179.26 54.989C1178.57 54.989 1177.18 54.989 1176.48 54.989C1173 54.989 1169.52 54.989 1166.04 54.989C1163.26 54.989 1161.17 54.3296 1158.39 54.3296C1155.6 54.3296 1153.52 54.3296 1150.73 53.6703C1150.04 53.011 1149.34 53.011 1148.64 53.011C1147.25 53.011 1147.25 53.011 1145.86 51.6923C1145.16 51.0329 1144.47 49.7142 1143.08 49.7142C1142.38 49.7142 1140.29 49.7142 1139.6 49.7142C1134.73 49.7142 1129.85 50.3736 1124.29 50.3736C1122.2 50.3736 1121.5 50.3736 1120.11 51.6923C1118.72 53.011 1119.42 54.3296 1118.02 55.6483C1116.63 57.6263 1111.06 56.967 1108.98 56.3077C1101.32 55.6483 1093.67 55.6483 1086.71 56.3077C1086.01 56.3077 1085.32 56.967 1083.92 56.967C1081.84 56.967 1079.05 55.6483 1076.96 55.6483C1072.79 54.989 1067.22 53.011 1063.74 55.6483C1063.05 56.3077 1063.74 57.6263 1063.05 58.2857C1062.35 58.2857 1060.26 58.2857 1060.26 58.2857C1059.57 58.2857 1058.87 58.945 1058.17 58.945C1056.09 58.945 1054.7 59.6044 1052.61 59.6044C1049.13 59.6044 1045.65 59.6044 1042.17 59.6044C1039.39 59.6044 1036.6 60.2637 1033.12 60.9231C1031.73 60.9231 1030.34 60.9231 1029.64 61.5824C1028.25 62.9011 1028.95 64.2198 1026.86 64.8791C1026.16 64.8791 1024.08 64.8791 1023.38 64.8791C1021.99 64.8791 1019.9 64.8791 1018.51 64.2198C1017.81 64.2198 1017.81 63.5604 1017.81 63.5604C1017.12 63.5604 1017.12 63.5604 1016.42 63.5604C1013.64 62.9011 1011.55 60.2637 1009.46 59.6044C1006.68 58.2857 1003.89 58.2857 1001.11 57.6263C997.63 56.967 994.151 54.989 989.975 54.989C985.104 54.989 980.233 54.3296 975.361 53.6703C973.969 53.6703 973.274 53.6703 971.882 53.6703C969.098 53.6703 967.706 53.6703 965.618 52.3516C964.227 51.6923 962.835 51.6923 961.443 51.0329C960.747 51.0329 960.747 50.3736 960.051 50.3736H959.355C959.355 50.3736 958.659 50.3736 958.659 51.0329C957.267 51.6923 955.876 51.6923 954.484 51.6923C953.092 51.6923 951.7 52.3516 951.004 52.3516C950.308 52.3516 950.308 53.011 949.612 53.011C948.917 53.011 947.525 53.011 946.829 53.011C945.437 53.011 944.045 53.6703 943.349 54.3296C940.566 53.011 938.478 53.011 936.39 53.011C934.998 53.011 933.606 53.011 932.911 53.011C931.519 52.3516 930.127 51.6923 928.735 51.6923C926.647 52.3516 925.951 54.3296 924.56 56.3077C923.864 56.967 924.56 56.967 923.168 57.6263C921.776 57.6263 920.384 57.6263 919.688 57.6263C916.209 57.6263 913.425 56.967 910.641 56.3077C907.162 55.6483 902.986 54.989 899.507 54.989C896.027 54.3296 892.548 53.6703 888.372 53.6703C884.893 53.6703 882.109 56.3077 878.629 56.3077C874.454 56.967 868.887 56.3077 865.407 54.3296C864.711 53.6703 863.319 53.011 862.623 53.011C861.231 53.011 860.536 53.011 859.84 53.011C857.056 53.6703 853.576 53.011 850.793 53.011C848.705 53.011 846.617 53.011 844.53 53.011C843.138 53.011 841.746 53.011 840.354 53.011C839.658 53.011 840.354 53.011 838.962 52.3516C837.57 51.6923 836.179 51.0329 834.787 51.0329C829.219 50.3736 824.348 49.0549 818.781 48.3956C815.997 47.7362 813.909 47.7362 811.822 47.7362C810.43 47.7362 807.646 46.4175 806.254 47.0769C804.167 48.3956 804.863 51.0329 804.167 52.3516C803.471 55.6483 801.383 55.6483 798.599 54.989C795.12 54.3296 792.336 52.3516 788.857 53.011C786.769 53.6703 784.681 54.989 782.593 54.989C779.81 54.989 777.722 54.3296 774.938 54.3296C772.851 54.3296 770.763 54.3296 769.371 53.6703C766.587 52.3516 764.5 51.0329 761.02 51.0329C758.932 51.0329 756.845 51.0329 754.757 51.0329C749.885 51.0329 747.102 51.0329 742.926 53.011C741.534 53.6703 740.839 54.3296 739.447 54.3296C736.663 54.3296 733.879 53.011 731.792 52.3516C730.4 51.6923 728.312 52.3516 726.92 51.6923C725.528 51.0329 724.833 50.3736 723.441 50.3736C722.049 50.3736 720.657 50.3736 718.569 49.7142C717.177 49.0549 716.482 48.3956 715.09 47.7362C714.394 47.7362 712.306 47.7362 712.306 47.0769C710.218 47.0769 708.827 46.4175 706.739 46.4175C703.259 47.0769 700.476 49.7142 697.692 51.0329C694.212 53.011 692.125 54.3296 687.949 54.3296C685.166 54.3296 683.078 54.3296 680.294 54.3296C677.51 54.3296 675.423 54.3296 672.639 53.6703C669.855 53.011 667.768 53.6703 664.984 53.011C663.592 52.3516 662.2 51.0329 660.809 50.3736C659.417 50.3736 658.025 50.3736 657.329 50.3736C655.937 50.3736 653.849 50.3736 652.458 50.3736C651.066 50.3736 648.978 50.3736 647.586 50.3736C645.498 50.3736 645.498 51.0329 644.107 51.6923C640.627 53.011 635.756 53.011 631.58 53.011C629.492 53.011 628.101 52.3516 626.013 52.3516C623.925 52.3516 622.533 52.3516 620.446 52.3516C616.966 52.3516 613.486 52.3516 610.007 52.3516C607.919 52.3516 605.831 52.3516 603.744 53.6703C602.352 54.989 601.656 56.3077 599.568 56.3077C598.176 56.3077 597.48 56.3077 596.089 56.3077C590.521 56.3077 584.258 55.6483 579.387 56.3077C577.995 56.3077 576.603 57.6263 575.211 58.2857C573.819 58.945 571.732 58.945 570.34 58.945C568.948 58.945 566.86 59.6044 565.468 58.945C564.772 58.2857 563.381 56.3077 562.685 55.6483C559.205 53.6703 556.422 56.3077 552.246 55.6483C550.158 54.989 550.158 53.6703 548.767 53.011C544.591 53.6703 543.895 53.011 542.503 53.011C541.111 52.3516 540.416 51.6923 538.328 52.3516C535.544 53.011 533.456 55.6483 531.369 57.6263C530.673 57.6263 529.977 56.967 529.281 56.3077C528.585 55.6483 527.193 55.6483 525.801 56.3077C524.41 55.6483 524.41 54.3296 523.018 53.6703C522.322 53.6703 520.93 53.6703 520.234 53.011C518.842 52.3516 516.755 52.3516 515.363 51.6923C513.275 51.6923 511.187 51.6923 509.099 51.6923C508.404 51.6923 506.316 51.6923 505.62 51.6923C504.924 51.6923 504.924 50.3736 504.228 49.7142C503.532 48.3956 500.748 47.7362 499.357 47.0769C496.573 45.0989 492.398 45.7582 488.918 45.0989C488.222 45.0989 488.222 44.4395 487.526 44.4395C486.134 44.4395 484.047 45.0989 482.655 44.4395H481.959C480.567 43.1208 479.871 41.8021 479.175 40.4835C477.783 38.5054 476.392 39.1648 473.608 39.8241C469.432 41.1428 465.257 43.1208 462.473 45.7582C462.473 46.4175 461.081 47.7362 459.69 48.3956C458.994 48.3956 458.994 48.3956 458.298 47.7362C457.602 47.0769 456.906 45.7582 456.21 45.0989C454.122 43.7802 451.339 44.4395 449.251 45.0989C446.467 45.7582 444.38 46.4175 442.292 47.0769C439.508 47.7362 436.724 47.0769 434.637 47.0769C432.549 47.0769 431.853 46.4175 429.765 45.7582C424.894 44.4395 419.327 45.0989 414.455 45.7582C410.976 46.4175 408.888 46.4175 406.104 46.4175C404.713 46.4175 401.929 45.7582 400.537 46.4175C399.841 47.0769 399.841 47.7362 399.145 48.3956C398.449 49.7142 397.753 49.7142 396.362 50.3736C394.274 51.6923 392.186 52.3516 390.098 53.011C388.011 53.6703 385.227 53.011 382.443 53.011C378.964 52.3516 374.788 53.011 371.309 53.011C369.221 53.011 367.829 53.011 365.741 53.6703C364.35 54.3296 362.958 54.3296 361.566 54.989C358.086 55.6483 355.303 54.989 351.823 54.989C349.735 54.989 346.952 54.989 344.864 54.989C342.776 54.3296 341.384 53.6703 339.297 53.6703C334.425 53.011 328.858 49.7142 323.291 51.6923C321.899 52.3516 321.203 53.011 320.507 53.011C319.811 53.011 318.419 53.011 317.723 53.011C314.94 53.011 312.852 53.6703 310.764 54.989C307.981 56.3077 305.893 56.967 303.805 58.945C303.109 59.6044 301.717 59.6044 298.934 59.6044C296.846 59.6044 295.454 59.6044 293.366 60.2637C291.975 60.9231 291.279 60.9231 290.583 60.9231C287.799 60.9231 284.32 60.2637 281.536 60.2637C277.36 60.2637 275.273 58.2857 271.793 56.3077C270.401 55.6483 269.009 55.6483 266.922 54.989C266.226 54.989 265.53 53.6703 264.834 53.6703C262.746 53.011 259.963 53.6703 258.571 53.6703C252.307 53.6703 246.044 54.3296 239.781 53.6703C236.997 53.6703 234.91 51.6923 232.126 51.0329C225.863 50.3736 220.296 48.3956 214.032 47.7362C209.161 47.0769 204.289 47.0769 199.418 49.7142C198.026 50.3736 197.33 51.6923 195.939 52.3516C193.155 53.011 188.979 53.011 186.196 53.011C179.237 54.3296 172.278 55.6483 165.318 55.6483C163.231 55.6483 160.447 55.6483 158.359 53.6703C156.272 53.011 156.272 51.6923 153.488 51.0329C148.616 50.3736 139.57 51.6923 136.09 54.989C134.002 56.967 133.306 58.945 131.915 60.9231C131.219 61.5824 131.915 61.5824 130.523 61.5824C129.827 62.2417 126.347 61.5824 124.955 61.5824C123.564 61.5824 120.78 61.5824 119.388 62.2417C117.3 63.5604 114.517 66.1978 111.733 65.5384C108.949 64.8791 106.862 62.9011 104.078 62.9011C100.598 62.9011 98.5107 62.2417 95.0312 60.9231C92.2475 60.2637 88.7679 59.6044 85.9843 59.6044C81.8088 59.6044 78.3292 59.6044 74.1538 59.6044C65.1069 59.6044 56.7559 62.2417 47.7091 62.2417C45.6213 62.2417 43.5336 62.9011 41.4458 62.9011C37.2704 62.9011 32.399 62.2417 28.2235 62.9011C24.7439 63.5604 21.2644 65.5384 18.4807 66.8571C17.0889 67.5165 15.0011 68.8352 13.6093 68.8352C12.9134 68.8352 12.2175 68.8352 11.5216 68.8352C10.1298 69.4945 9.43385 70.1538 8.04202 70.8132C6.65019 71.4725 4.56245 72.1319 3.17062 72.1319C-2.39669 72.1319 -7.96399 73.4505 -13.5313 73.4505C-19.0986 73.4505 -17.0109 79.3846 -22.5782 79.3846C-24.6659 79.3846 -26.7536 79.3846 -28.8414 79.3846C-30.2332 79.3846 -30.9291 80.044 -32.3209 80.044C-33.0169 80.044 -33.7128 80.044 -34.4087 80.044C-35.8005 80.044 -35.8005 80.7033 -37.1923 80.7033C-39.2801 80.7033 -40.6719 80.7033 -42.7596 80.7033C-44.1515 80.7033 -44.8474 81.3626 -45.5433 82.022C-47.631 82.6813 -49.7188 75.4286 -51.8065 75.4286C-53.8943 75.4286 -55.982 75.4286 -58.0697 75.4286C-59.4616 75.4286 -61.5493 69.4945 -62.9411 68.8352C-65.0289 67.5165 -67.8125 61.5824 -69.9003 61.5824C-71.988 61.5824 -73.3798 61.5824 -75.4676 61.5824C-76.8594 61.5824 -78.2512 60.923 -79.643 62.2417C-83.1226 65.5384 -81.7308 67.5165 -86.6022 66.1978C-87.2981 66.1978 -88.6899 64.8791 -90.0817 64.8791C-92.1695 64.2198 -93.5613 63.5604 -95.649 63.5604C-96.345 63.5604 -104 56.3077 -104 56.3077V10.1538C-103.304 10.1538 -101.216 14.7692 -100.52 14.7692C-98.4327 15.4285 -96.345 17.4065 -94.2572 18.0659C-92.8654 19.3845 -91.4736 20.0439 -89.3858 19.3845C-85.2103 18.7252 -84.5144 18.0659 -79.643 19.3845C-78.9471 19.3845 -77.5553 20.0439 -76.8594 20.7032C-74.7716 20.7032 -72.6839 22.0219 -69.9003 22.6812C-66.4207 23.3406 -67.1166 22.6812 -65.0289 22.0219C-62.2452 20.7032 -58.7656 22.6812 -55.982 22.6812C-54.5902 22.6812 -51.8065 23.3406 -50.4147 22.6812C-49.0229 22.6812 -48.3269 21.3626 -47.631 21.3626C-46.2392 20.7032 -44.1515 21.3626 -42.0637 21.3626C-39.2801 20.7032 -35.8005 19.3845 -33.0169 20.0439C-30.2332 20.0439 -26.7536 20.7032 -23.97 22.0219C-23.2741 22.6812 -22.5782 23.3406 -21.1863 23.3406C-20.4904 23.9999 -19.0986 23.9999 -18.4027 23.9999C-17.0109 24.6593 -16.3149 24.6593 -14.9231 24.6593C-13.5313 24.6593 -10.7476 25.3186 -10.0517 23.9999C-9.35581 23.3406 -9.35581 21.3626 -7.96399 20.7032C-5.87625 19.3845 -3.0926 20.0439 -1.00486 20.0439C4.56245 19.3845 10.1298 19.3845 15.6971 17.4065C17.0889 16.7472 21.2644 13.4505 23.3521 14.1098C24.048 14.1098 24.7439 14.7692 24.7439 15.4285C26.8317 16.0878 28.2235 16.0878 30.3112 16.0878C33.7908 16.0878 37.2704 16.7472 41.4458 17.4065C44.2295 17.4065 47.7091 18.0659 50.4927 17.4065C52.5805 16.7472 53.2764 15.4285 54.6682 14.1098C56.06 12.7911 56.06 12.1318 58.1478 11.4724C59.5396 11.4724 60.9314 11.4724 63.0191 11.4724C64.411 11.4724 66.4987 10.8131 67.8905 10.8131C69.2824 10.8131 70.6742 10.1538 72.066 10.8131C72.7619 11.4724 73.4578 12.1318 73.4578 12.7911C74.1538 14.1098 74.1537 14.7692 75.5456 14.7692C76.9374 14.7692 79.0251 14.1098 80.417 14.1098C81.8088 14.1098 83.2006 14.1098 83.8965 14.1098C85.2884 14.1098 85.2884 14.7692 86.6802 14.1098C87.3761 14.1098 88.072 13.4505 89.4638 13.4505C91.5516 12.7911 92.9434 12.1318 94.3352 11.4724C96.423 10.8131 97.8148 10.8131 100.598 10.8131C104.078 10.8131 107.558 10.8131 110.341 10.8131C113.125 10.8131 115.909 10.1538 117.996 10.1538C118.692 10.1538 119.388 10.8131 120.084 10.8131C120.78 10.8131 121.476 10.1538 122.172 9.49442C124.26 8.83508 124.955 8.17574 125.651 6.85705C125.651 6.19771 125.651 5.53837 126.347 5.53837C127.739 5.53837 127.739 6.85705 129.131 7.5164C131.219 8.83508 130.523 9.49442 132.61 9.49442C134.002 9.49442 135.394 10.1538 136.786 10.1538C139.57 10.8131 142.353 11.4724 145.137 12.1318C147.225 12.7911 148.616 13.4505 150.008 14.7692C152.096 15.4285 154.184 14.1098 155.576 13.4505C157.663 12.7911 159.751 12.1318 162.535 12.1318C168.102 11.4724 175.061 10.8131 179.933 13.4505C182.716 14.7692 183.412 16.7472 186.196 16.0878C190.371 15.4285 193.155 12.7911 197.33 12.7911C199.418 12.7911 201.506 12.7911 203.594 12.7911C204.985 12.7911 207.769 12.1318 209.161 12.7911C211.249 13.4505 211.249 16.0878 214.032 16.7472C214.728 16.7472 215.424 16.7472 216.12 16.7472C216.816 16.0878 217.512 15.4285 218.904 14.7692C220.991 12.7911 225.167 11.4724 227.951 11.4724C229.342 11.4724 230.734 10.8131 232.126 10.8131C234.214 10.8131 235.606 10.8131 237.693 10.8131C238.389 10.8131 239.085 10.8131 239.781 10.1538L240.477 9.49442C241.869 8.83508 243.957 8.83508 245.348 9.49442C245.348 11.4724 247.436 12.7911 248.828 13.4505C249.524 14.1098 249.524 14.1098 250.916 14.1098C253.003 14.1098 255.091 14.1098 257.179 13.4505C259.267 12.7911 260.658 11.4724 262.05 10.8131C265.53 8.83508 265.53 5.53837 268.314 2.90101C269.009 2.24166 270.401 3.56035 271.097 4.87903C272.489 7.5164 275.969 8.17574 278.752 9.49442C282.232 13.4505 285.711 12.1318 289.191 13.4505C292.67 14.1098 296.15 15.4285 300.326 15.4285C301.717 15.4285 303.109 15.4285 305.197 15.4285C306.589 15.4285 307.285 14.7692 307.981 14.7692C308.676 14.7692 310.068 14.7692 310.764 14.7692C310.764 14.1098 310.764 13.4505 310.764 13.4505C310.764 12.7911 311.46 12.1318 311.46 11.4724C312.156 10.8131 312.156 10.1538 312.156 9.49442C312.156 8.83508 312.852 9.49442 312.852 8.17574C313.548 7.5164 314.244 7.5164 315.636 7.5164C317.027 7.5164 317.723 6.19771 319.115 6.19771C322.595 6.19771 325.378 10.1538 328.162 12.1318C330.25 13.4505 331.642 14.7692 333.033 16.0878C335.121 18.0659 335.817 17.4065 336.513 14.7692C337.209 12.7911 337.905 10.8131 339.297 8.83508C339.993 8.17574 339.297 6.19771 340.689 6.19771C342.08 6.19771 342.776 10.8131 344.168 11.4724C345.56 12.1318 347.648 11.4724 349.039 11.4724C351.823 11.4724 353.215 10.8131 355.999 10.1538C358.086 10.1538 360.174 9.49442 362.262 8.83508C362.958 8.83508 364.35 8.17574 364.35 8.17574C365.045 7.5164 365.741 6.85705 365.741 6.19771C366.437 5.53837 367.829 4.21969 367.829 2.90101C369.221 2.24166 369.221 0.922981 369.917 0.26364C372.005 -1.05504 376.18 2.90101 377.572 4.87903C378.964 6.19771 379.66 6.19771 381.051 6.85705C385.923 8.17574 391.49 8.83508 397.057 8.83508C399.145 8.83508 399.841 9.49442 401.233 8.17574V7.5164C401.233 7.5164 401.929 7.5164 402.625 7.5164C404.713 7.5164 406.8 6.85705 408.888 6.19771C410.28 5.53837 411.672 3.56035 413.759 3.56035C415.151 2.90101 416.543 4.21969 417.935 4.87903C420.023 4.87903 422.806 4.87903 424.894 4.87903C426.982 4.87903 429.069 5.53837 431.157 5.53837C434.637 6.19771 438.116 6.85705 441.596 6.85705C445.075 6.85705 447.859 7.5164 450.643 8.17574C452.035 8.17574 454.122 8.83508 456.21 8.17574C457.602 8.17574 456.906 8.83508 456.906 9.49442C456.906 10.1538 457.602 12.1318 458.994 10.8131C458.994 10.8131 458.994 10.8131 458.994 10.1538C460.386 12.1318 461.777 12.7911 464.561 12.7911C467.345 12.7911 468.737 12.1318 470.128 10.1538C471.52 8.83508 472.912 6.85705 475 6.19771C476.392 5.53837 478.479 6.19771 479.871 6.19771C481.959 6.19771 484.047 6.85705 486.134 8.17574C486.83 8.83508 488.222 8.83508 488.918 8.83508C491.006 8.83508 491.006 7.5164 490.31 5.53837C490.31 4.21969 491.006 3.56035 493.094 3.56035C496.573 4.21969 499.357 7.5164 502.14 9.49442C504.228 10.8131 506.316 11.4724 508.404 11.4724C509.795 11.4724 511.883 11.4724 513.971 11.4724C516.755 12.1318 516.755 15.4285 518.146 17.4065C520.234 20.7032 524.41 15.4285 528.585 15.4285C529.977 15.4285 532.065 21.3626 533.456 20.7032C536.936 20.7032 539.72 19.3845 539.72 15.4285C539.72 12.7911 538.328 9.49442 540.416 7.5164C541.807 6.19771 545.287 9.49442 547.375 10.1538C549.462 11.4724 550.158 13.4505 552.246 14.7692C554.334 16.7472 555.03 16.7472 557.117 17.4065C559.205 18.0659 561.293 20.0439 562.685 21.3626C564.077 22.6812 566.164 18.0659 568.252 18.7252C569.644 19.3845 571.036 20.0439 572.428 20.0439C575.211 21.3626 576.603 25.978 577.995 23.9999C577.995 22.0219 579.387 20.0439 580.083 18.7252C580.779 17.4065 580.779 15.4285 581.474 14.1098C582.17 12.7911 581.474 13.4505 582.866 13.4505H583.562C584.954 13.4505 586.346 13.4505 588.434 14.1098C589.825 14.1098 590.521 14.1098 591.217 14.7692C591.913 15.4285 591.913 16.0878 592.609 16.0878C593.305 16.7472 594.001 16.7472 594.697 16.7472C599.568 18.0659 606.527 14.1098 610.007 17.4065C611.399 18.7252 608.615 22.0219 610.007 23.3406C614.182 25.978 619.054 20.7032 623.925 20.7032C626.709 20.7032 628.797 20.7032 631.58 20.0439C632.972 19.3845 634.364 19.3845 635.06 19.3845C636.452 18.7252 638.539 18.0659 639.931 17.4065C640.627 17.4065 642.019 16.7472 642.019 16.7472C642.019 16.7472 642.019 16.0878 642.019 15.4285C642.715 14.1098 644.802 16.7472 645.498 17.4065C646.194 18.0659 646.194 18.0659 646.89 18.7252C648.978 20.7032 651.762 20.7032 653.849 20.7032C655.241 20.7032 658.025 20.7032 658.721 22.6812C659.417 23.3406 660.809 22.6812 662.2 22.6812C664.288 22.6812 667.072 22.6812 669.159 22.0219C672.639 22.0219 676.119 22.0219 679.598 22.0219C681.686 22.0219 686.557 22.0219 687.949 20.0439C688.645 18.7252 688.645 18.7252 690.037 18.0659C691.429 17.4065 692.125 17.4065 694.212 17.4065C695.604 17.4065 697.692 18.0659 699.78 17.4065C701.172 17.4065 701.867 16.7472 703.259 16.0878C705.347 15.4285 706.739 14.1098 708.827 13.4505C710.218 13.4505 710.218 13.4505 710.914 14.1098C713.002 14.7692 714.394 14.7692 716.482 15.4285C718.569 16.0878 719.961 18.0659 722.049 19.3845C722.745 20.0439 724.833 20.0439 726.224 20.0439C729.008 20.7032 731.096 20.7032 733.879 22.0219C736.663 23.3406 740.143 23.9999 742.926 23.9999C743.622 23.9999 744.318 23.9999 745.014 23.9999C747.102 23.3406 748.494 21.3626 749.885 20.7032C750.581 20.0439 751.277 20.0439 751.277 18.7252C751.277 18.0659 751.277 17.4065 751.277 16.0878C751.973 16.0878 752.669 16.0878 753.365 16.0878C756.149 16.0878 758.236 16.0878 761.02 16.0878C761.716 16.0878 764.5 15.4285 765.195 16.0878C765.891 16.0878 765.195 16.7472 765.891 17.4065C765.891 18.0659 766.587 18.7252 767.283 19.3845C769.371 20.7032 771.459 20.0439 772.851 19.3845C774.242 18.7252 775.634 18.0659 777.722 18.0659C779.114 18.0659 779.81 17.4065 781.201 18.0659C782.593 18.0659 783.985 18.7252 786.073 18.7252C787.465 18.7252 788.161 19.3845 789.552 19.3845C790.248 19.3845 790.248 18.7252 790.248 18.7252C790.944 18.7252 791.64 18.7252 792.336 18.7252C793.728 18.0659 793.032 16.7472 793.032 16.0878C793.032 14.7692 793.032 15.4285 793.728 14.7692C793.728 14.1098 794.424 13.4505 794.424 12.7911C795.12 12.1318 795.816 10.8131 796.512 10.1538C799.991 8.83508 803.471 10.8131 806.95 11.4724C808.342 12.1318 809.038 12.1318 810.43 13.4505C811.126 14.1098 812.518 14.7692 813.214 15.4285C814.605 16.7472 814.605 17.4065 816.693 18.0659C818.085 18.0659 818.781 18.0659 820.173 18.7252C820.869 18.7252 822.26 19.3845 822.956 18.7252C824.348 18.7252 825.044 17.4065 826.436 17.4065C828.524 16.7472 830.611 17.4065 832.699 16.7472C833.395 16.7472 833.395 16.0878 834.091 16.0878C836.179 15.4285 837.57 16.0878 838.962 16.7472C841.746 17.4065 845.226 16.7472 848.009 16.7472C849.401 16.7472 851.489 16.7472 852.881 16.7472C854.272 16.7472 855.664 16.7472 857.056 15.4285C857.752 14.7692 858.448 14.1098 859.84 14.1098C861.232 14.1098 861.232 14.7692 861.927 15.4285C862.623 16.0878 863.319 16.0878 864.711 16.7472C866.103 17.4065 867.495 17.4065 869.582 17.4065C870.974 17.4065 873.062 17.4065 874.454 16.7472C875.15 16.0878 875.15 16.0878 876.542 15.4285C877.933 14.7692 877.237 15.4285 878.629 14.7692C880.021 14.1098 878.629 14.1098 880.021 14.1098C880.717 14.1098 882.109 14.1098 882.805 14.1098C884.197 14.1098 886.98 13.4505 888.372 14.1098C889.764 14.7692 891.156 15.4285 891.852 15.4285C893.939 16.0878 896.027 15.4285 898.115 15.4285C900.899 14.7692 902.986 14.7692 905.77 14.1098C907.858 13.4505 909.945 12.7911 912.729 12.7911C914.817 12.1318 918.992 10.8131 919.688 12.7911C921.08 14.7692 923.168 14.7692 924.56 15.4285C927.343 16.0878 928.735 14.1098 931.519 13.4505C933.606 12.7911 935.694 13.4505 937.782 13.4505C941.957 13.4505 946.133 12.7911 949.612 13.4505C951.004 13.4505 951.7 14.1098 952.396 14.7692C954.484 16.7472 956.572 18.0659 960.051 18.0659C960.747 18.0659 961.443 18.0659 962.835 18.0659C964.227 18.0659 965.619 17.4065 967.706 16.7472C969.098 16.0878 970.49 16.0878 971.186 15.4285C971.186 15.4285 971.186 14.7692 971.882 14.7692C973.274 14.1098 973.969 14.7692 974.665 14.1098V13.4505C974.665 13.4505 976.057 12.7911 976.753 12.7911C980.233 12.1318 983.712 13.4505 986.496 11.4724C987.192 10.8131 987.888 10.8131 989.28 10.1538C990.671 10.1538 992.063 10.1538 993.455 10.8131C994.847 11.4724 996.935 10.8131 998.326 11.4724C998.326 14.7692 1003.2 13.4505 1005.29 13.4505C1008.07 13.4505 1010.16 10.8131 1012.24 11.4724C1012.94 11.4724 1014.33 12.1318 1015.72 12.7911C1016.42 13.4505 1017.12 13.4505 1017.81 14.1098C1019.9 15.4285 1021.29 15.4285 1024.08 15.4285C1026.16 15.4285 1028.25 15.4285 1030.34 15.4285C1032.43 15.4285 1034.51 15.4285 1035.91 15.4285C1037.99 15.4285 1039.39 14.7692 1041.47 14.1098C1042.86 14.1098 1043.56 14.1098 1044.95 13.4505C1046.34 12.7911 1047.74 12.7911 1049.13 12.7911C1050.52 12.7911 1052.61 11.4724 1054.7 10.8131C1056.78 10.1538 1058.87 10.8131 1061.65 10.1538C1063.74 10.1538 1064.44 10.1538 1065.83 10.8131C1070.01 12.1318 1074.18 11.4724 1078.36 12.7911C1079.75 13.4505 1080.44 14.7692 1081.84 15.4285C1083.92 16.7472 1086.71 16.7472 1089.49 16.7472C1092.27 17.4065 1095.06 17.4065 1098.54 17.4065C1102.71 17.4065 1105.5 14.7692 1109.67 13.4505C1111.76 12.7911 1114.54 13.4505 1116.63 13.4505C1118.72 13.4505 1120.11 12.1318 1122.2 11.4724C1122.89 10.8131 1124.29 10.1538 1124.98 9.49442C1127.77 8.17574 1131.25 8.83508 1134.03 8.17574C1137.51 7.5164 1142.38 5.53837 1145.86 7.5164C1147.95 8.83508 1149.34 12.1318 1152.12 12.7911C1155.6 14.1098 1159.08 14.7692 1161.87 16.7472C1164.65 18.0659 1165.35 18.0659 1168.13 17.4065C1170.91 16.7472 1175.09 18.0659 1177.87 17.4065C1178.57 17.4065 1179.26 16.7472 1179.96 16.0878C1180.66 15.4285 1181.35 15.4285 1182.05 14.7692C1183.44 13.4505 1182.05 12.7911 1184.14 12.7911C1185.53 12.7911 1186.22 12.7911 1187.61 12.7911C1189.7 12.7911 1192.49 12.1318 1194.57 12.1318C1194.57 12.1318 1195.97 12.1318 1196.66 12.1318C1197.36 12.7911 1197.36 13.4505 1198.05 14.1098C1198.75 14.7692 1200.14 14.7692 1201.53 14.7692C1203.62 14.7692 1205.71 14.7692 1208.49 14.7692C1210.58 14.7692 1213.36 15.4285 1214.76 15.4285C1216.15 15.4285 1216.84 14.1098 1218.23 14.7692C1218.93 15.4285 1218.93 15.4285 1219.63 16.0878C1220.32 16.0878 1221.71 16.0878 1223.11 15.4285C1225.89 14.7692 1228.67 15.4285 1231.46 15.4285C1235.63 16.0878 1239.11 15.4285 1243.29 14.7692C1246.07 14.1098 1248.86 14.1098 1250.94 13.4505C1251.64 12.7911 1253.03 12.1318 1253.73 12.7911C1255.12 13.4505 1255.81 14.1098 1256.51 15.4285C1257.21 16.0878 1256.51 17.4065 1257.21 18.0659C1257.9 18.7252 1258.6 18.7252 1259.29 19.3845C1259.99 19.3845 1260.69 19.3845 1261.38 19.3845C1262.08 19.3845 1262.08 20.0439 1262.77 20.0439C1264.17 20.0439 1264.86 18.7252 1265.56 18.0659C1267.64 17.4065 1269.73 16.7472 1271.82 16.7472C1273.91 16.0878 1276 14.7692 1278.08 14.1098C1278.78 13.4505 1282.95 12.7911 1284.35 12.7911C1283.65 14.1098 1284.35 17.4065 1285.04 18.0659C1285.74 18.7252 1285.74 18.0659 1286.43 18.7252C1287.13 18.7252 1287.13 19.3845 1287.83 19.3845C1289.91 20.0439 1292.7 19.3845 1295.48 20.0439C1298.27 20.7032 1301.05 21.3626 1304.53 21.3626C1306.62 21.3626 1308.01 20.7032 1310.1 20.0439C1312.18 19.3845 1313.58 18.0659 1314.27 16.0878C1314.27 15.4285 1314.97 14.1098 1315.66 14.1098C1316.36 14.1098 1317.05 14.1098 1317.75 14.7692C1319.84 15.4285 1321.23 14.7692 1322.62 15.4285C1323.32 16.0878 1324.71 16.7472 1325.41 17.4065C1326.8 18.0659 1327.49 19.3845 1328.89 20.0439C1330.97 21.3626 1333.06 21.3626 1335.15 21.3626C1337.93 21.3626 1339.32 18.7252 1342.11 18.7252C1343.5 18.7252 1344.2 19.3845 1345.59 18.0659C1346.28 17.4065 1345.59 16.0878 1346.28 16.0878C1346.98 15.4285 1348.37 15.4285 1349.76 15.4285C1352.55 14.7692 1355.33 14.1098 1358.81 14.1098C1361.59 14.1098 1365.77 14.7692 1368.55 12.7911C1369.25 12.1318 1369.25 11.4724 1369.94 10.8131C1370.64 10.8131 1372.73 10.8131 1374.12 10.8131C1376.21 10.8131 1377.6 10.8131 1379.69 11.4724C1381.77 12.1318 1383.17 14.1098 1385.25 14.1098C1386.65 14.1098 1388.04 14.1098 1388.73 14.1098C1390.13 14.1098 1391.52 14.7692 1392.21 15.4285C1392.91 16.0878 1394.3 16.7472 1395 17.4065L1395.69 18.0659C1397.08 18.7252 1399.17 16.7472 1400.56 18.0659C1401.96 20.0439 1404.74 19.3845 1405.44 20.7032C1405.44 20.7032 1405.44 21.3626 1406.13 21.3626C1406.83 21.3626 1407.52 21.3626 1407.52 21.3626C1410.31 21.3626 1412.39 21.3626 1415.18 21.3626C1419.35 20.7032 1422.83 18.0659 1427.7 18.0659C1429.79 18.0659 1431.18 18.0659 1433.27 18.0659C1433.97 18.0659 1434.66 18.7252 1435.36 18.7252C1436.75 18.7252 1437.45 19.3845 1438.84 19.3845C1440.23 19.3845 1442.32 19.3845 1443.71 20.0439C1445.1 20.7032 1445.1 22.0219 1446.49 22.6812C1447.19 22.6812 1448.58 23.3406 1448.58 23.3406C1449.97 23.3406 1451.37 23.3406 1452.76 23.3406C1454.85 23.3406 1456.93 23.3406 1459.02 23.3406C1459.72 23.3406 1459.72 23.3406 1460.41 23.3406C1461.8 22.6812 1461.11 20.0439 1462.5 20.7032C1463.2 20.7032 1461.8 22.6812 1461.8 23.3406C1462.5 24.6593 1464.59 23.9999 1465.98 23.9999C1466.68 23.9999 1467.37 23.3406 1468.07 23.3406C1469.46 23.3406 1469.46 24.6593 1470.16 25.3186C1470.85 25.978 1471.55 25.978 1472.94 25.978C1473.64 25.978 1474.33 25.978 1475.03 25.978C1475.72 26.6373 1476.42 28.6153 1477.81 27.956C1479.2 27.2966 1479.9 25.978 1480.59 25.3186C1481.29 24.6593 1481.99 24.6593 1482.68 24.6593C1483.38 24.6593 1484.77 25.3186 1485.47 24.6593C1486.16 23.9999 1486.16 23.3406 1486.86 23.3406C1488.25 23.3406 1488.95 24.6593 1489.64 25.3186C1491.03 25.978 1490.34 22.6812 1490.34 22.0219C1490.34 21.3626 1490.34 20.7032 1491.03 20.7032C1492.42 19.3845 1494.51 18.7252 1496.6 18.7252C1500.08 18.7252 1504.26 18.7252 1508.43 18.7252C1509.82 18.7252 1509.82 18.7252 1511.21 19.3845C1512.61 20.0439 1513.3 20.7032 1514.69 21.3626C1516.78 22.6812 1518.87 22.6812 1521.65 22.6812C1523.04 22.6812 1524.44 22.6812 1525.83 22.6812C1528.61 22.6812 1530 21.3626 1532.79 20.7032C1534.18 20.0439 1534.88 20.0439 1536.27 20.0439C1537.66 20.0439 1537.66 19.3845 1539.05 18.7252C1541.14 18.0659 1543.92 18.7252 1546.71 18.0659C1547.4 18.0659 1549.49 17.4065 1550.19 17.4065C1552.27 18.0659 1553.67 22.0219 1554.36 23.3406C1555.06 24.6593 1555.75 25.3186 1557.84 25.978C1558.54 25.978 1558.54 25.978 1559.23 25.978C1559.23 25.978 1559.93 25.978 1559.93 26.6373C1562.02 27.2966 1564.1 26.6373 1566.19 27.2966C1568.98 27.956 1572.45 27.956 1575.24 27.2966C1578.02 26.6373 1580.81 25.3186 1582.89 24.6593C1584.29 23.9999 1586.37 23.3406 1587.76 22.6812C1588.46 22.0219 1589.16 22.0219 1589.85 21.3626C1591.94 20.7032 1594.03 21.3626 1596.12 22.0219C1596.81 22.0219 1599.6 22.0219 1600.99 22.6812C1602.38 24.6593 1605.16 25.978 1607.25 26.6373C1610.03 27.2966 1613.51 28.6153 1616.3 28.6153C1618.39 27.956 1621.17 26.6373 1622.56 26.6373C1623.95 26.6373 1626.04 28.6153 1626.74 29.2747C1627.43 29.2747 1627.43 29.934 1628.13 29.934C1628.82 30.5933 1629.52 30.5933 1630.22 31.2527C1631.61 31.912 1632.3 32.5714 1633.7 31.912C1635.78 31.2527 1636.48 29.934 1637.87 28.6153C1639.26 27.2966 1640.65 27.2966 1642.05 25.978C1644.13 24.6593 1644.83 24.6593 1646.92 24.6593C1651.79 23.9999 1655.96 22.6812 1660.84 22.0219C1662.23 22.0219 1664.32 22.6812 1666.4 22.0219C1667.1 22.0219 1667.1 20.7032 1668.49 20.7032C1670.58 20.7032 1671.97 21.3626 1674.06 21.3626C1676.15 21.3626 1678.93 21.3626 1681.02 20.7032C1683.1 20.7032 1685.19 20.7032 1687.28 21.3626C1689.37 22.0219 1690.76 22.6812 1692.85 22.6812C1694.24 23.3406 1693.54 23.3406 1694.94 22.6812C1701.89 18.7252 1710.94 19.3845 1718.6 18.0659C1722.77 17.4065 1726.25 16.0878 1729.73 16.0878C1731.82 16.0878 1733.91 15.4285 1735.99 14.7692C1738.78 13.4505 1740.87 14.7692 1743.65 15.4285C1746.43 16.0878 1747.82 18.7252 1750.61 19.3845C1752.7 20.0439 1754.78 19.3845 1756.87 19.3845C1760.35 19.3845 1765.22 20.0439 1768.01 18.0659C1769.4 17.4065 1770.09 16.0878 1772.18 16.0878C1773.57 16.0878 1774.97 16.0878 1776.36 16.0878C1778.45 16.0878 1781.92 16.7472 1784.01 16.0878C1787.49 14.7692 1790.97 15.4285 1795.15 15.4285C1796.54 15.4285 1798.63 15.4285 1800.02 15.4285C1802.11 15.4285 1804.19 16.0878 1806.28 16.0878C1807.67 16.0878 1809.07 15.4285 1810.46 15.4285C1813.94 15.4285 1817.42 15.4285 1820.9 15.4285C1821.59 15.4285 1822.98 15.4285 1823.68 15.4285C1826.46 16.0878 1829.94 16.7472 1832.03 18.0659C1834.81 19.3845 1836.9 21.3626 1839.69 22.6812C1840.38 22.6812 1840.38 22.0219 1840.38 21.3626C1841.08 20.0439 1841.77 19.3845 1843.16 18.0659C1844.56 16.7472 1846.64 13.4505 1848.73 12.7911C1849.43 12.7911 1850.82 12.7911 1852.21 12.7911C1855.69 12.1318 1857.78 10.8131 1861.26 9.49442C1862.65 8.83508 1863.35 8.83508 1864.74 8.83508C1865.43 8.83508 1866.13 8.17574 1866.13 8.17574C1867.52 7.5164 1867.52 8.17574 1868.22 9.49442C1869.61 11.4724 1871.7 12.7911 1873.79 14.1098C1874.48 14.7692 1875.87 14.7692 1876.57 15.4285C1877.96 16.0878 1879.35 16.7472 1880.74 16.7472C1881.44 16.7472 1882.14 17.4065 1883.53 17.4065C1884.92 18.7252 1885.62 20.0439 1887.7 20.0439C1889.1 20.0439 1891.18 20.0439 1891.88 19.3845C1893.27 18.7252 1893.27 17.4065 1893.97 16.0878C1894.66 14.7692 1896.75 15.4285 1898.14 15.4285C1899.53 15.4285 1901.62 14.7692 1903.01 15.4285C1905.1 16.0878 1905.8 18.0659 1907.88 19.3845C1910.67 21.3626 1914.84 22.0219 1917.63 22.0219C1921.11 22.0219 1924.59 21.3626 1927.37 18.7252C1928.76 17.4065 1930.15 18.0659 1932.24 18.7252C1935.03 19.3845 1937.11 21.3626 1938.51 23.3406C1940.59 26.6373 1944.07 25.978 1946.86 27.956C1948.25 29.2747 1948.94 29.2747 1951.03 27.956C1952.42 27.2966 1952.42 26.6373 1953.82 25.978C1954.51 25.3186 1955.21 23.9999 1955.9 23.9999C1957.29 23.9999 1957.99 25.3186 1959.38 24.6593C1960.08 23.9999 1958.69 22.6812 1959.38 22.0219C1960.77 20.7032 1962.17 22.6812 1963.56 23.3406C1966.34 24.6593 1968.43 24.6593 1971.21 24.6593C1974 24.6593 1976.08 24.6593 1978.87 24.6593C1980.96 24.6593 1983.04 24.6593 1985.13 25.3186C1986.52 25.978 1987.22 27.956 1989.31 27.956C1990 27.956 1991.39 27.956 1992.09 27.956C1993.48 27.2966 1994.18 25.978 1995.57 25.3186C1999.75 22.6812 2004.62 25.978 2008.1 23.9999C2008.79 23.9999 2008.79 23.3406 2008.79 22.6812C2009.49 22.6812 2010.18 22.6812 2010.88 22.6812C2012.27 22.6812 2012.27 22.6812 2013.66 22.0219C2014.36 21.3626 2015.06 20.7032 2015.75 20.0439C2022.01 18.0659 2026.19 26.6373 2031.76 23.9999C2033.84 23.3406 2035.24 22.6812 2037.32 22.0219C2038.72 21.3626 2040.11 20.7032 2041.5 20.0439C2042.89 20.0439 2042.89 20.0439 2044.28 19.3845C2045.68 18.7252 2047.07 18.7252 2048.46 18.7252C2049.85 18.7252 2051.24 19.3845 2052.63 19.3845C2053.33 19.3845 2054.03 19.3845 2054.72 20.0439C2054.72 20.0439 2055.42 20.7032 2056.11 21.3626C2056.81 21.3626 2056.81 21.3626 2057.51 21.3626C2058.2 21.3626 2058.9 22.0219 2059.59 22.0219C2060.29 22.0219 2061.68 22.0219 2062.38 22.6812C2063.07 22.6812 2063.77 23.3406 2065.16 23.3406C2067.94 23.9999 2070.73 23.3406 2073.51 24.6593C2074.21 25.3186 2075.6 25.3186 2076.3 25.3186C2077.69 25.978 2079.08 25.978 2080.47 26.6373C2083.25 26.6373 2086.04 26.6373 2088.13 26.6373C2089.52 26.6373 2090.21 26.6373 2091.61 26.6373C2093 25.978 2093.69 24.6593 2095.09 23.9999C2096.48 23.3406 2099.96 23.9999 2101.35 23.9999C2102.74 23.9999 2103.44 23.9999 2104.83 24.6593C2106.92 25.3186 2107.61 26.6373 2109.7 25.3186C2110.4 24.6593 2111.09 23.9999 2111.79 23.9999C2112.48 23.3406 2113.88 23.3406 2114.57 22.6812C2116.66 21.3626 2116.66 20.7032 2118.75 22.0219C2120.14 22.6812 2121.53 23.3406 2122.92 23.9999C2122.92 23.9999 2125.01 25.3186 2125.71 25.3186C2126.4 25.3186 2127.79 25.3186 2128.49 25.3186C2131.27 24.6593 2132.66 20.0439 2136.14 21.3626C2138.93 22.0219 2141.71 22.6812 2144.5 22.6812C2146.58 22.6812 2146.58 22.0219 2147.28 20.0439C2147.28 19.3845 2147.97 18.0659 2148.67 17.4065C2149.37 16.7472 2150.76 16.7472 2152.15 16.7472C2154.24 16.7472 2156.33 16.7472 2158.41 16.7472C2160.5 16.7472 2160.5 16.7472 2161.89 16.0878C2165.37 14.1098 2168.16 14.1098 2171.64 16.0878C2175.12 17.4065 2178.59 16.0878 2180.68 13.4505L2181.38 12.1318C2182.77 11.4724 2183.47 12.1318 2184.86 13.4505L2185.55 14.1098H2186.25C2186.95 14.1098 2186.95 14.7692 2186.95 15.4285C2188.34 16.7472 2191.12 17.4065 2193.21 17.4065C2197.38 17.4065 2201.56 14.1098 2205.74 12.7911C2206.43 12.7911 2207.13 12.7911 2207.82 12.1318C2208.52 12.1318 2208.52 11.4724 2209.22 10.8131C2210.61 10.1538 2212 11.4724 2213.39 11.4724C2214.78 11.4724 2216.87 11.4724 2218.26 11.4724C2220.35 11.4724 2221.05 10.1538 2223.13 10.1538C2224.53 10.1538 2225.22 10.8131 2226.61 11.4724C2227.31 12.1318 2227.31 12.7911 2228 12.7911C2229.4 13.4505 2231.48 13.4505 2233.57 13.4505C2237.05 13.4505 2243.31 13.4505 2246.1 10.1538C2246.79 8.83508 2247.49 8.17574 2249.58 8.17574C2250.27 8.17574 2252.36 8.83508 2253.06 7.5164C2253.75 6.85705 2252.36 5.53837 2253.06 4.87903C2255.15 2.90101 2257.93 5.53837 2260.02 6.85705C2262.1 8.17574 2264.89 9.49442 2266.98 11.4724C2268.37 12.1318 2271.15 14.7692 2273.24 13.4505C2273.94 12.7911 2275.33 10.8131 2275.33 10.1538C2276.02 8.17574 2276.02 5.53837 2278.11 4.87903C2279.5 4.21969 2280.89 4.21969 2282.29 4.21969C2284.37 4.21969 2286.46 4.87903 2288.55 4.87903C2289.94 5.53837 2292.03 6.19771 2293.42 4.87903C2294.12 4.21969 2293.42 3.56035 2294.12 3.56035C2294.81 3.56035 2295.51 4.87903 2296.2 4.87903C2298.99 6.85705 2302.47 6.19771 2305.25 6.19771C2307.34 6.19771 2310.12 6.19771 2312.21 5.53837C2314.3 5.53837 2317.08 4.21969 2319.17 4.87903C2323.34 5.53837 2326.82 9.49442 2331 10.8131V56.967C2330.3 56.967 2329.61 54.989 2328.22 54.989C2325.43 54.989 2322.65 54.989 2319.87 54.989C2317.78 54.989 2315.69 54.989 2313.6 54.3296C2312.91 54.3296 2312.21 53.6703 2311.51 53.6703C2310.82 53.011 2309.43 53.6703 2308.73 53.6703C2306.64 53.6703 2304.56 53.6703 2302.47 54.3296L2301.77 54.989C2301.08 54.989 2300.38 55.6483 2299.68 55.6483C2298.29 56.3077 2298.29 56.967 2297.6 57.6263C2296.9 58.2857 2296.2 57.6263 2294.81 58.2857C2293.42 58.2857 2292.72 59.6044 2291.33 60.2637C2289.94 60.9231 2288.55 60.2637 2287.16 60.9231C2285.77 60.9231 2286.46 60.9231 2285.77 61.5824C2284.37 62.2417 2282.29 62.2417 2280.89 62.2417C2279.5 62.2417 2278.11 62.9011 2277.41 62.9011C2276.72 62.9011 2276.02 62.9011 2275.33 62.9011C2273.24 62.9011 2271.15 63.5604 2269.06 62.9011C2267.67 62.9011 2264.89 62.9011 2264.19 61.5824C2262.8 60.2637 2263.5 58.2857 2262.1 56.967C2260.02 54.3296 2253.06 54.3296 2250.27 55.6483C2249.58 55.6483 2248.88 56.3077 2248.19 56.3077C2246.79 56.967 2246.79 58.2857 2246.79 59.6044C2246.1 60.9231 2245.4 62.9011 2244.71 64.2198C2244.71 64.8791 2242.62 69.4945 2240.53 68.8352C2239.84 68.8352 2239.84 67.5165 2239.14 66.8571C2237.75 66.1978 2235.66 66.8571 2234.27 66.8571C2232.18 66.8571 2230.09 66.8571 2228.7 66.8571C2226.61 66.8571 2224.53 66.8571 2222.44 66.8571C2218.26 66.8571 2214.78 64.2198 2211.3 63.5604C2207.13 62.2417 2202.95 63.5604 2198.78 63.5604C2196.69 63.5604 2193.91 62.9011 2191.82 63.5604C2189.03 64.2198 2186.95 64.8791 2184.16 65.5384C2183.47 65.5384 2183.47 65.5384 2182.07 65.5384C2180.68 66.1978 2179.29 66.8571 2178.59 68.1758C2177.2 68.8352 2176.51 69.4945 2175.81 70.8132C2175.12 72.7912 2175.12 74.7692 2174.42 76.7473C2173.03 76.7473 2173.03 74.7692 2173.03 74.1099C2172.33 72.1319 2171.64 70.8132 2169.55 70.1538C2165.37 69.4945 2159.81 69.4945 2154.93 69.4945C2149.37 70.1538 2143.8 70.8132 2138.23 69.4945C2135.45 68.8352 2132.66 68.1758 2129.88 68.1758C2127.79 68.1758 2125.01 68.1758 2122.92 68.1758C2120.83 68.1758 2118.75 67.5165 2118.05 70.1538C2118.05 71.4725 2118.05 72.7912 2116.66 73.4505C2115.27 74.1099 2113.18 73.4505 2111.09 74.1099C2108.31 74.7692 2106.22 75.4286 2103.44 75.4286C2101.35 75.4286 2099.26 74.7692 2097.17 74.1099C2095.09 72.7912 2093 72.1319 2090.21 72.1319C2089.52 72.1319 2088.13 72.1319 2087.43 72.1319C2086.04 72.1319 2084.65 71.4725 2082.56 70.8132C2080.47 70.8132 2078.38 70.8132 2076.3 70.8132C2074.9 70.8132 2073.51 70.8132 2072.12 70.8132C2069.34 71.4725 2067.25 72.7912 2065.16 73.4505C2063.77 74.1099 2062.38 74.7692 2060.99 74.1099C2059.59 73.4505 2058.9 72.7912 2057.51 71.4725C2056.81 70.8132 2056.81 69.4945 2056.11 68.1758C2055.42 67.5165 2054.03 66.8571 2053.33 66.1978C2051.94 65.5384 2049.85 65.5384 2048.46 65.5384C2046.37 65.5384 2046.37 65.5384 2045.68 63.5604C2044.98 61.5824 2043.59 62.2417 2042.2 62.9011C2040.11 64.2198 2037.32 64.8791 2035.24 64.8791C2033.84 64.8791 2033.15 65.5384 2031.76 65.5384C2031.06 65.5384 2031.06 65.5384 2030.37 65.5384C2029.67 65.5384 2028.97 66.1978 2028.28 66.8571C2026.89 66.8571 2024.8 66.8571 2023.41 66.8571C2017.14 66.8571 2010.88 66.8571 2005.31 70.8132C2003.92 71.4725 2003.92 71.4725 2002.53 72.1319L2001.83 72.7912C2000.44 73.4505 1999.05 74.7692 1997.66 75.4286C1996.27 76.0879 1995.57 76.0879 1994.18 75.4286C1993.48 75.4286 1992.09 74.1099 1992.09 74.1099C1990 72.7912 1988.61 71.4725 1986.52 70.8132C1985.83 70.1538 1984.44 70.8132 1984.44 70.1538C1983.74 69.4945 1983.74 68.8352 1983.04 68.1758C1980.96 66.1978 1978.17 66.1978 1975.39 66.1978C1973.3 66.1978 1971.21 65.5384 1969.82 66.8571C1969.13 67.5165 1968.43 68.1758 1967.04 68.8352C1966.34 69.4945 1965.65 69.4945 1964.95 70.1538C1964.25 70.8132 1964.25 70.8132 1964.25 71.4725C1963.56 72.7912 1964.25 72.7912 1962.86 72.7912C1959.38 74.1099 1954.51 71.4725 1951.03 70.1538C1950.34 70.1538 1949.64 69.4945 1948.94 69.4945C1948.25 69.4945 1948.25 68.8352 1947.55 68.1758C1946.86 68.1758 1946.16 68.8352 1945.46 69.4945C1944.07 70.8132 1941.98 72.1319 1940.59 73.4505C1938.5 72.7912 1937.81 70.1538 1936.42 68.8352C1935.03 67.5165 1933.63 66.8571 1932.24 66.8571C1930.15 66.8571 1930.15 67.5165 1929.46 69.4945C1928.76 71.4725 1928.76 74.1099 1926.67 73.4505C1923.19 73.4505 1921.11 68.1758 1917.63 68.1758C1915.54 68.1758 1913.45 69.4945 1910.67 69.4945C1908.58 69.4945 1905.8 68.8352 1904.41 70.1538C1903.71 70.8132 1903.71 71.4725 1903.01 72.1319C1902.32 72.7912 1899.53 72.1319 1898.84 72.1319C1897.45 72.1319 1895.36 71.4725 1893.97 71.4725C1893.27 71.4725 1892.57 71.4725 1891.88 71.4725C1890.49 72.7912 1891.18 75.4286 1891.18 77.4066C1887.7 76.0879 1884.92 72.7912 1881.44 70.8132C1879.35 69.4945 1877.96 69.4945 1875.87 68.8352C1874.48 68.1758 1874.48 68.1758 1873.09 68.1758C1871.7 68.1758 1870.31 68.8352 1868.91 68.8352C1866.13 69.4945 1862.65 68.8352 1859.17 68.8352C1856.39 68.8352 1854.3 67.5165 1852.21 67.5165C1850.12 67.5165 1848.04 68.1758 1846.64 67.5165C1844.56 66.8571 1843.86 67.5165 1841.77 68.1758C1839.69 69.4945 1837.6 68.8352 1834.81 69.4945C1833.42 69.4945 1833.42 70.1538 1832.03 71.4725C1831.33 72.1319 1829.25 72.7912 1827.85 72.7912C1827.16 72.7912 1826.46 72.7912 1825.77 72.7912C1823.68 72.1319 1821.59 70.1538 1820.2 68.8352C1818.81 67.5165 1816.72 66.8571 1814.63 66.1978C1813.94 66.1978 1812.54 65.5384 1811.85 65.5384C1811.15 65.5384 1811.15 65.5384 1811.15 65.5384C1810.46 66.1978 1809.76 66.8571 1809.76 67.5165C1809.07 68.1758 1806.98 67.5165 1805.59 67.5165C1800.02 67.5165 1795.15 67.5165 1789.58 67.5165C1786.8 67.5165 1784.71 67.5165 1782.62 65.5384C1781.92 64.8791 1781.92 64.2198 1780.53 63.5604C1779.84 62.9011 1779.84 63.5604 1778.44 63.5604C1776.36 63.5604 1774.97 60.9231 1772.88 60.9231C1770.79 60.9231 1770.09 63.5604 1768.7 64.8791C1767.31 66.1978 1766.61 67.5165 1765.92 68.8352C1763.83 69.4945 1761.74 66.1978 1760.35 64.8791C1758.96 63.5604 1757.57 63.5604 1755.48 62.9011C1753.39 62.2417 1752 60.2637 1749.91 59.6044C1748.52 58.945 1747.82 60.2637 1746.43 60.2637C1745.74 60.2637 1744.35 59.6044 1743.65 59.6044C1741.56 58.945 1740.87 58.2857 1738.78 58.2857C1737.39 58.2857 1735.3 58.2857 1733.91 57.6263C1732.51 56.967 1731.82 57.6264 1730.43 56.967C1729.04 56.967 1726.95 55.6483 1725.56 55.6483C1723.47 54.989 1722.08 54.3296 1719.99 54.3296C1718.6 54.989 1717.2 55.6483 1715.12 56.3077C1712.33 56.967 1709.55 58.2857 1706.77 58.945C1705.37 59.6044 1703.98 58.945 1702.59 58.945C1701.2 58.945 1701.89 59.6044 1700.5 59.6044C1697.02 60.2637 1693.54 59.6044 1690.06 59.6044C1685.19 59.6044 1681.02 55.6483 1676.84 57.6263C1676.15 58.2857 1677.54 59.6044 1676.84 60.2637C1674.75 62.2417 1674.06 64.2198 1672.67 65.5384C1671.27 67.5165 1671.97 66.8571 1669.88 66.1978C1668.49 65.5384 1667.1 64.2198 1665.71 64.2198C1663.62 64.2198 1664.32 65.5384 1662.23 66.1978C1656.66 66.8571 1651.09 55.6483 1646.92 59.6044C1645.53 60.9231 1648.31 64.8791 1647.61 66.8571C1646.92 68.8352 1644.13 63.5604 1642.74 64.2198C1641.35 64.8791 1642.05 65.5384 1641.35 66.1978C1640.65 66.8571 1639.26 67.5165 1637.87 67.5165C1635.78 67.5165 1633 66.8571 1630.91 66.8571C1628.82 66.8571 1626.74 66.8571 1624.65 67.5165C1623.26 68.1758 1621.86 68.1758 1619.78 68.8352C1618.39 69.4945 1616.99 70.1538 1616.3 70.1538C1615.6 70.1538 1615.6 70.1538 1614.91 70.1538C1614.21 70.1538 1614.21 70.1538 1614.21 70.8132C1614.21 71.4725 1608.64 72.1319 1607.95 72.1319C1606.55 72.1319 1605.16 71.4725 1604.47 72.7912C1603.77 74.1099 1603.77 78.7253 1601.68 80.044C1599.6 80.7033 1596.12 78.7253 1594.03 78.0659C1593.33 78.0659 1591.94 77.4066 1591.24 77.4066C1589.85 76.7472 1587.76 77.4066 1585.68 77.4066C1582.89 77.4066 1580.11 77.4066 1578.02 77.4066C1576.63 77.4066 1575.93 78.0659 1575.24 78.0659C1573.15 78.0659 1569.67 78.7253 1568.28 76.7473C1567.58 76.0879 1567.58 75.4286 1566.89 74.7692C1565.5 74.1099 1564.1 73.4505 1562.71 72.7912C1560.62 72.1319 1559.23 71.4725 1557.14 70.8132C1555.75 70.8132 1553.67 70.8132 1552.27 70.1538C1550.88 70.1538 1549.49 70.1538 1548.1 70.1538C1546.01 70.1538 1544.62 70.8132 1542.53 70.8132C1540.44 70.8132 1539.05 70.8132 1536.96 70.8132C1535.57 70.8132 1534.88 70.8132 1534.88 72.1319C1534.88 72.7912 1535.57 74.1099 1534.88 74.7692C1534.18 75.4286 1530.7 76.0879 1530 76.0879C1527.92 76.0879 1525.83 76.7472 1523.74 75.4286C1521.65 74.1099 1519.57 72.7912 1517.48 71.4725C1516.09 70.1538 1514.69 68.1758 1511.91 67.5165C1509.13 66.8571 1506.34 66.8571 1503.56 68.8352C1502.86 69.4945 1502.17 70.1538 1501.47 70.8132C1500.78 72.1319 1499.38 72.7912 1498.69 74.1099C1496.6 76.0879 1496.6 77.4066 1496.6 80.044C1496.6 81.3626 1496.6 82.6813 1495.9 84C1494.51 84 1493.12 82.6813 1492.42 81.3626C1491.73 80.044 1490.34 79.3846 1488.95 78.0659C1486.86 76.0879 1484.07 74.1099 1481.99 72.1319C1481.29 71.4725 1479.9 69.4945 1478.51 69.4945C1476.42 69.4945 1475.72 71.4725 1474.33 72.7912C1472.94 74.1099 1472.24 73.4505 1470.85 72.7912C1468.07 72.1319 1465.98 72.7912 1463.2 72.7912C1460.41 72.1319 1457.63 70.1538 1454.15 69.4945C1452.06 69.4945 1447.19 69.4945 1445.8 71.4725C1445.1 72.1319 1445.8 72.7912 1445.1 73.4505C1444.41 74.1099 1443.71 74.1099 1443.01 74.1099C1441.62 74.1099 1440.23 74.1099 1438.84 74.1099C1437.45 74.1099 1436.06 73.4505 1434.66 72.7912C1433.97 72.7912 1432.58 72.7912 1431.88 72.7912C1430.49 72.7912 1429.1 72.7912 1428.4 72.7912C1427.01 73.4505 1427.01 74.1099 1425.62 74.1099C1424.92 74.1099 1423.53 74.1099 1422.83 73.4505C1421.44 72.1319 1420.75 71.4725 1418.66 70.1538C1414.48 67.5165 1410.31 65.5384 1406.83 62.2417C1405.44 60.923 1404.74 60.2637 1403.35 58.945C1399.87 56.3077 1395 55.6483 1390.82 55.6483C1388.04 55.6483 1385.25 56.3077 1381.77 56.967C1378.99 57.6264 1376.9 58.945 1374.12 58.945C1369.94 59.6044 1365.07 56.967 1360.9 56.967C1358.81 56.967 1357.42 56.967 1355.33 56.967C1353.24 56.967 1352.55 56.967 1351.15 56.3077C1350.46 55.6483 1349.76 55.6483 1348.37 54.989C1345.59 54.989 1342.11 53.6703 1339.32 54.989C1337.93 55.6483 1337.24 55.6483 1335.84 56.3077C1333.76 56.967 1331.67 58.945 1328.89 59.6044C1328.19 60.2637 1326.8 60.2637 1326.1 60.2637C1324.01 60.9231 1321.23 60.2637 1318.45 60.2637C1314.97 60.2637 1310.79 60.2637 1307.31 61.5824C1302.44 62.9011 1300.35 67.5165 1295.48 68.1758C1294.09 68.1758 1292 68.1758 1290.61 67.5165C1287.13 66.1978 1283.65 64.8791 1279.48 64.2198C1277.39 63.5604 1275.3 62.2417 1273.21 61.5824C1271.12 60.9231 1269.73 61.5824 1268.34 60.2637C1262.77 57.6264 1256.51 58.945 1250.94 58.945C1249.55 58.945 1248.16 57.6263 1247.46 56.3077C1246.77 55.6483 1246.77 55.6483 1246.07 54.989C1245.38 54.989 1245.38 54.3296 1245.38 54.3296C1244.68 53.6703 1243.98 53.6703 1243.98 53.6703C1243.29 53.011 1242.59 53.6703 1241.2 53.6703C1240.5 53.6703 1239.11 53.6703 1238.42 53.6703C1237.02 53.6703 1236.33 53.6703 1234.94 53.6703C1234.24 53.6703 1232.85 53.6703 1232.15 54.3296C1231.46 54.989 1231.46 54.989 1230.76 55.6483C1230.07 56.3077 1228.67 57.6263 1227.98 57.6263C1227.28 57.6263 1226.59 57.6263 1225.89 57.6263C1223.8 57.6263 1221.71 57.6263 1219.63 57.6263C1219.63 57.6263 1218.93 57.6263 1218.23 57.6263C1218.23 57.6263 1217.54 57.6263 1217.54 58.2857C1221.02 60.2637 1221.02 60.2637 1220.32 60.9231Z" fill="white"/>
</svg>
