<svg width="1146" height="922" viewBox="0 0 1146 922" fill="none" xmlns="http://www.w3.org/2000/svg">
<g filter="url(#filter0_b_24_9121)">
<path d="M329.75 -63.4655C327.652 -87.7177 325.817 -68.1323 298.353 -57.1921C312.577 -50.0006 276.132 -16.1853 271.937 -36.6122C250.634 -67.9028 249.848 -79.0726 230.38 -74.5588C201.54 -69.1269 181.286 -39.2899 164.178 -63.848C170.274 -65.4547 162.867 -62.471 151.921 -59.4872C145.562 -28.4261 164.637 -59.1047 140.319 -53.5963C144.776 -64.3071 120.851 -43.6507 116.394 -36.0767C100.073 -35.3116 91.1584 -4.174 87.8155 -31.7924C68.1513 22.2203 67.8891 -29.0382 61.5966 -43.6507C44.9476 -43.5742 59.8924 -86.4171 31.576 -51.6837C20.5641 -42.8091 40.0972 -67.6733 19.1221 -51.5307C-16.0112 -40.514 -26.7609 -31.0273 -46.425 -60.3288C-61.5664 -61.1704 -92.2425 -88.6357 -106.466 -73.4112C-131.964 -75.4768 -155.823 -57.3451 -139.436 -33.552C-160.215 1.7169 -113.349 24.9745 -128.359 42.6472C-129.342 51.2923 -112.431 104.693 -121.28 118.081C-109.875 127.415 -130.522 110.278 -120.362 131.164C-125.475 126.65 -90.6038 184.105 -118.396 169.722C-110.465 177.449 -110.989 181.504 -122.066 209.122C-113.742 223.658 -135.176 222.97 -124.951 221.134C-148.547 235.517 -151.694 283.639 -139.305 291.519C-132.816 325.869 -145.336 346.22 -143.304 363.204C-156.61 385.543 -125.082 413.009 -134.455 434.201C-143.763 478.727 -131.309 463.885 -110.333 502.29C-97.2241 487.295 -106.27 506.345 -106.794 516.52C-122.394 541.538 -99.977 560.205 -101.943 559.44C-82.1482 553.396 -133.734 577.954 -109.35 590.271C-100.567 572.675 -113.48 595.627 -119.182 619.42C-149.989 630.666 -131.571 638.47 -120.624 630.36C-118.658 630.284 -125.213 633.114 -121.214 642.142C-124.754 648.415 -89.0962 709.237 -117.675 717.729C-134.651 763.02 -100.501 768.375 -122.263 791.633C-113.283 809.918 -94.4711 793.086 -126.917 821.47C-151.432 837.23 -115.315 866.226 -129.146 836.159C-129.408 862.094 -151.563 854.979 -146.253 921.386C-163.951 943.19 -142.648 984.732 -130.129 971.038C-137.798 971.65 -105.549 976.928 -100.174 968.742C-97.6174 971.038 -78.3465 966.371 -69.4976 963.464C-70.9397 980.448 -62.8774 961.551 -56.9781 961.015C-35.5442 966.906 -33.5123 959.562 -11.2262 948.928C2.27646 946.632 13.0917 934.468 35.5089 943.649C49.7981 940.895 52.2234 943.113 47.3073 944.261C57.9915 950.075 77.7868 943.572 92.1416 958.95C114.886 966.371 117.181 975.398 134.026 984.732C152.183 980.524 156.968 980.065 184.301 992C199.77 979.606 216.484 973.486 233.854 975.169C243.686 969.507 269.119 961.322 284.719 959.256C283.342 955.89 301.565 967.289 298.025 959.485C304.514 955.125 306.808 966.906 311.855 960.48C326.669 972.338 331.323 959.256 325.162 962.01C349.152 963.464 355.641 979.606 388.677 969.202C407.489 963.158 426.629 970.808 450.357 959.103C478.149 951.911 496.108 943.878 512.495 938.829C516.428 946.25 524.753 940.589 531.176 934.545C541.336 936.075 536.223 922.61 540.091 933.091C548.874 943.802 572.864 930.031 589.906 925.9C607.932 936.228 634.675 930.643 638.542 927.43C648.309 922.61 633.299 929.572 652.307 928.96C675.445 943.037 689.014 931.867 710.382 943.955C717.461 962.546 740.403 956.884 768.85 953.212C790.087 966.218 804.508 970.502 827.515 956.425C854.848 953.9 875.43 942.348 886.114 953.288C875.364 967.977 900.993 971.344 897.06 954.512C916.462 953.671 916.855 940.971 935.733 957.114C941.698 978.535 988.564 954.512 977.29 954.206C988.63 947.627 1000.89 934.927 1015.57 944.337C1040.67 939.747 1009.15 941.813 1027.89 940.13C1044.54 929.113 1066.24 929.113 1080.72 930.949C1099.27 918.402 1115.66 940.359 1130.47 922.38C1135.13 893.92 1140.96 909.91 1135.32 883.439C1127.13 871.122 1100.65 855.438 1116.32 830.421C1124.71 813.207 1113.63 796.606 1103.01 769.982C1106.35 774.113 1118.67 770.594 1100.72 756.364C1092.98 735.402 1096.45 723.39 1094.09 696.154C1103.86 671.52 1103.8 658.973 1099.93 644.207C1108.65 622.403 1107.99 615.365 1116.97 603.43C1118.74 608.403 1127.39 599.834 1121.95 590.042C1122.67 566.631 1129.56 559.899 1137.68 533.887C1146.73 523.559 1152.89 500.913 1131.46 478.574C1129.16 452.562 1114.68 432.059 1115.53 421.96C1121.43 404.899 1099.34 387.533 1109.17 363.28C1106.75 349.28 1110.35 336.427 1103.66 303.453C1112.19 293.125 1108.71 293.661 1105.57 289.223C1112.25 277.365 1117.76 269.791 1112.91 262.982C1106.55 266.195 1112.45 257.244 1115.66 254.031C1129.23 232.916 1132.96 216.62 1127.13 184.488C1133.95 163.372 1124.77 141.415 1121.56 115.174C1121.89 89.5449 1108.52 68.5824 1110.09 46.0899C1101.37 14.1872 1109.3 -7.0812 1103.8 -22.8413C1099.47 -35.3116 1111.86 -31.5629 1103.4 -37.0712C1102.09 -45.7163 1096.85 -48.0115 1102.75 -51.3012C1103.47 -61.0939 1083.15 -60.2523 1084.66 -54.8204C1089.51 -48.853 1073.91 -63.3125 1075.68 -55.1265C1059.35 -64.6131 1042.57 -69.2034 1025.47 -52.5253C1007.24 -54.4379 1000.69 -44.9513 975.192 -47.782C951.399 -45.7928 934.553 -41.6615 925.114 -45.5633C929.178 -42.9621 916.003 -52.4488 911.481 -46.0223C894.176 -45.9458 885.458 -53.9789 869.924 -59.3342C850.063 -56.3505 841.28 -74.3293 831.906 -69.1269C811.128 -58.3397 803 -52.2193 778.617 -55.1265C761.443 -56.3505 749.579 -49.3121 726.048 -40.0549C706.711 -34.4701 697.731 -36.0002 670.333 -38.6778C658.928 -37.9893 657.223 -44.3392 656.633 -41.8911C634.347 -44.4157 629.956 -49.6946 610.947 -52.0662C586.432 -47.3229 581.582 -61.0174 566.178 -45.0278C549.726 -44.7217 534.388 -21.6937 524.49 -18.6335C516.952 -22.6883 522.524 -10.6769 500.828 -18.6335C491.651 -31.6394 485.293 -20.2401 474.806 -31.9454C456.256 -52.9843 466.743 -20.0106 447.997 -42.1971C452.126 -24.2184 435.74 -54.0554 436.854 -44.1097C428.398 -48.4705 399.099 -36.4592 386.71 -40.5905C381.401 -46.0988 338.664 -56.7331 337.681 -58.8752C304.842 -34.164 326.8 -38.6778 329.75 -63.4655Z" fill="#222325"/>
</g>
<defs>
<filter id="filter0_b_24_9121" x="-172" y="-97" width="1337" height="1108" filterUnits="userSpaceOnUse" color-interpolation-filters="sRGB">
<feFlood flood-opacity="0" result="BackgroundImageFix"/>
<feGaussianBlur in="BackgroundImageFix" stdDeviation="9.5"/>
<feComposite in2="SourceAlpha" operator="in" result="effect1_backgroundBlur_24_9121"/>
<feBlend mode="normal" in="SourceGraphic" in2="effect1_backgroundBlur_24_9121" result="shape"/>
</filter>
</defs>
</svg>
