<svg width="41" height="47" viewBox="0 0 41 47" fill="none" xmlns="http://www.w3.org/2000/svg">
<path d="M39.4962 46.8716L38.1384 46.3901C23.7121 41.1436 14.2182 37.3332 8.47044 33.3686C0.16818 27.6421 0.656108 22.1288 1.28866 20.022C2.34317 16.3376 6.04321 13.7062 10.5287 13.4933C13.5956 13.3581 16.9597 14.8417 19.6838 16.7937C17.8996 7.73078 20.7842 2.70065 24.3928 1.03798C28.2115 -0.764221 32.8838 0.931107 35.7442 5.17091C42.0532 14.4705 40.8815 29.4326 39.8324 42.6267L39.4962 46.8716ZM6.03803 17.0825C4.71811 17.9595 3.7473 19.1667 3.35553 20.5946C2.34129 24.0793 4.65268 28.0785 9.69189 31.5625C15.1004 35.2768 24.0052 38.9165 37.533 43.8519L37.635 42.4436C38.6127 30.2482 39.8047 15.0565 33.9143 6.3868C31.6718 3.07694 28.1078 1.68295 25.2988 2.98724C22.2299 4.42099 19.6748 9.62146 22.5266 19.4452L23.7091 23.5026L20.7269 20.5113C18.2833 18.0702 14.0718 15.5065 10.5853 15.661C8.877 15.7583 7.29796 16.2453 6.03803 17.0825Z" fill="#F74F22"/>
</svg>
