<svg width="159" height="224" viewBox="0 0 159 224" fill="none" xmlns="http://www.w3.org/2000/svg">
<path d="M16.5786 176.71C16.379 176.748 6.72894 167.306 6.53166 167.338L6.46762 167.037L6.40752 166.767C12.734 165.569 17.7529 161.171 22.6015 156.917C26.9976 153.058 31.5461 149.063 37.1599 147.32C45.5686 144.697 54.5835 147.52 63.8443 150.906L90.4083 160.624C90.8581 160.773 91.2823 160.991 91.6657 161.268L91.725 161.289L91.8867 161.42C92.2184 161.695 92.4844 162.04 92.6655 162.428L92.7084 162.517C92.8485 162.864 92.8866 163.243 92.8181 163.609C92.6938 164.099 92.4393 164.547 92.0807 164.905C91.7221 165.264 91.2723 165.521 90.7776 165.649C89.6653 165.876 88.5121 165.839 87.4115 165.543L72.2573 162.638L94.4697 170.129C95.9017 170.504 97.2355 171.185 98.3758 172.125C98.7337 172.458 98.9702 172.898 99.0479 173.376C99.1257 173.854 99.0403 174.343 98.8051 174.765C98.5792 175.206 98.2113 175.559 97.7586 175.77C97.306 175.981 96.794 176.037 96.3023 175.931L70.4582 170.566L96.5518 180.394C97.37 180.685 99.274 181.413 99.3109 183.087C99.2997 183.527 99.1636 183.954 98.9181 184.32C98.6727 184.685 98.3277 184.974 97.9223 185.154C96.5395 185.804 95.0307 185.407 93.8239 185.08L72.194 179.296L90.0207 187.438C91.4087 188.07 92.9733 189.021 92.7051 190.696C92.6403 191.03 92.5036 191.346 92.3042 191.622C92.1048 191.899 91.8472 192.129 91.549 192.297C90.2664 193.041 88.8834 192.813 87.4575 192.497C78.8238 190.565 70.614 187.065 63.2486 182.174L58.7361 178.288L16.5786 176.71Z" fill="#E98EAB"/>
<path d="M68.3926 187.589C68.864 187.411 69.2699 187.098 69.559 186.69C69.8481 186.282 70.0074 185.798 70.0167 185.298C70.0214 184.296 69.7789 183.306 69.3102 182.413C67.5747 178.602 64.8865 175.282 61.5007 172.768C59.353 171.178 56.9089 169.9 55.2237 167.845C54.2856 166.7 53.6288 165.369 52.8223 164.146C51.2115 161.758 49.0113 159.813 46.4324 158.495C45.1866 157.852 43.8209 157.473 42.4233 157.381C41.0256 157.289 39.6269 157.487 38.3171 157.962C37.0073 158.438 35.8153 159.179 34.8179 160.14C33.8205 161.1 33.0397 162.258 32.5258 163.54L30.7694 167.876C30.1573 169.415 29.9778 171.092 30.2496 172.733C30.5213 174.373 31.2344 175.914 32.314 177.196C33.3935 178.478 34.7996 179.452 36.3847 180.017C37.9697 180.581 39.6752 180.715 41.322 180.405L41.5503 180.369C49.8308 178.922 58.5259 181.244 64.258 186.383C65.301 187.317 66.7347 188.594 68.2914 188.145C68.8222 187.948 69.2803 187.599 69.6079 187.142C69.9354 186.686 70.1178 186.142 70.1319 185.58C70.1367 184.533 69.8819 183.498 69.3898 182.566C67.6382 178.706 64.9169 175.346 61.4868 172.807C60.9008 172.365 60.233 171.923 59.6091 171.503C57.995 170.529 56.5313 169.329 55.2643 167.94C54.696 167.208 54.18 166.438 53.7199 165.636C53.446 165.172 53.1721 164.709 52.8692 164.265" fill="#F0A7C2"/>
<g style="mix-blend-mode:overlay" opacity="0.65">
<path d="M68.5274 187.605C72.7714 185.638 66.6256 178.15 64.6461 176.108C62.2509 173.479 59.0633 171.929 56.3217 169.689C53.5802 167.449 52.5924 163.704 49.807 161.441C46.4757 158.267 41.6976 156.613 37.3801 158.766C35.2838 159.768 33.6079 161.457 32.6342 163.547C33.4238 161.299 35.0063 159.414 37.094 158.233C44.1545 154.238 51.6994 159.985 54.9359 166.249C57.4409 170.263 62.3759 171.768 65.3236 175.456C67.3968 177.737 73.1646 185.807 68.501 187.596L68.5274 187.605Z" fill="#5A0037"/>
</g>
<g style="mix-blend-mode:overlay" opacity="0.27">
<path d="M72.2153 162.631L82.3402 162.059C84.6129 161.938 86.8326 161.965 89.1156 162.045C89.5986 162.067 90.0814 162.014 90.5463 161.888C90.9653 161.768 91.3528 161.562 91.6831 161.282L91.8448 161.413C92.1665 161.698 92.4308 162.04 92.6235 162.421L92.6665 162.51C92.8066 162.857 92.8446 163.236 92.7762 163.602C92.6519 164.092 92.3974 164.54 92.0388 164.898C91.6801 165.257 91.2304 165.514 90.7357 165.642C89.6234 165.869 88.4702 165.832 87.3696 165.536L72.2153 162.631Z" fill="#5A0037"/>
<path d="M92.2858 175.103L70.4582 170.566L96.0644 172.166C96.3865 172.237 96.7195 172.237 97.0404 172.168C97.3613 172.099 97.6626 171.962 97.9235 171.766C98.0665 171.876 98.2035 171.993 98.3339 172.117C98.6918 172.45 98.9283 172.891 99.006 173.369C99.0838 173.847 98.9984 174.335 98.7632 174.757C98.5373 175.198 98.1694 175.551 97.7167 175.762C97.2641 175.973 96.7521 176.03 96.2604 175.923L92.2858 175.103Z" fill="#5A0037"/>
<path d="M72.1674 179.287L89.3755 180.888C91.2237 181.062 93.0781 181.26 94.9062 181.595C95.8445 181.818 96.8275 181.736 97.7091 181.362C97.8508 181.292 97.9866 181.211 98.1152 181.119C98.4895 181.322 98.7989 181.625 99.0074 181.993C99.2159 182.36 99.3149 182.778 99.2929 183.197C99.2709 183.617 99.1288 184.02 98.8831 184.36C98.6373 184.7 98.2982 184.964 97.905 185.119C96.5221 185.769 95.0134 185.372 93.8065 185.046L91.0381 184.303" fill="#5A0037"/>
<path d="M16.5786 176.71C16.379 176.749 6.72889 167.306 6.53161 167.338L6.46758 167.038L6.40747 166.768C7.29651 166.6 8.1713 166.368 9.02487 166.074C11.9619 168.851 16.2181 173.019 16.3823 172.975L25.0587 173.3C28.573 173.435 32.0243 174.315 35.1785 175.88C37.0203 176.787 39.1068 177.073 41.1166 176.695L41.3449 176.659C49.6254 175.212 58.3206 177.534 64.0549 182.666C65.0956 183.607 66.5293 184.885 68.0861 184.436C68.5268 184.276 68.9185 184.009 69.2249 183.658C69.5313 183.308 69.7424 182.886 69.8386 182.432C75.3416 185.275 81.1898 187.4 87.2348 188.753C88.6584 189.076 90.0173 189.288 91.3329 188.556C91.4259 188.501 91.5147 188.44 91.5988 188.372C91.9437 188.583 92.2276 188.878 92.4221 189.23C92.6166 189.581 92.7149 189.976 92.7071 190.374C92.6994 190.773 92.5859 191.161 92.3779 191.501C92.17 191.841 91.8749 192.12 91.5222 192.31C90.2396 193.054 88.8566 192.826 87.4307 192.51C81.3857 191.157 75.5376 189.032 70.0345 186.189C69.9383 186.643 69.7272 187.065 69.4208 187.415C69.1145 187.766 68.7227 188.033 68.282 188.192C66.7252 188.641 65.2915 187.364 64.2509 186.423C58.5165 181.291 49.8012 178.984 41.5342 180.414L41.3126 180.452C39.6826 180.758 37.9951 180.629 36.4236 180.079C34.852 179.528 33.4532 178.575 32.3708 177.318L16.5786 176.71Z" fill="#5A0037"/>
</g>
<path d="M30.2955 188.784C21.3021 180.638 13.6344 171.17 7.56804 160.721C11.237 158.762 14.9766 156.959 18.7181 155.172C23.5467 165.747 30.871 175.042 40.0714 182.272C36.6958 184.268 33.4325 186.442 30.2955 188.784Z" fill="#90BDEA"/>
<path d="M-3.32442 240.162L-51.4673 221.839C-50.037 212.105 -13.9164 176.13 -6.38657 169.873C-2.05513 166.363 2.62911 163.3 7.59452 160.729C13.6609 171.178 21.3286 180.646 30.322 188.792C17.0345 198.724 4.29342 225.355 -3.32442 240.162Z" fill="#78DBA1"/>
<mask id="mask0_24_8695" style="mask-type:luminance" maskUnits="userSpaceOnUse" x="-52" y="160" width="83" height="81">
<path d="M-3.32442 240.162L-51.4673 221.839C-50.037 212.105 -13.9164 176.13 -6.38657 169.873C-2.05513 166.363 2.62911 163.3 7.59452 160.729C13.6609 171.178 21.3286 180.646 30.322 188.792C17.0345 198.724 4.29342 225.355 -3.32442 240.162Z" fill="white"/>
</mask>
<g mask="url(#mask0_24_8695)">
<path d="M-17.5709 240.871C-15.1957 241.068 -12.8199 240.59 -10.7241 239.493C-8.62824 238.396 -6.89994 236.726 -5.74331 234.681C-4.58668 232.635 -4.05001 230.3 -4.19672 227.95C-4.34343 225.601 -5.1674 223.335 -6.57126 221.421C-8.50199 218.781 -11.4114 216.972 -13.36 214.341C-15.3085 211.71 -15.9159 207.521 -13.302 205.582C-12.487 205.049 -11.5358 204.752 -10.5545 204.723C-9.57326 204.695 -8.60059 204.936 -7.74504 205.421C-6.04587 206.418 -4.68783 207.898 -3.8504 209.665C-2.02246 213.117 -1.54966 217.579 -3.81893 220.723C-6.36823 224.258 -11.8888 224.945 -15.6604 222.675C-19.432 220.406 -21.3792 215.763 -21.0533 211.417C-20.7274 207.07 -18.3306 203.086 -15.157 200.095C-12.6742 197.751 -9.55026 195.715 -8.54423 192.466C-7.23386 188.235 -10.1302 183.774 -13.5921 180.905C-15.6517 179.193 -18.0448 177.75 -20.697 177.371C-23.3492 176.992 -26.2945 177.876 -27.8127 180.036C-30.2436 183.489 -27.8508 188.802 -23.8926 190.421C-19.9345 192.039 -15.3126 190.829 -11.7578 188.522C-7.60901 185.819 -3.86786 181.544 1.12272 181.701C3.10745 181.822 4.98675 182.653 6.40945 184.038C7.83216 185.422 8.70092 187.266 8.85342 189.225C8.91595 190.334 8.70697 191.439 8.24424 192.447C7.78151 193.454 7.07866 194.334 6.19525 195.011C5.2891 195.659 4.20359 196.021 3.08021 196.048C1.95683 196.076 0.847756 195.768 -0.102361 195.166C-2.96697 193.167 -2.83804 188.685 -0.830332 185.879C1.17737 183.074 4.44716 181.485 7.46853 179.8C10.4899 178.116 13.6208 176.061 14.8782 172.857C16.4987 168.736 14.5518 164.072 12.0801 160.34C10.6199 158.175 8.9684 156.089 6.70335 154.808C4.43831 153.528 1.47369 153.191 -0.724613 154.546C-2.92291 155.901 -3.84097 158.443 -5.2236 160.556C-6.7433 162.872 -8.87259 164.734 -11.3862 165.943C-13.8999 167.153 -16.7045 167.666 -19.5034 167.427C-22.3023 167.189 -24.9915 166.209 -27.2866 164.59C-29.5817 162.97 -31.3974 160.773 -32.5415 158.23C-33.1171 156.943 -33.5175 155.476 -33.0622 154.153C-32.6068 152.829 -30.9956 151.851 -29.7181 152.481C-28.625 153.023 -28.2662 154.46 -28.6065 155.626C-29.0333 156.742 -29.6941 157.753 -30.5459 158.595C-39.614 169.083 -45.6066 181.833 -47.8849 195.487C-49.3298 204.28 -48.8597 214.25 -42.7384 220.866C-40.2359 223.57 -36.9853 225.486 -34.2899 228.002C-31.5944 230.518 -29.3851 234.047 -29.9563 237.641C-30.4364 240.623 -32.7467 243.402 -32.0033 246.329C-31.2598 249.256 -27.5946 250.654 -24.5461 251.444C-19.5527 252.743 -14.2673 254.036 -9.36179 252.634C-2.69791 250.758 1.71027 244.314 3.44781 237.689C5.18536 231.064 4.81869 224.086 5.15771 217.234C5.49673 210.382 6.7182 203.223 11.0411 197.897C13.7983 194.64 17.5261 192.326 21.7026 191.28C25.8791 190.233 30.2952 190.507 34.3328 192.061" stroke="#9C69FF" stroke-width="2.37" stroke-miterlimit="10"/>
</g>
<g style="mix-blend-mode:overlay" opacity="0.27">
<path d="M-51.5068 221.825C-51.1651 219.525 -48.9022 215.771 -45.5339 211.291L-29.4943 217.393C-24.2276 219.398 -18.4212 219.448 -13.1593 217.534C-7.89741 215.619 -3.53983 211.871 -0.900348 206.99C6.12198 194.005 14.7138 180.012 23.5316 173.393C24.9873 172.308 26.4714 171.248 27.9835 170.235C31.5176 174.694 35.5735 178.727 40.0652 182.246C36.6967 184.254 33.44 186.437 30.3088 188.787C17.0546 198.709 4.30662 225.359 -3.34422 240.155L-51.5068 221.825Z" fill="#5A0037"/>
</g>
<path d="M103.913 133.957C101.575 133.814 99.195 133.729 96.7719 133.702C96.3011 133.689 95.8323 133.69 95.3569 133.689L95.2909 133.666L94.1455 133.669L93.2432 133.677L92.5002 133.677L91.0691 133.709C90.5072 133.722 89.9497 133.743 89.3832 133.769C88.8168 133.794 88.4872 133.801 88.027 133.821L86.6793 133.891L85.6015 133.954L83.8464 134.062C82.89 134.139 81.9402 134.218 80.9769 134.315L80.0136 134.412L79.0413 134.512L78.0711 134.628C77.7168 134.664 77.3555 134.718 76.9989 134.76L76.1194 134.871L75.1732 135.003C74.6725 135.074 74.165 135.143 73.6689 135.2L72.5762 135.368L71.1841 135.605L70.398 134.638L69.8539 133.91C69.3556 133.221 68.8 132.526 68.2502 131.877C67.9249 131.454 67.5883 131.042 67.2428 130.634C66.8973 130.226 66.7307 129.984 66.4327 129.651C66.1348 129.319 65.9183 129.008 65.6114 128.679L64.9548 127.934C64.6179 127.543 64.2721 127.157 63.9305 126.779L63.3343 126.136L62.7509 125.519L62.0543 124.781L61.9214 124.654L61.1852 123.902C61.1245 123.83 61.059 123.763 60.9892 123.7L60.2395 122.966L59.4918 122.246L59.3589 122.119L59.2585 122.025L58.4013 121.237L57.4741 120.395C56.6426 119.661 55.8042 118.946 54.9434 118.252C54.4365 117.838 53.9142 117.426 53.3939 117.029L53.3411 117.01C52.9039 116.672 52.4578 116.338 52.0137 116.019L51.9477 115.995L51.2717 115.514L50.0308 114.656C49.711 114.447 49.3936 114.232 49.0716 114.03L48.0597 113.385L47.0649 112.775C46.7514 112.591 46.4535 112.404 46.0982 112.212L45.7012 111.991L45.5626 111.941L45.5297 111.93L45.2073 111.749L45.1215 111.719L45.082 111.705C45.0028 111.677 44.917 111.646 44.8451 111.577L44.5709 111.428C44.3604 111.309 44.1433 111.188 43.9479 111.089C43.586 110.895 43.2218 110.707 42.8463 110.53C42.4708 110.352 42.133 110.174 41.7707 110.001C49.6236 110.239 57.0549 110.429 64.2714 110.784L67.7777 110.976C69.3154 111.062 70.8462 111.167 72.3592 111.28C74.3671 111.423 76.368 111.585 78.3574 111.78L79.2758 111.873C80.6881 113.106 82.1135 114.344 83.6042 115.649L86.2802 117.99C87.1925 118.79 88.1181 119.595 89.032 120.431C93.9979 124.61 99.0416 129.197 103.913 133.957Z" fill="#F6D386"/>
<g style="mix-blend-mode:overlay" opacity="0.44">
<path d="M103.913 133.958C101.575 133.815 99.1952 133.73 96.7721 133.703C96.3013 133.689 95.8325 133.691 95.3571 133.69L95.2911 133.667L94.1457 133.669L93.2434 133.678L92.5004 133.677L91.0692 133.71C90.5074 133.722 89.9499 133.744 89.3834 133.769C88.817 133.795 88.4874 133.802 88.0272 133.821L86.6795 133.891L85.6017 133.954L83.8466 134.062C82.8902 134.139 81.9404 134.219 80.9771 134.315L80.0138 134.412L79.0415 134.513L78.0713 134.629C77.717 134.664 77.3557 134.719 76.9991 134.76L76.1196 134.872L75.1734 135.004C74.6726 135.075 74.1652 135.143 73.669 135.201L72.5764 135.369L71.1842 135.605L75.7355 122.254L76.4853 120.019L76.5476 119.843L77.1432 118.168L77.2932 117.745L79.3291 111.724L83.9023 115.397L83.6575 115.5L86.3335 117.841C87.2458 118.641 88.1713 119.446 89.0853 120.283C93.998 124.611 99.0418 129.198 103.913 133.958Z" fill="#5A0037"/>
</g>
<path d="M91.9612 162.339C91.6054 163.507 91.2674 164.668 90.9562 165.815C91.241 164.658 91.5526 163.489 91.9612 162.339Z" fill="#F6D386"/>
<path d="M90.9299 165.807C90.5135 167.334 90.1261 168.842 89.7945 170.319C90.1261 168.842 90.5069 167.332 90.9299 165.807Z" fill="#F6D386"/>
<path d="M102.373 136.827C102.548 136.501 102.714 136.18 102.889 135.854C102.209 137.142 101.528 138.473 100.864 139.839C101.033 139.489 101.197 139.152 101.361 138.816C101.696 138.145 102.036 137.482 102.373 136.827Z" fill="#F6D386"/>
<path d="M103.649 134.428C103.392 134.9 103.142 135.375 102.882 135.854C103.055 135.534 103.212 135.239 103.386 134.898L103.649 134.428Z" fill="#F6D386"/>
<path d="M103.919 133.959C103.859 134.128 103.749 134.272 103.656 134.429L103.913 133.957L103.919 133.959Z" fill="#F6D386"/>
<path d="M89.788 170.317C85.4016 170.671 81.1014 171.074 76.8874 171.527L74.5151 171.803C67.7081 172.596 61.0814 173.614 54.6748 174.995C56.862 166.886 59.79 158.996 63.4231 151.423C65.9315 146.037 68.6307 140.763 71.1922 135.667C72.5448 135.416 73.8588 135.232 75.186 135.053L76.1322 134.921L77.0117 134.809C77.3683 134.767 77.7296 134.713 78.0839 134.678L79.0541 134.562L80.0264 134.461L80.9897 134.364C81.953 134.268 82.9028 134.188 83.8592 134.111L85.6143 134.003L86.6921 133.94L88.0398 133.87C88.5 133.851 88.947 133.827 89.396 133.818C89.845 133.809 90.5201 133.771 91.0819 133.759C92.5243 133.715 93.9485 133.702 95.3526 133.704C95.828 133.704 96.2968 133.703 96.7676 133.716C99.1863 133.742 101.566 133.827 103.908 133.971C102.535 136.454 101.178 139.124 99.8601 141.912C99.7909 142.107 99.7019 142.294 99.593 142.475C99.4545 142.865 99.248 143.216 99.0808 143.603C98.9136 143.99 98.7312 144.356 98.564 144.743C98.0539 145.886 97.5457 147.044 97.0573 148.21C96.9141 148.612 96.7272 148.992 96.5666 149.381C95.6943 151.522 94.8613 153.699 94.0748 155.87C93.9363 156.26 93.7955 156.656 93.657 157.046C93.3061 158.033 92.9645 158.995 92.6622 159.992C92.5237 160.382 92.3852 160.771 92.249 161.155L91.8909 162.33C91.5351 163.498 91.1994 164.652 90.8882 165.799C90.5071 167.332 90.1263 168.843 89.788 170.317Z" fill="#EC9E3A"/>
<g style="mix-blend-mode:overlay" opacity="0.34">
<path d="M89.7879 170.316C85.4014 170.669 81.1012 171.073 76.8872 171.526L74.5149 171.802C67.708 172.595 61.0813 173.613 54.6746 174.994L103.91 133.964C102.538 136.446 101.18 139.117 99.8623 141.904C99.793 142.099 99.704 142.287 99.5952 142.468C99.4567 142.857 99.2502 143.208 99.083 143.595C98.9158 143.982 98.7334 144.349 98.5662 144.736C98.056 145.878 97.5478 147.037 97.0594 148.202C96.9163 148.605 96.7293 148.984 96.5687 149.374C95.6964 151.515 94.8635 153.691 94.077 155.863C93.9385 156.252 93.7977 156.649 93.6592 157.038C93.3083 158.026 92.9667 158.987 92.6643 159.984C92.5258 160.374 92.3873 160.764 92.2511 161.147L91.893 162.322C91.5373 163.49 91.2016 164.644 90.8904 165.792C90.5069 167.331 90.1261 168.842 89.7879 170.316Z" fill="#5A0037"/>
</g>
<path d="M54.67 175.007C50.6472 169.136 46.1029 163.628 41.0915 158.55C40.5448 157.997 40.0026 157.431 39.4466 156.904C35.3728 152.907 31.0459 149.17 26.4926 145.717C26.9279 144.994 27.3722 144.266 27.8342 143.531C28.0631 143.158 28.2921 142.786 28.5275 142.416C28.763 142.046 28.9966 141.661 29.2367 141.278C29.4768 140.895 29.7212 140.521 29.9636 140.132C33.2955 134.834 36.9127 128.943 39.2395 122.395L39.4518 121.797C39.7011 121.096 39.9504 120.394 40.1248 119.673C40.2748 119.251 40.3721 118.81 40.4802 118.381C40.5518 118.179 40.621 117.984 40.6398 117.764C40.7245 117.421 40.7981 117.089 40.8831 116.724C41.3985 114.468 41.7177 112.17 41.8371 109.857L42.915 110.379L43.751 110.808L44.2842 111.085L44.6637 111.293L45.212 111.59C45.8583 111.947 46.5007 112.314 47.1392 112.692L48.1274 113.299C48.4692 113.509 48.8087 113.724 49.1393 113.944C49.4699 114.164 49.7854 114.364 50.1028 114.579C50.5231 114.86 50.9369 115.139 51.346 115.431L52.0221 115.912L52.7526 116.45L53.4085 116.947L54.0556 117.447L55.0127 118.204C55.8662 118.898 56.7054 119.611 57.5303 120.343L58.4641 121.187L59.3213 121.974C59.3562 122.005 59.389 122.039 59.4193 122.075L60.2805 122.893L60.3201 122.907L61.0632 123.639C61.133 123.702 61.1985 123.769 61.2592 123.841L62.002 124.595C62.0488 124.636 62.0925 124.681 62.1326 124.729L62.8338 125.454L63.4149 126.077L64.0088 126.727C64.3503 127.105 64.6984 127.484 65.0353 127.875L65.692 128.62L66.445 129.575C66.7232 129.901 66.9924 130.231 67.2617 130.561C68.6103 132.203 69.9203 133.912 71.1812 135.655C68.6285 140.747 65.9205 146.025 63.4187 151.413C59.7814 158.993 56.8531 166.89 54.67 175.007Z" fill="#F2BE57"/>
<g style="mix-blend-mode:soft-light">
<path d="M89.079 120.258C85.1036 120.089 80.9873 120.024 76.7285 120.025L76.5051 120.026L73.626 120.034C68.4091 120.075 62.9792 120.172 57.5047 120.289L57.4908 120.328C57.5963 131.91 42.7238 155.274 41.0982 158.552C40.5515 157.999 40.0093 157.433 39.4533 156.907C40.5117 155.037 43.9078 149.14 47.4097 142.381C52.9224 131.72 55.7765 123.772 55.076 119.448C55.0093 119.03 54.9426 118.611 54.8825 118.194L54.9666 118.188C60.5721 118.036 66.0915 117.876 71.4571 117.793L74.0314 117.764L74.5712 117.751L75.1749 117.746L77.2599 117.755L78.1975 117.752C80.9549 117.751 83.6631 117.785 86.3331 117.863C87.1946 118.659 88.1317 119.431 89.079 120.258Z" fill="white"/>
<path d="M76.885 171.532C76.1098 171.623 75.3015 171.701 74.5084 171.8C72.6777 161.288 84.7186 138.446 86.7488 133.988L86.6967 133.926C82.2501 129.185 77.8846 124.488 73.6019 120.018L71.4242 117.781C69.0134 115.3 66.6258 112.901 64.263 110.62C65.4385 110.672 66.6081 110.734 67.7716 110.806C69.9889 113.057 72.2657 115.329 74.5382 117.739L76.7021 120.015C80.8663 124.421 85.111 129.061 89.4349 133.728L89.4095 133.8C89.3264 134.034 89.184 134.246 89.0679 134.469C89.2899 134.701 74.7597 161.201 76.885 171.532Z" fill="white"/>
</g>
<path d="M135.079 81.9554C134.71 82.3875 134.327 82.815 133.945 83.2425C120.283 98.4328 97.5893 109.653 84.8391 115.145C84.7547 115.173 84.6722 115.217 84.5944 115.248C82.4712 116.162 80.6291 116.912 79.1654 117.496C78.7762 117.65 78.4136 117.792 78.0801 117.915L76.4966 118.523C75.7761 118.794 75.3872 118.926 75.3872 118.926L74.9947 117.521C74.9386 117.282 74.863 117.013 74.79 116.717C74.4239 115.321 73.9165 113.319 73.3516 110.872C70.8283 99.9456 67.1245 80.1275 69.4387 65.5427C69.5192 65.0445 69.6039 64.5552 69.6995 64.077" stroke="#5A0037" stroke-width="1.3" stroke-linejoin="round"/>
<path d="M75.3939 118.928L86.0031 98.673" stroke="#5A0037" stroke-width="1.3" stroke-miterlimit="10"/>
<path d="M152.427 61.7687C153.733 51.5884 146.136 41.0314 135.989 38.8227C134.79 38.5612 133.569 38.4166 132.345 38.3909C131.161 38.3603 129.978 38.4294 128.808 38.5973C121.507 39.734 114.786 44.7198 112.123 51.5431C111.969 51.9783 111.812 52.42 111.662 52.8422C111.603 52.024 111.5 51.2047 111.404 50.3877C111.111 48.2419 110.619 46.1253 109.935 44.0643C107.914 38.02 104.233 32.5271 98.9201 29.0517C98.5041 28.7794 98.0768 28.5179 97.6492 28.2781C89.8646 23.9169 79.1887 24.3662 73.0297 30.6347C69.6797 34.0386 68.0193 38.4599 67.4417 43.2222C66.9602 47.8585 67.1021 52.5435 67.8637 57.1552C69.9702 71.7016 76.5757 88.2271 83.1135 101.89L83.7098 103.119C88.9347 97.6597 96.3565 94.1957 103.753 91.952C113.538 88.9911 123.867 87.6356 133.224 83.5571C142.581 79.4786 151.138 71.8163 152.427 61.7687Z" fill="#EA5A68"/>
<g style="mix-blend-mode:overlay">
<mask id="mask1_24_8695" style="mask-type:luminance" maskUnits="userSpaceOnUse" x="67" y="25" width="86" height="79">
<path d="M152.427 61.7677C153.733 51.5874 146.136 41.0304 135.989 38.8217C134.79 38.5602 133.569 38.4156 132.345 38.39C131.161 38.3593 129.978 38.4284 128.808 38.5963C121.507 39.733 114.786 44.7189 112.123 51.5421C111.969 51.9774 111.812 52.4191 111.662 52.8413C111.603 52.023 111.5 51.2037 111.404 50.3868C111.111 48.241 110.619 46.1243 109.935 44.0633C107.914 38.019 104.233 32.5261 98.9201 29.0507C98.5041 28.7785 98.0768 28.5169 97.6492 28.2771C89.8646 23.9159 79.1887 24.3653 73.0297 30.6337C69.6797 34.0376 68.0193 38.4589 67.4417 43.2212C66.9602 47.8575 67.1021 52.5425 67.8637 57.1543C69.9702 71.7006 76.5757 88.2262 83.1135 101.889L83.7098 103.118C88.9347 97.6588 96.3565 94.1948 103.753 91.951C113.538 88.9901 123.867 87.6347 133.224 83.5561C142.581 79.4776 151.138 71.8153 152.427 61.7677Z" fill="white"/>
</mask>
<g mask="url(#mask1_24_8695)">
<path d="M143.727 90.2006C136.768 82.4775 132.314 72.8794 130.949 62.6658C130.552 60.3988 130.604 58.0815 131.1 55.8424C131.359 54.7256 131.865 53.6817 132.583 52.7858C133.301 51.8899 134.213 51.1641 135.253 50.6607C137.373 49.7537 140.189 50.3225 141.46 52.2448C141.974 53.1337 142.199 54.1548 142.104 55.1688C142.01 56.1827 141.601 57.1401 140.933 57.9103C140.247 58.6651 139.404 59.2657 138.461 59.6723C137.519 60.0789 136.497 60.2822 135.465 60.2688C130.723 60.3322 126.435 56.6721 124.81 52.2536C123.184 47.8351 123.873 42.8856 125.557 38.5238C127.819 32.7223 131.776 27.7291 136.929 24.173" stroke="#EA5A68" stroke-width="2.2" stroke-miterlimit="10"/>
<path d="M115.914 27.4071C115.264 34.7774 108.061 40.909 100.574 40.4578C96.5952 40.2144 92.9029 38.4121 89.1833 36.9586C85.4636 35.5051 81.3343 34.3888 77.5422 35.5652C74.4765 36.5169 72.0375 38.8838 70.3739 41.5994C68.7102 44.315 67.7359 47.3706 66.7773 50.4026C65.6219 54.0303 64.4979 58.0716 66.1533 61.5277C68.141 65.6799 73.2041 67.2011 77.6485 68.5391C83.2108 70.245 88.7173 72.4214 93.3864 75.8876C98.0556 79.3539 101.865 84.2777 103.026 89.8992C104.187 95.5206 102.484 101.88 97.9117 105.399C92.5381 109.561 84.5839 109.002 78.3894 105.96C73.8214 103.715 69.7299 100.066 68.0495 95.3206C66.3692 90.5754 67.5229 84.6937 71.5853 81.7112C75.6476 78.7287 82.4489 79.7922 84.7207 84.316C86.7715 88.3955 84.5398 93.6087 80.7241 96.0644C76.9085 98.52 71.9688 98.8057 67.4261 98.1205" stroke="#EA5A68" stroke-width="2.2" stroke-miterlimit="10"/>
<path d="M117.349 104.325C113.651 101.2 111.043 97.0039 109.901 92.3438C109.464 90.7698 109.386 89.1227 109.675 87.5226C109.822 86.7242 110.148 85.9702 110.63 85.316C111.112 84.6619 111.737 84.1242 112.46 83.7424C114.609 82.7574 117.158 83.6561 119.264 84.7776C126.188 88.4949 131.642 94.4236 134.726 101.582" stroke="#EA5A68" stroke-width="2.2" stroke-miterlimit="10"/>
<path d="M71.8684 22.6703C74.0981 25.3384 77.0289 27.3487 80.3331 28.4764C83.6374 29.6041 87.185 29.8048 90.5793 29.0561C93.9496 28.2117 97.0061 26.4546 99.4062 23.9816C101.806 21.5086 103.455 18.4174 104.169 15.0542" stroke="#EA5A68" stroke-width="2.2" stroke-miterlimit="10"/>
<path d="M63.7433 65.9475C63.9768 62.1782 65.1055 58.5248 67.0383 55.2828C68.9711 52.0409 71.6536 49.3014 74.869 47.2859C78.0843 45.2704 81.7423 44.0355 85.547 43.681C89.3517 43.3265 93.1962 43.8624 96.7699 45.2454C101.442 47.0519 105.41 50.2107 109.262 53.4452C110.532 54.6413 111.983 55.6334 113.561 56.3848C114.356 56.7451 115.225 56.911 116.094 56.8683C116.963 56.8256 117.807 56.5756 118.553 56.1397C120.367 54.9041 120.792 52.3702 120.36 50.1975C119.928 48.0248 118.847 46.0897 118.178 43.9789C117.397 41.3019 117.357 38.4735 118.065 35.7911C118.772 33.1086 120.2 30.671 122.198 28.7346" stroke="#EA5A68" stroke-width="2.2" stroke-miterlimit="10"/>
<path d="M149.968 82.9301C147.885 79.6884 146.656 75.9893 146.394 72.1734C146.132 68.3574 146.845 64.5471 148.468 61.0932C150.106 57.6956 152.589 54.7663 154.366 51.4398C156.142 48.1133 157.17 44.0303 155.645 40.5621C154.12 37.0939 149.254 34.9769 146.245 37.2731C143.702 39.2443 143.135 43.4325 140.03 44.2238C137.903 44.7703 135.668 43.1564 134.815 41.1417C133.963 39.1269 134.179 36.8478 134.553 34.7057C134.928 32.5636 135.432 30.3941 135.154 28.2471" stroke="#EA5A68" stroke-width="2.2" stroke-miterlimit="10"/>
</g>
</g>
<g style="mix-blend-mode:overlay">
<path d="M145.127 52.3413C149.828 60.8817 144.832 71.1555 137.281 76.1757C132.308 79.7126 126.343 81.6309 120.444 83.0464C111.716 85.1245 102.683 86.3259 94.7651 90.7475C104.551 83.5367 117.402 83.0115 128.476 78.7237C133.906 76.6591 139.12 73.5518 142.572 68.8378C146.023 64.1238 147.397 57.8522 145.136 52.3153L145.127 52.3413Z" fill="#5A0037"/>
</g>
<g style="mix-blend-mode:soft-light">
<path d="M94.9122 32.0888C95.1761 33.9604 90.7797 36.0633 85.0684 36.7845C79.3572 37.5057 74.5654 36.6222 74.3173 34.727C74.0692 32.8318 78.4475 30.759 84.1588 30.0379C89.87 29.3167 94.646 30.2238 94.9122 32.0888Z" fill="white"/>
<path d="M140.631 44.9571C140.897 46.8222 136.499 48.9316 130.79 49.6463C125.081 50.3609 120.276 49.451 120.017 47.5883C119.757 45.7256 124.149 43.6138 129.86 42.8926C135.572 42.1714 140.374 43.0879 140.631 44.9571Z" fill="white"/>
</g>
</svg>
