<svg width="151" height="371" viewBox="0 0 151 371" fill="none" xmlns="http://www.w3.org/2000/svg">
<path d="M-10.1639 370.769C-12.6103 313.088 -0.760756 274.043 25.9963 251.421C33.1443 245.38 41.286 240.721 49.1985 236.181C53.0974 233.931 57.1491 231.602 61.0098 229.154C75.3057 220.073 84.1738 210.322 87.9962 199.425C88.646 197.649 89.1047 195.754 89.3723 193.819C80.6189 197.491 73.5474 198.715 67.0493 197.688C59.9778 196.543 51.8742 191.608 49.6572 183.12C48.09 177.04 50.3834 170.605 55.8495 165.907C62.3094 160.34 71.1775 158.84 77.8668 162.156C88.1109 167.209 92.5449 178.975 92.048 190.068C115.709 178.935 134.553 157.497 142.925 132.033C151.678 105.344 148.658 74.905 134.821 50.5853C129.279 40.8337 121.901 31.7138 114.791 22.9098C101.719 6.72292 88.2256 -9.97716 85.7792 -31.02C83.6004 -50.4837 92.048 -70.5001 107.338 -82.0283L108.676 -80.0938C94.0357 -69.0394 85.9703 -49.931 88.1109 -31.3359C90.4426 -11.0036 103.171 4.74892 116.588 21.37C123.774 30.2531 131.19 39.4519 136.847 49.3614C150.99 74.2339 154.086 105.423 145.142 132.743C136.465 159.235 116.664 181.462 91.8951 192.714C91.5893 195.319 91.0159 197.846 90.175 200.215C86.1232 211.664 76.9876 221.771 62.233 231.167C58.3341 233.654 54.2441 235.984 50.307 238.234C42.5092 242.695 34.4439 247.354 27.4488 253.237C1.26513 275.345 -10.2786 313.72 -7.87049 370.611L-10.1639 370.769ZM70.2601 162.709C65.4056 162.709 60.6658 164.841 57.3785 167.683C52.6387 171.75 50.6128 177.277 51.9506 182.449C53.9001 189.911 61.1627 194.293 67.4697 195.319C73.5474 196.306 80.2749 195.082 88.646 191.569C88.99 191.411 89.3723 191.253 89.7163 191.095C90.4808 180.435 86.3526 168.868 76.9111 164.209C74.7706 163.183 72.4771 162.709 70.2601 162.709Z" fill="white" fill-opacity="0.18"/>
</svg>
