<svg width="80" height="78" viewBox="0 0 80 78" fill="none" xmlns="http://www.w3.org/2000/svg">
<path d="M78.4416 8.85151C77.9065 8.32133 77.1996 8.03987 76.4436 8.04151C74.9185 8.05951 73.6765 9.3146 73.6765 10.8397V29.4419C73.6765 32.3333 72.8878 35.1822 71.3954 37.681C71.3561 37.7464 71.3136 37.8053 71.2661 37.861C71.2465 37.9101 71.222 37.9575 71.1958 38.005C71.1794 38.0344 71.1614 38.0606 71.1467 38.0851C70.6214 38.9066 70.0225 39.6822 69.368 40.3941L59.0654 51.5491C58.8069 51.8273 58.455 51.9697 58.1032 51.9697C57.7858 51.9697 57.4667 51.8551 57.2147 51.6211C56.6845 51.1319 56.6518 50.3039 57.141 49.772L67.4436 38.617C67.977 38.0393 68.4663 37.4077 68.8983 36.7401C68.9212 36.7008 68.9458 36.6615 68.9736 36.6222H68.9752C69.003 36.5813 69.0309 36.5437 69.0636 36.5077C69.08 36.4668 69.098 36.4275 69.1192 36.3882C69.651 35.4048 69.4629 34.2119 68.6512 33.4199C67.6138 32.4102 65.9283 32.4053 64.8876 33.4101C64.6438 33.6604 60.638 37.7808 57.254 41.2597C54.7274 43.8582 52.5478 46.1001 52.5396 46.1082C48.3701 50.4184 46.071 56.3437 46.071 62.7877V71.0726H63.459C63.7078 66.7919 65.4063 62.575 68.1096 59.6148L75.2736 51.7733C77.8525 48.9506 79.2729 45.2901 79.2729 41.4675V10.8397C79.2729 10.087 78.9783 9.38006 78.4416 8.85151Z" fill="white"/>
<path d="M38.8365 75.3908C38.7841 75.2419 38.7596 75.0815 38.7661 74.9179V74.9163C38.5338 74.0834 37.768 73.4697 36.8614 73.4697H12.5221C11.4323 73.4697 10.5454 74.3566 10.5454 75.4465V77.4232H38.8381V75.4465C38.8381 75.4285 38.8381 75.4105 38.8365 75.3925V75.3908Z" fill="white"/>
<path d="M67.4778 73.6909H43.2858C42.4382 73.6909 41.7116 74.2047 41.4302 74.9689V74.9706C41.4482 75.1276 41.4564 75.2847 41.4564 75.4467V77.6182H69.4545V75.5924C69.4545 74.5271 68.5856 73.6909 67.4778 73.6909Z" fill="white"/>
<path d="M16.528 70.8518H34.0764V62.7878C34.0764 56.563 31.6611 50.6378 27.2773 46.1034C27.2707 46.0968 27.0269 45.8432 21.6138 40.1945C18.5587 37.0052 15.358 33.667 15.1093 33.4068C14.0686 32.407 12.3847 32.4103 11.3489 33.4216C10.5373 34.2119 10.3491 35.4048 10.8809 36.3883C10.9022 36.4276 10.9202 36.4668 10.9366 36.5078C10.9693 36.5438 10.9971 36.5814 11.0249 36.6223H11.0266C11.0544 36.6616 11.0789 36.7008 11.1018 36.7401C11.5338 37.4078 12.0231 38.0394 12.5566 38.617L22.8591 49.7721C23.3484 50.3039 23.3157 51.1319 22.7855 51.6212C22.5335 51.8552 22.2144 51.9698 21.8969 51.9698C21.5451 51.9698 21.1933 51.8274 20.9347 51.5492L10.6338 40.3941C9.97766 39.6823 9.37875 38.9067 8.85348 38.0852C8.83711 38.0607 8.82075 38.0345 8.80439 38.005C8.7782 37.9576 8.75366 37.9101 8.73402 37.861C8.68657 37.8054 8.64402 37.7448 8.60475 37.681C7.11239 35.1823 6.32366 32.3334 6.32366 29.4419V10.8397C6.32366 9.31466 5.08166 8.05957 3.55493 8.04157C2.80384 8.03666 2.09366 8.32139 1.55857 8.85157C1.02184 9.38011 0.727295 10.087 0.727295 10.8397V41.4676C0.727295 45.2901 2.14766 48.9507 4.72657 51.7734L11.8906 59.6148C14.548 62.5243 16.2335 66.6463 16.528 70.8518Z" fill="white"/>
<path d="M31.5988 14.9452L34.2481 10.9443C34.4968 10.5696 34.9158 10.3438 35.3674 10.3585C35.8174 10.3683 36.2298 10.6072 36.4621 10.9934L40.049 16.9612L44.9483 10.856C45.1823 10.5647 45.5276 10.388 45.899 10.3683C46.2688 10.3503 46.6338 10.4878 46.8972 10.7529L51.0699 14.9452H55.5928C58.0556 11.2896 57.6023 6.31341 54.4474 3.15851C51.1599 -0.128948 45.8974 -0.482403 42.209 2.33705C41.7394 2.69542 41.0881 2.69542 40.6185 2.33705C38.951 1.06232 36.9628 0.437234 34.9796 0.437234C32.5758 0.437234 30.1818 1.35687 28.3801 3.15851C25.2252 6.31341 24.7719 11.2896 27.2347 14.9452H31.5988Z" fill="white"/>
<path d="M53.2234 17.5635H50.5251C50.1765 17.5635 49.8427 17.4244 49.5973 17.1773L46.0742 13.6362L40.9164 20.0639C40.6676 20.3748 40.2913 20.5531 39.8953 20.5531C39.8658 20.5531 39.8364 20.5531 39.8069 20.5515C39.3798 20.522 38.9936 20.2864 38.7727 19.9199L35.2856 14.119L33.394 16.9777C33.1518 17.3426 32.7411 17.5635 32.3025 17.5635H29.6025L41.2665 29.2259C41.314 29.2733 41.3631 29.3224 41.4138 29.3699C41.4645 29.3224 41.5136 29.2733 41.5611 29.2259L53.2234 17.5635Z" fill="white"/>
<path d="M59.6363 17.5635C60.3595 17.5635 60.9453 16.9777 60.9453 16.2544C60.9453 15.5311 60.3595 14.9453 59.6363 14.9453H58.6037C58.2617 15.6555 57.8428 16.3411 57.3486 16.9875C57.1964 17.1855 57.041 17.3786 56.8806 17.5635H59.6363Z" fill="white"/>
<path d="M21.6729 17.5635H25.947C25.7867 17.3786 25.6312 17.1855 25.479 16.9875C24.9849 16.3411 24.566 15.6555 24.224 14.9453H21.6729C20.9496 14.9453 20.3638 15.5311 20.3638 16.2544C20.3638 16.9777 20.9496 17.5635 21.6729 17.5635Z" fill="white"/>
</svg>
