<svg width="100" height="70" viewBox="0 0 100 70" fill="none" xmlns="http://www.w3.org/2000/svg">
<path d="M99.9801 38.8155C99.8605 36.0461 97.1508 33.8345 91.9107 32.2405C87.8462 31.0251 82.6858 30.2879 77.107 30.1684V8.90918C77.0871 8.55054 76.9874 8.21183 76.8081 7.91297C76.2503 5.50213 73.5605 3.54955 68.7986 2.115C64.3156 0.760148 58.4579 0.0229492 52.3013 0.0229492C46.1646 0.0229492 40.3666 0.760148 35.9633 2.115C32.357 3.23076 28.0335 5.30289 28.0335 8.86933C28.0335 9.0885 28.0534 9.30767 28.0932 9.52683L28.3124 18.6123C15.3616 16.1417 2.8691 24.6494 0.41841 37.5802C0.13947 39.0546 0 40.529 0 42.0234C0 55.1734 10.6993 65.8727 23.8494 65.8727C29.3286 65.8727 34.6284 63.9998 38.8723 60.533C42.5981 61.4097 46.9815 61.8879 51.6238 61.9277C52.64 67.4467 64.5945 69.9771 75.7322 69.9771C81.8689 69.9771 87.6669 69.22 92.0701 67.8452C95.6764 66.7295 100 64.6374 100 61.071V39.1941C100 39.0746 100 38.9351 99.9801 38.8155ZM72.9428 19.9273C72.9428 20.1863 71.9865 21.5611 67.6629 22.8761C63.6183 24.0915 58.0195 24.8088 52.3212 24.8088C47.3999 24.8088 42.5782 24.2907 38.7527 23.3144C38.693 23.2945 38.6531 23.2945 38.5933 23.2746C36.7005 21.7803 34.6085 20.5848 32.357 19.748L32.2176 14.1293C33.5924 14.8267 35.0269 15.3846 36.5212 15.7831C40.8448 17.0383 46.4435 17.7157 52.3212 17.7157C58.4579 17.7157 64.3355 16.9785 68.8185 15.6237C70.3128 15.1853 71.7673 14.6075 73.1421 13.8903V19.1104C72.9229 19.3894 72.9428 19.6484 72.9428 19.9273ZM37.1588 5.96039C41.1835 4.72508 46.5631 4.02773 52.3013 4.02773C57.9996 4.02773 63.5983 4.72508 67.643 5.96039C71.9665 7.27539 72.9229 8.63024 72.9229 8.88926C72.9229 9.1682 71.9466 10.543 67.623 11.8381C63.5784 13.0534 57.9996 13.7508 52.3013 13.7508C46.8022 13.7508 41.582 13.1132 37.6171 11.9576C33.3333 10.7223 32.1379 9.36744 32.0383 8.92911C32.0383 8.88926 32.0183 8.88926 32.0183 8.88926C32.0383 8.5107 32.9548 7.23554 37.1588 5.96039ZM37.2186 56.7275C29.1094 64.0995 16.5372 63.5217 9.16517 55.4125C1.79319 47.3033 2.37099 34.7311 10.4802 27.3591C14.1263 24.0317 18.9081 22.1987 23.8494 22.1987C25.8418 22.1987 27.8143 22.4975 29.727 23.0754C36.6408 25.2272 41.841 30.9654 43.3154 38.0385C43.5744 39.3535 43.7139 40.7083 43.7139 42.0433C43.7338 47.642 41.3628 52.9618 37.2186 56.7275ZM42.2793 57.1658C43.8932 55.1933 45.1883 52.9817 46.1048 50.6107C47.7984 50.7502 49.5517 50.8498 51.3847 50.8697V51.2284L51.5043 57.9827C48.416 57.9429 45.3278 57.6639 42.2793 57.1658ZM47.5991 39.6723C48.7547 39.752 49.9701 39.7918 51.2054 39.8118L51.325 46.865C49.9303 46.845 48.5555 46.7853 47.2405 46.6856C47.5394 45.1515 47.6987 43.5774 47.6987 42.0234C47.6987 41.2463 47.6589 40.4693 47.5991 39.6723ZM52.5005 35.8468C52.4407 35.8468 52.361 35.8468 52.3013 35.8468C50.3885 35.8468 48.5356 35.7671 46.8221 35.6476C46.065 32.9777 44.8695 30.4673 43.2556 28.2357C46.2443 28.6143 49.2528 28.8135 52.2813 28.8135C58.4379 28.8135 64.3156 28.0763 68.7986 26.7215C70.2929 26.2832 71.7274 25.7054 73.1022 25.008V30.2282C64.5547 30.4673 55.7681 32.2604 52.5005 35.8468ZM55.1305 39.0148C55.1305 38.9949 55.1305 38.9749 55.1504 38.9351C55.3297 38.3971 56.7444 37.0821 60.8687 35.9265C64.734 34.8307 69.7748 34.233 75.0747 34.233H75.4134C81.1118 34.233 86.6906 34.8905 90.7551 36.1258C94.999 37.4009 95.9952 38.7159 96.0151 39.0148V39.0347C95.9952 39.3336 94.999 40.7084 90.5758 42.0234C86.4913 43.2387 81.1118 43.8962 75.4334 43.8962C69.9342 43.8962 64.7141 43.2587 60.7492 42.123C56.4654 40.8877 55.2899 39.5129 55.1703 39.0945C55.1305 39.0148 55.1305 39.0148 55.1305 39.0148ZM90.9145 64.0596C86.8898 65.3148 81.4903 66.0122 75.7521 66.0122C69.994 66.0122 64.6145 65.3348 60.6296 64.1194C56.4256 62.8243 55.5489 61.4894 55.5489 61.1905C55.5489 61.1706 55.5489 61.1706 55.5489 61.1507L55.4493 55.3726C57.0432 56.1497 58.697 56.7474 60.4104 57.1857C64.5945 58.2816 69.9143 58.8992 75.3736 58.8992C81.5302 58.8992 87.368 58.162 91.831 56.8072C93.2855 56.3688 94.6802 55.791 96.0151 55.1136V61.0909H96.0351C96.0351 61.3698 95.1185 62.7446 90.9145 64.0596ZM96.055 49.3953H96.0351C96.0351 49.5946 95.9155 49.8337 95.9155 50.0528C95.9155 50.3318 94.9791 51.6866 90.6754 53.0016C86.591 54.2369 81.1516 54.9144 75.3935 54.9144C64.3554 54.9144 56.9237 52.4238 55.3696 50.4912L55.3497 48.8175L55.27 44.2349C56.6647 44.9323 58.1191 45.4902 59.6135 45.9086C63.937 47.1638 69.5358 47.8412 75.4134 47.8412C81.4704 47.8412 87.2485 47.124 91.6916 45.809C93.2058 45.3906 94.6603 44.8128 96.055 44.0955V49.3953Z" fill="white"/>
<path d="M31.1018 44.8523C30.1853 41.6047 27.2166 39.3731 23.8493 39.3731C21.8968 39.3731 20.3028 37.7991 20.3028 35.8465C20.3227 33.874 21.8968 32.3 23.8493 32.3C25.8019 32.3 27.3959 33.894 27.3959 35.8465C27.3959 36.9424 28.2925 37.839 29.3883 37.839C30.4841 37.839 31.3807 36.9424 31.3807 35.8465C31.3807 32.4793 29.1492 29.5106 25.9015 28.5941V27.6975C25.9015 26.6017 25.005 25.7051 23.9091 25.7051C22.8133 25.7051 21.9167 26.6017 21.9167 27.6975V28.5543C17.9119 29.6302 15.521 33.7545 16.5969 37.7593C17.4736 41.0468 20.4423 43.3381 23.8493 43.3381C25.8019 43.3381 27.3959 44.9121 27.3959 46.8647C27.3959 48.8173 25.8219 50.4112 23.8693 50.4112C21.9167 50.4112 20.3227 48.8372 20.3227 46.8846C20.3227 45.7888 19.4262 44.8922 18.3303 44.8922C17.2345 44.8922 16.3379 45.7888 16.3379 46.8846C16.3578 50.2917 18.6292 53.2604 21.9167 54.157V55.8904C21.9167 56.9862 22.8133 57.8828 23.9091 57.8828C25.005 57.8828 25.9015 56.9862 25.9015 55.8904V54.137C29.9063 53.0014 32.2375 48.8571 31.1018 44.8523Z" fill="white"/>
</svg>
