<svg width="34" height="34" viewBox="0 0 34 34" fill="none" xmlns="http://www.w3.org/2000/svg">
<g id="healthcare 1">
<g id="_x31_5093_-_Healthcare">
<g id="Group">
<path id="Vector" d="M31.5223 5.61069C31.3202 5.4104 31.0531 5.30407 30.7675 5.30469C30.1914 5.31149 29.7222 5.78564 29.7222 6.36178V13.3893C29.7222 14.4816 29.4242 15.5579 28.8604 16.5018C28.8456 16.5265 28.8295 16.5488 28.8116 16.5698C28.8042 16.5884 28.7949 16.6063 28.785 16.6242C28.7788 16.6353 28.772 16.6452 28.7665 16.6545C28.568 16.9648 28.3418 17.2579 28.0945 17.5268L24.2024 21.7409C24.1048 21.846 23.9719 21.8998 23.8389 21.8998C23.719 21.8998 23.5985 21.8565 23.5033 21.7681C23.303 21.5833 23.2906 21.2705 23.4755 21.0696L27.3675 16.8554C27.5691 16.6372 27.7539 16.3986 27.9171 16.1464C27.9257 16.1315 27.935 16.1167 27.9455 16.1019H27.9461C27.9567 16.0864 27.9672 16.0722 27.9795 16.0586C27.9857 16.0431 27.9925 16.0283 28.0005 16.0135C28.2015 15.6419 28.1304 15.1913 27.8237 14.8921C27.4318 14.5107 26.7951 14.5088 26.4019 14.8884C26.3098 14.9829 24.7965 16.5395 23.5181 17.8538C22.5636 18.8355 21.7402 19.6824 21.7371 19.6855C20.162 21.3137 19.2935 23.5522 19.2935 25.9866V29.1164H25.8623C25.9562 27.4993 26.5979 25.9062 27.6191 24.7879L30.3255 21.8256C31.2998 20.7592 31.8364 19.3764 31.8364 17.9323V6.36178C31.8364 6.07742 31.7251 5.81036 31.5223 5.61069Z" fill="#F74F22"/>
<path id="Vector_2" d="M16.5605 30.7477C16.5408 30.6915 16.5315 30.6309 16.534 30.5691V30.5684C16.4462 30.2538 16.1569 30.022 15.8144 30.022H6.61957C6.20786 30.022 5.8728 30.357 5.8728 30.7687V31.5155H16.5612V30.7687C16.5612 30.7619 16.5612 30.7551 16.5605 30.7483V30.7477Z" fill="#F74F22"/>
<path id="Vector_3" d="M27.3806 30.1055H18.2414C17.9212 30.1055 17.6467 30.2996 17.5404 30.5883V30.5889C17.5472 30.6482 17.5503 30.7076 17.5503 30.7688V31.5891H28.1274V30.8238C28.1274 30.4214 27.7991 30.1055 27.3806 30.1055Z" fill="#F74F22"/>
<path id="Vector_4" d="M8.13286 29.033H14.7622V25.9866C14.7622 23.635 13.8498 21.3966 12.1937 19.6836C12.1912 19.6811 12.0991 19.5853 10.0542 17.4514C8.90002 16.2465 7.69086 14.9854 7.5969 14.8871C7.20373 14.5094 6.56762 14.5107 6.17631 14.8927C5.8697 15.1913 5.79861 15.6419 5.99951 16.0135C6.00755 16.0283 6.01435 16.0431 6.02053 16.0586C6.0329 16.0722 6.04341 16.0864 6.05391 16.1019H6.05453C6.06504 16.1167 6.07431 16.1315 6.08297 16.1464C6.24617 16.3986 6.43101 16.6372 6.63253 16.8554L10.5246 21.0696C10.7094 21.2705 10.6971 21.5833 10.4968 21.7681C10.4016 21.8565 10.281 21.8998 10.1611 21.8998C10.0282 21.8998 9.8953 21.846 9.79762 21.7409L5.90617 17.5268C5.65828 17.2579 5.43202 16.9649 5.23359 16.6545C5.22741 16.6453 5.22122 16.6354 5.21504 16.6242C5.20515 16.6063 5.19588 16.5884 5.18846 16.5698C5.17053 16.5488 5.15446 16.5259 5.13962 16.5018C4.57584 15.5579 4.27788 14.4816 4.27788 13.3893V6.3618C4.27788 5.78566 3.80868 5.31151 3.23191 5.30471C2.94817 5.30286 2.67988 5.41042 2.47773 5.61071C2.27497 5.81038 2.1637 6.07744 2.1637 6.3618V17.9323C2.1637 19.3764 2.70028 20.7593 3.67453 21.8256L6.38093 24.788C7.38486 25.8871 8.02159 27.4443 8.13286 29.033Z" fill="#F74F22"/>
<path id="Vector_5" d="M13.8263 7.91271L14.8271 6.40125C14.9211 6.25969 15.0793 6.17438 15.2499 6.17994C15.4199 6.18365 15.5757 6.27391 15.6635 6.4198L17.0186 8.67431L18.8694 6.36787C18.9578 6.25784 19.0882 6.19107 19.2286 6.18365C19.3683 6.17685 19.5061 6.22878 19.6057 6.32893L21.182 7.91271H22.8907C23.821 6.53169 23.6498 4.6518 22.4579 3.45995C21.216 2.21802 19.2279 2.08449 17.8346 3.14962C17.6571 3.285 17.4111 3.285 17.2337 3.14962C16.6038 2.66805 15.8527 2.43191 15.1034 2.43191C14.1953 2.43191 13.2909 2.77933 12.6103 3.45995C11.4185 4.6518 11.2472 6.53169 12.1776 7.91271H13.8263Z" fill="#F74F22"/>
<path id="Vector_6" d="M21.9956 8.90161H20.9762C20.8445 8.90161 20.7184 8.84906 20.6257 8.75571L19.2948 7.41797L17.3463 9.84619C17.2523 9.96364 17.1101 10.031 16.9605 10.031C16.9494 10.031 16.9383 10.031 16.9271 10.0304C16.7658 10.0193 16.6199 9.93026 16.5364 9.79179L15.2191 7.60033L14.5045 8.6803C14.413 8.81815 14.2578 8.90161 14.0921 8.90161H13.0721L17.4785 13.3074C17.4965 13.3253 17.515 13.3439 17.5342 13.3618C17.5533 13.3439 17.5719 13.3253 17.5898 13.3074L21.9956 8.90161Z" fill="#F74F22"/>
<path id="Vector_7" d="M24.4182 8.90169C24.6915 8.90169 24.9128 8.68038 24.9128 8.40714C24.9128 8.13391 24.6915 7.9126 24.4182 7.9126H24.0281C23.8989 8.18089 23.7407 8.43991 23.554 8.68409C23.4965 8.75889 23.4378 8.83183 23.3772 8.90169H24.4182Z" fill="#F74F22"/>
<path id="Vector_8" d="M10.0765 8.90169H11.6911C11.6306 8.83183 11.5718 8.75889 11.5143 8.68409C11.3277 8.43991 11.1694 8.18089 11.0402 7.9126H10.0765C9.80322 7.9126 9.58191 8.13391 9.58191 8.40714C9.58191 8.68038 9.80322 8.90169 10.0765 8.90169Z" fill="#F74F22"/>
</g>
</g>
</g>
</svg>
