<svg width="113" height="102" viewBox="0 0 113 102" fill="none" xmlns="http://www.w3.org/2000/svg">
<path d="M71.6616 86.6861C72.6555 83.1182 71.0819 79.1158 68.3604 76.9376C65.6094 74.5828 62.1665 74.0672 58.981 73.7354C57.3625 73.8234 55.8176 73.8083 54.2284 74.0729C52.6761 74.2859 51.1531 74.6755 49.6448 75.1533C48.1366 75.6312 46.7313 76.1827 45.3407 76.8225L43.2366 77.8079L42.2359 78.3374L41.7355 78.6021L41.4854 78.7345L41.3604 78.8007L41.1984 78.9183C39.5652 78.918 37.9688 78.8661 36.4017 78.9909C31.5241 79.3945 26.7347 80.3279 22.0848 81.8278C19.7231 82.6292 17.4276 83.5556 15.1982 84.6072C21.9165 77.2738 28.5683 70.9041 34.8596 65.3657C38.0823 63.4683 41.6801 61.9168 45.3146 60.8581C49.7658 59.5274 54.4449 58.7486 59.1239 58.5142C60.9337 58.4851 62.7949 58.4928 64.6194 58.552L64.9063 58.9126L66.3406 60.7154C67.3556 61.9074 68.3558 63.0111 69.4959 64.1369C71.7246 66.3518 74.3726 68.0885 77.3151 69.4134C80.2429 70.6499 83.5827 71.6364 87.0553 70.6954C90.5058 69.8942 93.5301 67.0772 94.3842 63.4872C95.3781 59.9194 93.8046 55.9169 91.083 53.7388C88.332 51.384 84.8891 50.8683 81.7037 50.5366C80.0852 50.6245 78.5402 50.6095 76.9511 50.874C75.3987 51.0871 73.8758 51.4767 72.3676 51.9546C70.8593 52.4325 69.4541 52.9839 68.0635 53.6237L65.9592 54.6091L64.9585 55.1386L64.4583 55.4033L64.2081 55.5357L64.083 55.6019L63.9211 55.7195C62.2879 55.7192 60.6915 55.6674 59.1245 55.7921C54.2468 56.1957 49.4573 57.1291 44.8075 58.6289C43.6523 59.048 42.4972 59.4671 41.3421 59.8862C57.059 46.9267 69.2654 39.8593 71.8406 38.4326C80.1311 41.6345 89.4523 41.7615 97.6852 38.6218C106.647 35.2248 112.018 29.8848 112.505 24.0878C112.807 20.1813 110.8 16.5687 107.129 14.4124C102.303 11.5864 93.5784 10.9519 83.5938 17.7402C74.5804 23.8225 69.8181 35.2761 69.6267 35.7616L69.5899 35.8131C66.7646 37.3721 58.8845 42.0863 48.2449 50.1178C49.4004 48.0655 50.4159 45.991 51.2771 43.8062C52.8817 39.8191 54.0377 35.5892 54.6345 31.2709C55.0101 28.8947 55.1578 26.5111 55.1656 24.1054L55.2392 24.0024L55.7911 23.23C56.1591 22.7151 56.4756 22.1635 56.792 21.6118C57.4249 20.5084 57.9549 19.3314 58.3965 18.1691C59.2651 15.7563 59.5967 13.1152 59.5752 10.533C59.4139 7.9286 58.767 5.13287 56.9062 2.9475C55.0822 0.71065 51.8895 -0.481835 49.0055 0.179689C46.1068 0.752927 43.6271 3.02569 42.8173 5.79169C41.9707 8.60919 42.5292 11.4196 43.6102 13.8256C44.6911 16.2315 46.1841 18.3873 48.023 20.168C48.9424 21.0584 49.8986 21.8972 50.8401 22.6478L52.2965 23.7664C52.554 23.9504 52.7085 24.0608 52.9291 24.2962C52.9434 26.5621 52.9061 28.7912 52.604 31.0644C51.7196 38.8331 48.9077 46.4689 44.6541 53.0745C38.8339 57.6272 32.3514 63.1067 25.6113 69.491C26.2959 67.3356 26.8554 65.2464 27.2605 63.0468C28.1 58.8241 28.4173 54.4616 28.1901 50.099C28.0876 47.8477 27.8084 45.6259 27.4043 43.4702L27.4632 43.279L27.8091 42.3594L28.4128 40.5351C28.7515 39.2992 29.0901 38.0633 29.289 36.8053C29.6353 34.2526 29.5476 31.5453 29.0331 28.9997C28.4304 26.4688 27.3054 23.798 25.084 21.8995C22.8994 19.9495 19.4786 19.2941 16.6975 20.5736C13.9384 21.7133 11.9662 24.5821 11.767 27.4733C11.5309 30.416 12.6192 33.1382 14.1122 35.2941C15.6566 37.4867 17.4587 39.3189 19.533 40.879C20.5628 41.6149 21.6809 42.3361 22.7843 42.9691L24.4762 43.8669L25.2191 44.2423C25.6454 46.2581 25.8952 48.3034 26.0566 50.3634C26.6583 57.7939 25.4796 65.43 22.918 72.3891C15.1918 79.9356 7.28879 88.6004 -0.533579 98.5673C-1.1002 99.2513 -1.02687 100.237 -0.379593 100.855C-0.328103 100.892 -0.276584 100.929 -0.225094 100.966C0.510469 101.569 1.62141 101.43 2.17334 100.657C5.2346 96.6998 8.33992 93.0073 11.5114 89.4399C15.0285 87.1305 19.1413 85.4025 23.2393 84.1306C27.6905 82.8 32.3696 82.0211 37.0486 81.7867C38.8584 81.7576 40.7196 81.7653 42.5441 81.8245L42.831 82.1851L44.2653 83.9879C45.2288 85.1431 46.2805 86.2836 47.4206 87.4094C49.6493 89.6243 52.2973 91.361 55.2398 92.6858C58.1676 93.9224 61.5073 94.9089 64.98 93.9679C67.7831 93.093 70.8074 90.276 71.6616 86.6861ZM68.6442 55.7499C70.0642 55.2867 71.4474 54.8751 72.8452 54.5517C74.2431 54.2282 75.6925 53.9416 77.083 53.8463C78.4734 53.7509 79.8932 53.8321 81.2984 53.825C83.9909 54.1934 86.8379 54.6722 88.6621 56.3647C90.523 58.0056 91.4274 60.4409 90.8236 62.8097C90.2567 65.127 88.3508 67.032 85.9597 67.6568C83.5465 68.4215 80.7584 67.7514 78.1911 66.7724C75.609 65.7051 73.1448 64.2554 70.9235 62.3568C69.8128 61.4076 68.739 60.4069 67.7019 59.3546L67.209 58.8469C69.0997 59.0312 70.9388 59.1786 72.8589 59.5395C75.1689 59.7901 77.4273 60.5484 79.7299 61.0271C82.0104 61.6456 84.1805 62.4185 86.3874 63.1399L86.5786 63.1987C86.5786 63.1987 86.5787 63.1987 86.6301 63.2355C87.535 63.4932 88.4474 62.9785 88.7419 62.0221C88.9995 61.1173 88.4847 60.2049 87.5284 59.9105C85.1964 59.2552 82.8865 58.4601 80.5177 57.8564C78.1268 57.3924 75.7433 56.7004 73.3451 56.4645C71.6163 56.1625 69.7918 56.1032 68.0409 55.941L68.6442 55.7499ZM51.6055 21.2502C50.7376 20.3966 49.9212 19.5799 49.1415 18.7116C47.5822 16.9751 46.3467 15.0032 45.5011 12.921C44.7437 10.8242 44.3763 8.61705 45.0021 6.6529C45.591 4.74025 47.2539 3.28391 49.1962 2.96061C51.087 2.60051 53.1027 3.26305 54.4413 4.76412C55.7799 6.26519 56.3753 8.47973 56.603 10.6648C56.757 12.9528 56.6462 15.2849 55.9615 17.4403C55.645 18.5364 55.2401 19.6472 54.7838 20.7212C54.747 20.7727 54.7102 20.8241 54.7249 20.9124C54.6662 20.0149 54.6958 19.1027 54.6004 18.2566C54.1966 13.9233 52.9468 9.68555 51.6234 5.55074C51.3661 4.82236 50.5349 4.4617 49.8065 4.71904C49.0781 4.97638 48.7174 5.8076 48.9748 6.53598L48.9895 6.62428C50.4085 10.5163 51.7025 14.4746 52.1651 18.6166C52.3415 19.676 52.3045 20.8163 52.444 21.9272L51.6055 21.2502ZM23.1893 41.3139C22.1742 40.6662 21.2326 39.9156 20.3279 39.1135C18.5331 37.5977 16.9592 35.7729 15.6869 33.8525C14.5028 31.9174 13.7308 29.7322 13.9372 27.7018C14.1436 25.6713 15.4314 23.8692 17.2634 23.1559C19.0954 22.4427 21.2288 22.7227 22.7661 24.0546C24.3917 25.3718 25.3771 27.4761 26.0093 29.6391C26.6048 31.8536 26.8618 34.2153 26.6627 36.562C26.5889 37.7538 26.4267 38.9603 26.2132 40.13L26.2278 40.2183C25.9779 39.2618 25.8163 38.2907 25.5148 37.2975C24.3165 33.0965 22.2648 29.219 20.0879 25.4077C19.7055 24.7455 18.8007 24.4878 18.1017 24.9217C17.4395 25.3041 17.1819 26.209 17.6158 26.908L17.6304 26.9963C19.7632 30.5427 21.7709 34.1553 23.028 38.165C23.4618 39.4084 23.7706 40.718 24.1161 41.9761L23.1893 41.3139ZM96.1703 35.5169C89.4677 38.039 82.0005 38.1477 75.0781 36.079C79.6254 32.328 92.4503 22.9801 108.746 22.4905C108.819 22.932 108.856 23.4248 108.804 23.9325C108.45 28.3465 103.851 32.6052 96.1703 35.5169ZM85.2043 20.6024C93.8424 14.7187 101.17 15.1321 105.135 17.4209C105.789 17.811 106.356 18.2158 106.849 18.7235C107.003 18.8339 107.069 18.9589 107.187 19.1207C93.0026 20.0301 81.6129 26.8255 75.6014 31.3193C77.7357 27.7885 80.9662 23.4854 85.2043 20.6024ZM63.4872 90.7233C61.074 91.4879 58.2859 90.8178 55.7186 89.8389C53.1365 88.7716 50.6724 87.3218 48.451 85.4233C47.3403 84.474 46.2663 83.4732 45.2292 82.421L44.7365 81.9133C46.6272 82.0976 48.4663 82.2451 50.3864 82.606C52.6964 82.8566 54.9547 83.6148 57.2573 84.0935C59.5378 84.7119 61.7079 85.4848 63.9148 86.2062L64.1061 86.2652C64.1061 86.2652 64.1062 86.2652 64.1576 86.302C65.0625 86.5597 65.9748 86.0448 66.2692 85.0885C66.5269 84.1837 66.0121 83.2713 65.0558 82.9768C62.7238 82.3216 60.414 81.5266 58.0452 80.9229C55.6543 80.4589 53.3223 79.8037 50.8726 79.531C49.1438 79.229 47.3193 79.1697 45.5684 79.0075L46.1202 78.7795C47.5401 78.3164 48.9233 77.9047 50.3212 77.5813C51.7191 77.2579 53.1684 76.9713 54.5589 76.8759C55.9494 76.7806 57.3692 76.8617 58.7743 76.8547C61.4669 77.2231 64.3139 77.7018 66.138 79.3943C67.999 81.0353 68.9033 83.4705 68.2996 85.8393C67.8356 88.2302 65.9298 90.1352 63.4872 90.7233Z" fill="#9C847E" fill-opacity="0.4"/>
</svg>
