<svg width="634" height="576" viewBox="0 0 634 576" fill="none" xmlns="http://www.w3.org/2000/svg">
<path d="M631.041 264.271C630.441 260.475 627.964 261.764 627.964 258.613C626.162 259.4 624.736 257.896 623.085 257.681C622.634 255.604 622.184 253.598 621.659 251.736C620.983 251.449 620.308 251.234 619.632 250.948C619.632 250.232 619.632 249.658 619.632 249.085C620.758 244.644 619.257 245.575 620.383 243.212C620.608 242.352 620.908 241.564 621.133 240.704C621.809 240.776 622.484 240.633 623.085 240.561L624.511 241.134C625.187 238.77 626.388 239.988 626.838 236.765C627.213 233.899 625.637 234.257 624.736 235.045C624.211 234.831 623.61 234.616 623.01 234.401C622.935 233.971 622.86 233.613 622.71 233.326C621.884 230.962 620.758 231.464 621.058 230.103C621.358 228.312 621.509 226.521 621.659 224.945C621.959 222.653 619.257 225.16 621.208 221.22C621.358 219.43 620.308 220.361 619.782 220.647C619.557 219.644 619.332 218.57 619.107 217.567C616.93 216.922 615.954 215.633 613.252 218.857C613.102 218.642 613.027 218.212 612.952 217.997C612.651 214.917 612.501 211.622 612.201 208.756L612.952 206.249L613.177 205.39C613.477 200.805 613.702 198.298 612.276 198.871C611.601 199.516 610.925 200.948 610.399 200.805C609.574 200.304 608.823 199.659 607.997 198.943C607.772 196.794 607.622 194.716 607.397 192.496C606.646 193.857 605.821 195.433 605.07 197.009C604.545 196.436 604.094 195.863 603.569 195.504C604.395 192.066 605.596 189.344 607.472 187.983C607.847 186.264 608.223 184.688 608.673 182.969L605.521 181.751C607.022 180.103 608.598 178.456 610.174 176.808C615.053 175.591 618.806 170.505 614.153 170.29C612.801 172.152 611.45 174.015 610.099 175.949C609.424 174.659 608.973 173.656 608.298 172.582C609.274 170.218 610.4 167.854 611.45 165.562C610.4 163.771 611 160.834 608.298 160.333C606.346 161.622 603.794 160.978 601.993 159.473C599.666 156.536 598.615 158.972 597.789 158.757C597.714 158.685 597.639 158.685 597.564 158.614C596.588 158.47 595.537 158.184 594.712 157.897C591.934 156.25 589.082 154.531 586.305 152.883C584.879 151.021 583.678 148.943 580.975 148.012C578.123 147.726 575.421 146.938 572.719 146.078C570.016 145.218 567.314 144.359 564.537 144.072C561.459 143.786 558.532 144.287 555.379 144.717C555.154 144.574 554.779 144.43 554.178 144.287L555.154 143.213C555.154 143.069 555.229 142.998 555.229 142.855C556.58 142.138 554.629 142.067 554.028 141.923L553.878 141.78C553.953 141.565 554.028 141.35 554.028 141.135C557.031 140.276 556.806 139.918 555.379 139.488C555.379 139.488 555.38 139.416 555.455 139.345C556.055 139.13 556.656 138.915 557.331 138.7C556.731 138.342 561.309 138.413 558.532 137.912C557.706 137.267 558.007 136.408 558.307 135.691C558.607 134.975 558.907 134.259 558.082 133.757C558.607 133.399 559.057 133.041 559.433 132.683C563.111 133.041 560.033 132.253 560.634 132.038C559.808 130.892 560.108 129.961 560.859 129.101C562.961 129.746 564.912 130.319 567.089 130.82C568.891 130.104 570.617 129.603 572.343 128.886C573.619 128.671 574.82 128.671 576.096 128.456C581.576 129.603 585.629 131.322 588.256 125.663C590.058 124.803 591.859 123.729 593.811 122.941C597.489 121.938 596.963 119.073 597.564 117.139C596.513 116.064 595.387 115.133 594.261 114.058C594.036 113.485 593.811 112.841 593.736 112.124C594.186 110.119 594.712 108.113 595.312 106.179C595.687 104.746 596.138 103.313 596.663 101.881C598.089 100.591 599.365 99.302 600.942 98.0127C600.792 92.2104 604.92 86.2649 598.24 84.9039C597.264 84.1876 596.438 83.5429 595.537 82.8266C595.687 79.3166 595.913 75.5917 596.213 72.0817C597.114 69.0015 598.014 65.7781 598.915 62.5546C602.968 59.1879 603.944 52.5977 599.365 54.6034C599.065 56.9673 598.69 59.4028 598.39 61.7667C597.114 60.8354 596.063 60.1191 594.937 59.4028C594.637 56.7524 594.562 53.9587 594.487 51.3083C592.61 50.0906 591.784 47.0104 589.007 47.7267C587.806 49.804 585.029 50.3771 582.627 49.6608C579.024 47.7983 579.174 50.592 578.273 50.7353C578.198 50.7353 578.048 50.7353 577.973 50.6636C576.997 50.8785 575.871 51.1651 574.895 51.1651C571.518 50.7353 567.915 50.2338 564.537 49.804C562.36 48.5863 560.334 47.0104 557.331 47.1536C551.626 48.8012 545.396 48.0849 539.767 49.4459C533.311 51.0934 528.808 56.1077 519.35 56.6808C518.524 56.9673 517.699 57.2538 516.948 57.3254C516.348 57.0389 512.144 55.8928 506.064 54.3885C500.209 52.8842 492.628 51.0218 485.047 49.231C485.122 49.0877 485.197 48.9445 485.272 48.8012C475.814 42.8557 466.056 37.0535 455.773 31.681C445.49 26.3086 434.831 21.2227 423.647 16.6382C419.293 20.2199 415.315 22.6554 413.288 19.0021C409.31 24.1596 406.082 17.856 401.203 19.1454C400.753 17.2829 400.152 15.7787 399.552 14.1311C398.501 13.8446 397.525 13.4864 395.949 13.0566C395.273 14.346 394.673 15.4205 394.072 16.8531C395.048 17.7127 396.174 18.5723 397.225 19.5035C396.7 21.1511 396.174 22.6554 395.649 24.3745C394.523 24.0164 393.697 23.8015 392.721 23.4433C392.271 22.3688 392.046 20.8646 390.995 20.3631C388.968 19.9333 386.867 19.6468 384.765 19.2886C383.789 19.3603 384.164 21.5092 383.189 20.6497C379.661 21.366 383.114 15.707 381.612 14.0595C379.285 16.8531 377.334 15.2772 375.457 15.2056C373.956 16.2801 372.755 17.4978 371.479 18.6439C369.002 17.5695 366.9 18.2142 364.874 19.7184C363.973 19.5035 363.222 19.3603 362.321 19.217C361.571 17.6411 360.895 16.1368 359.92 14.5609C359.544 11.9821 359.169 9.2601 358.568 6.68134C357.142 5.89338 355.716 5.17706 354.365 4.1742C352.789 3.17135 347.91 2.31176 341.454 1.38054C338.227 1.02238 334.549 0.735847 330.646 0.449317C326.742 0.23442 322.614 0.162788 318.486 0.0195229C314.357 -0.0521095 310.154 0.0911553 306.251 0.162788C302.272 0.23442 298.519 0.52095 295.142 0.592582C291.764 0.664215 288.761 0.879112 286.434 0.879112C284.032 0.879112 282.306 0.735847 281.33 0.377685C278.027 1.66707 278.478 8.40052 272.548 6.96787C271.722 6.75297 270.972 6.53807 270.221 6.53807C268.87 5.89338 267.669 5.24869 266.168 4.81889C265.267 5.03379 264.441 5.24869 262.64 5.60685C263.165 7.46929 263.616 9.33174 264.141 11.1942C260.989 12.8417 257.836 14.4176 254.758 16.2084C254.608 16.2801 254.308 16.3517 254.233 16.3517C253.557 16.2084 253.032 15.9936 252.582 15.9219C247.628 14.4893 249.955 16.7099 248.829 17.9276L248.378 19.1454C245.076 18.7156 241.848 18.1425 238.62 17.5695C230.514 15.9936 222.557 13.9162 214.676 13.1999C212.799 11.6956 208.971 11.1225 205.593 10.4062C204.617 10.7644 203.567 11.1225 202.591 11.3374C199.814 13.7729 197.111 16.0652 194.334 18.5007L186.753 20.1482C185.852 20.8646 184.726 21.4376 183.825 22.0107C177.896 24.4462 177.971 29.1023 177.896 32.6123C177.896 33.3286 177.896 33.9016 177.971 34.4747C176.544 35.4059 175.043 36.3372 173.467 37.1251C170.765 34.9045 167.987 37.9131 165.36 38.128C165.586 40.5635 165.961 42.9273 166.186 45.3628C164.76 45.0047 163.184 44.6465 161.757 44.4316C161.157 45.0047 160.707 45.5777 160.256 46.0792C160.331 47.7267 160.331 49.0161 160.406 50.5204C162.583 50.8785 164.985 51.2367 167.162 51.38C171.29 54.8899 176.244 52.5977 178.496 55.7495C182.024 54.2453 186.603 55.1048 190.431 54.7467C192.983 56.6091 195.46 58.4716 198.012 60.1191C199.738 60.1191 201.615 60.1191 203.266 60.1191C203.717 60.8354 204.242 61.4085 204.692 61.9816C205.218 66.7809 208.145 65.3483 207.094 68.0703C207.094 69.0015 207.094 69.9328 207.094 70.864C205.518 71.0072 204.017 71.437 202.591 71.7952H198.913C198.988 74.374 195.385 73.6576 196.661 76.9527C197.787 79.8897 201.165 79.0301 202.666 77.8839C204.017 77.8839 205.593 77.8839 207.17 77.8839C207.62 78.2421 208.07 78.6003 208.596 78.8152C212.199 80.8925 214.45 79.9613 214.601 81.3939C215.201 83.2564 216.027 85.1188 216.777 86.7664C217.753 89.2019 222.182 85.6919 220.53 90.348C221.506 92.2104 223.158 90.921 224.208 90.4196C225.409 91.3508 226.685 92.2821 227.886 93.2133C228.487 93.2133 229.012 93.2133 229.463 93.2133C229.163 93.4282 228.787 93.5714 228.487 93.7863C226.986 92.7835 225.56 93.1417 224.133 93.7863C222.707 94.431 221.431 95.2906 220.005 95.5772C220.53 97.7978 221.131 100.018 221.656 102.239C220.155 102.096 218.504 101.952 217.078 101.952C216.552 102.526 216.102 103.099 215.727 103.672C215.727 103.815 215.802 104.03 215.802 104.173C214.676 104.245 213.475 104.388 212.349 104.46C203.116 105.176 193.358 105.892 185.252 106.394C177.145 106.895 170.69 107.11 168.438 106.394C166.411 107.038 165.285 109.116 163.784 110.763C162.283 112.482 160.406 113.7 156.653 112.984C155.677 112.769 154.627 112.554 153.651 112.554C151.999 111.909 150.498 111.265 148.622 110.835C147.496 110.978 146.295 111.193 143.968 111.623C144.343 113.485 144.643 115.419 145.019 117.282L138.338 119.861L131.583 122.654C131.358 122.726 130.982 122.797 130.832 122.797C130.006 122.654 129.331 122.439 128.655 122.368C122.2 121.007 124.902 123.299 123.176 124.66L121.825 126.666C121.149 127.382 120.699 128.027 120.323 128.886C117.846 129.674 115.595 130.82 113.118 131.895C110.04 132.468 107.188 132.969 104.185 133.829C102.309 135.405 100.432 136.837 98.5556 138.413C97.1295 139.345 95.6283 140.133 94.2021 141.064C86.9211 143.499 80.9913 145.362 81.3666 151.379C79.7903 153.241 78.3641 155.462 76.7878 157.539C73.335 160.978 75.812 162.697 76.4876 164.559C78.3641 164.559 80.0905 164.416 81.892 164.416C82.4925 164.702 83.093 164.989 83.6184 165.49C84.4441 167.281 85.0446 169.144 85.6451 171.006C86.1705 172.295 86.5458 173.728 86.9962 175.089C86.3957 177.023 86.0204 178.814 85.3448 180.748C87.0713 182.611 88.0471 185.046 89.248 186.837C89.0979 186.837 88.8727 186.837 88.7226 186.837C82.8678 187.123 77.0881 187.553 75.3617 185.762C74.3859 186.694 75.737 193.212 73.1849 190.992C72.8846 190.705 72.5093 190.347 72.2091 190.204C71.6086 189.416 71.0081 188.556 70.4076 187.911C70.1074 187.911 69.8071 187.983 69.2066 188.055C69.657 189.917 70.1824 191.779 70.6328 193.642L67.7054 196.579C67.6303 196.579 67.5553 196.579 67.4802 196.579C67.18 196.292 66.9548 195.934 66.7296 195.791C64.5528 193.284 65.7538 195.934 65.5286 196.794C65.5286 197.295 65.5286 197.868 65.5286 198.37C65.4536 198.871 65.4536 199.444 65.5286 200.089C64.9281 200.304 64.4027 200.734 63.8773 201.163C63.0516 200.948 62.2259 200.662 61.4753 200.59C61.1751 201.521 60.7998 202.238 60.4995 203.169C60.1993 203.527 59.899 203.814 59.5988 204.172C57.7222 204.1 55.9958 203.241 57.0467 208.685C56.8215 209.759 56.6714 210.977 56.3711 212.051C55.6956 213.556 56.7464 215.991 57.2719 217.854C57.9474 218.642 58.4729 219.286 59.1484 220.074C59.3736 220.576 59.6738 221.077 59.899 221.722C60.4244 223.584 60.8748 225.447 61.4002 227.309C61.7756 228.67 62.0758 230.031 62.4511 231.321C62.5262 232.682 62.6012 234.114 62.6012 235.475C64.4778 240.633 65.4536 246.578 67.4802 246.722C67.9306 247.151 68.381 247.653 68.7563 248.154C69.8071 251.306 70.933 254.673 71.9839 257.825C72.7345 260.69 73.5602 263.698 74.3859 266.779C74.4609 268.999 75.2116 272.223 75.8871 273.727C75.6619 273.87 75.4367 273.942 75.2866 274.085C72.6595 274.228 68.7563 276.306 65.3034 278.097C64.7029 279.028 63.8773 280.031 63.1267 280.89C62.1509 284.687 61.3252 288.268 60.5746 291.993C58.8482 294.142 57.1968 296.434 55.5455 298.655C55.3203 299.873 54.7948 301.019 54.4946 302.093C51.5672 308.182 55.02 311.119 57.422 313.483C57.9474 313.984 58.3978 314.343 58.7731 314.701C58.4729 316.348 58.0225 318.067 57.4971 319.643C53.9692 320.216 54.2694 324.156 52.6931 326.233C54.6447 327.523 56.6714 328.741 58.623 330.102C57.422 330.89 56.1459 331.821 55.1701 332.752C55.2452 333.54 55.3203 334.185 55.4704 334.901C56.7464 335.832 57.7973 336.62 58.9232 337.48C60.5746 336.119 62.301 334.686 63.8022 333.253C64.3276 333.182 64.778 333.039 65.2284 332.967C65.4536 333.397 65.7538 333.898 65.6787 334.328L66.0541 335.904C66.1291 336.477 66.2042 336.978 66.4294 337.695C65.7538 338.268 65.2284 338.912 64.6279 339.629C63.502 339.844 62.4511 339.987 61.4002 340.345C61.2501 341.42 61.0249 342.351 60.8748 343.425C60.5746 343.998 60.1993 344.357 59.9741 344.93C57.4971 345.861 55.1702 346.076 57.9474 350.947C57.9474 352.164 58.0975 353.525 58.0225 354.743C57.5721 356.606 59.5988 358.54 60.7247 360.116C61.7005 360.545 62.6763 360.832 63.6521 361.262C64.1025 361.62 64.5528 361.978 65.0783 362.479C66.2042 364.055 67.3301 365.631 68.456 367.207C69.2817 368.353 70.0323 369.5 70.858 370.717C71.3084 372.078 71.8338 373.368 72.2091 374.8C72.5093 375.158 72.8846 375.517 73.1849 375.946C73.1098 376.09 73.0348 376.233 72.9597 376.376C71.1582 376.376 69.4318 376.591 67.5553 376.806C65.5286 376.161 63.577 375.445 61.5504 375.015C59.899 375.946 58.2477 376.663 56.6714 377.451C55.5455 377.737 54.4195 377.737 53.2936 378.024C48.2645 376.806 44.5865 374.944 42.0344 381.605C40.383 382.68 38.6566 383.969 36.7801 384.972C33.3273 386.19 33.7026 389.557 33.1021 391.92C34.0779 393.138 35.0537 394.213 36.0295 395.43C36.2547 396.147 36.4048 396.791 36.4799 397.723C36.0295 400.086 35.429 402.45 34.7534 404.743C34.3781 406.462 33.8527 408.109 33.3273 409.829C31.9011 411.404 30.7001 412.98 29.1238 414.485C29.1238 415.344 29.0488 416.204 28.8986 417.063C28.073 417.636 27.2473 418.138 26.4967 418.568C21.3925 420.358 20.3416 425.731 19.4409 429.814C19.2908 430.674 19.1407 431.318 18.9905 431.963C17.6394 432.751 16.1382 433.539 14.712 434.112C13.1357 431.032 10.1333 433.897 7.95651 433.539C7.43108 436.333 6.98071 439.198 6.45528 441.991C5.40442 441.275 4.2785 440.487 3.15258 439.914C2.47703 440.416 1.9516 440.917 1.35111 441.49C0.825676 443.424 0.450369 444.857 0 446.576C1.72641 447.507 3.60295 448.51 5.40442 449.226C6.68047 451.662 8.557 452.521 10.2834 453.309C12.0098 454.026 13.5111 454.67 14.1115 456.676C17.6394 455.673 21.4676 457.607 25.1456 457.751C25.7461 458.61 26.4216 459.398 27.0972 460.258C25.5209 463.839 25.8962 467.278 29.1989 465.559C29.274 464.771 29.4241 464.054 29.4991 463.266C30.0246 463.911 30.55 464.556 31.1505 465.2C32.1263 465.344 33.1021 465.487 34.0779 465.63C34.0779 466.848 34.153 468.137 34.153 469.355C35.8043 470.573 36.63 473.366 38.6566 473.581C38.9569 474.083 39.107 474.656 38.5065 475.802C38.3564 476.876 38.2813 477.951 38.1312 479.025C36.5549 479.025 34.9786 479.24 33.5525 479.455L29.8744 478.882C29.4241 481.891 26.0463 480.458 26.7219 484.541C27.3224 488.194 30.8502 487.693 32.5767 486.618C34.0028 486.833 35.5041 487.048 37.0803 487.263C37.5307 487.765 37.906 488.266 38.3564 488.553C41.6591 491.418 44.1361 490.63 44.0611 492.421C44.4364 494.641 45.0369 496.934 45.5623 499.011C46.2378 501.948 51.1919 498.366 48.9401 503.595C49.6907 505.888 51.5672 504.527 52.7682 504.025C53.9692 505.243 55.0951 506.461 56.2961 507.75C62.0007 508.18 65.0783 509.541 69.5069 504.956C69.9573 505.243 70.4076 505.673 70.858 505.959C73.4101 509.684 75.812 513.696 78.4392 517.206C78.3641 518.28 78.2891 519.354 78.214 520.501C78.214 520.716 78.1389 521.145 78.1389 521.575C80.2407 527.234 81.5167 530.457 84.369 529.383C85.495 528.38 86.2456 526.446 87.5216 526.589C89.7735 527.019 91.9502 527.664 94.2021 528.309C96.0036 530.959 97.6549 533.394 99.4564 536.045C100.357 534.182 101.258 532.033 102.008 529.956C103.51 530.529 105.011 531.102 106.362 531.46C106.512 535.902 105.461 539.483 102.008 541.561C102.159 543.781 102.309 545.787 102.309 547.936C130.081 550.586 157.779 553.595 185.402 556.89C189.005 551.159 192.758 547.005 196.211 550.729C199.213 543.208 204.692 550.013 209.797 547.148C210.772 549.225 211.823 550.944 212.874 552.807C214.075 552.95 215.276 553.093 217.078 553.308C217.528 551.589 218.053 550.085 218.354 548.151C217.078 547.291 215.651 546.503 214.225 545.644C214.45 543.495 214.676 541.489 214.901 539.34C216.252 539.483 217.303 539.626 218.504 539.77C219.329 540.987 219.855 542.85 221.206 543.208C223.608 543.28 226.085 543.208 228.562 543.28C229.688 542.993 228.862 540.486 230.138 541.274C234.117 539.841 231.039 547.363 232.916 549.154C235.167 545.285 237.569 546.933 239.746 546.718C241.322 545.142 242.523 543.566 243.95 541.99C246.877 543.065 249.279 542.062 251.531 539.913C252.582 540.056 253.482 540.2 254.533 540.343C255.509 542.205 256.41 544.139 257.536 546.073C258.061 549.225 258.587 552.592 259.262 555.815C260.838 556.675 262.415 557.606 263.916 558.681C265.717 559.827 270.897 560.973 277.802 562.119C284.708 563.337 293.34 564.555 301.972 565.916C319.161 568.566 336.275 571.574 339.428 574.511C343.031 574.01 345.057 565.916 350.312 569.927C350.987 570.5 351.663 571.073 352.413 571.36C353.464 572.649 354.365 573.867 355.566 575.013C356.467 575.156 357.367 575.299 359.169 575.586C359.544 573.222 359.92 570.858 360.22 568.423L371.479 567.062C371.629 567.062 371.929 567.133 372.079 567.133C372.605 567.635 372.98 568.208 373.431 568.494C377.184 572.721 376.283 568.996 377.934 568.136L379.586 566.417C380.261 565.844 380.862 565.342 381.387 564.555C383.339 564.698 385.215 564.555 387.242 564.483C389.419 565.342 391.445 566.13 393.622 566.775C395.424 565.987 397.225 565.414 399.026 564.626C400.303 564.411 401.504 564.411 402.78 564.196C408.259 565.629 412.162 567.706 415.09 561.116C416.966 560.113 418.843 558.896 420.869 557.964C424.622 556.89 424.247 553.452 424.923 551.159C423.947 549.87 422.821 548.795 421.845 547.506C421.62 546.79 421.47 546.073 421.47 545.214C421.995 542.85 422.746 540.558 423.421 538.265C423.872 536.546 424.472 534.899 425.073 533.251C426.574 531.747 427.925 530.243 429.577 528.738C429.802 521.862 434.305 514.913 427.7 513.266C426.724 512.406 425.974 511.618 425.148 510.759C425.373 508.323 425.598 505.744 425.898 503.237C428.075 500.945 428.901 497.65 429.727 494.999C429.952 494.14 430.102 493.495 430.252 492.851C431.678 492.134 433.255 491.418 434.831 490.988C436.407 494.14 439.635 491.489 441.962 491.848C442.562 489.054 443.163 486.26 443.763 483.467C444.889 484.255 446.09 485.043 447.216 485.544C447.967 485.043 448.492 484.541 449.092 484.04C449.618 482.177 450.068 480.673 450.594 479.025C448.792 478.094 446.916 477.091 445.039 476.303C442.637 471.289 437.533 472.579 436.482 468.424C434.681 468.854 432.879 468.495 431.003 467.922C429.201 467.421 427.325 466.705 425.523 466.561C423.797 463.911 421.92 461.261 420.119 458.825C418.543 458.467 416.816 458.109 415.24 457.751C415.015 456.819 414.714 456.031 414.414 455.315C415.09 449.656 412.012 450.731 413.663 447.722C413.889 446.719 414.039 445.716 414.264 444.785C418.993 445.931 423.572 447.006 428.15 447.436C429.652 448.797 432.654 449.298 435.281 449.943C435.957 449.585 436.857 449.226 437.533 449.011C439.56 446.648 441.511 444.427 443.613 442.135L449.318 440.416C449.993 439.699 450.819 439.198 451.494 438.625C455.848 436.261 455.623 431.891 455.473 428.596C455.398 427.88 455.398 427.378 455.398 426.877C456.373 425.946 457.499 425.086 458.625 424.37C460.802 426.447 462.679 423.582 464.705 423.367C464.63 423.009 464.63 422.651 464.555 422.364C465.005 422.364 465.456 422.293 465.906 422.293C467.182 421.72 468.383 421.146 471.01 419.857C470.185 418.281 469.359 416.705 468.608 415.129C470.71 416.705 472.662 418.281 474.463 419.714C476.265 421.218 477.916 422.651 479.192 423.868C480.393 425.086 481.219 426.089 481.444 426.877C484.071 427.593 488.425 422.436 490.451 426.877C490.752 427.45 490.977 428.095 491.352 428.525C491.577 429.742 491.802 430.96 492.253 432.106C492.853 432.464 493.379 432.894 494.58 433.61C495.631 431.963 496.757 430.387 497.807 428.74C500.66 429.527 503.362 430.315 506.289 431.032C506.364 431.103 506.59 431.247 506.665 431.247C506.89 431.82 506.965 432.249 507.19 432.608C508.616 436.834 509.142 433.825 510.568 433.682L512.369 432.894C513.045 432.679 513.645 432.393 514.321 431.963C515.747 432.608 517.173 433.037 518.749 433.539C520.176 434.757 521.527 435.903 523.103 436.977C524.754 436.834 526.256 436.906 527.907 436.762C528.958 436.906 529.934 437.192 531.06 437.335C533.011 438.553 534.813 439.771 536.539 440.129C538.265 440.487 539.917 439.986 541.793 437.765C543.52 437.407 545.321 436.762 547.198 436.404C550.5 436.261 550.726 433.467 551.701 431.82C551.101 430.602 550.5 429.599 549.9 428.381C549.9 427.808 549.9 427.235 550.05 426.519C550.951 424.8 551.927 423.081 552.827 421.433C553.503 420.215 554.254 418.997 555.004 417.78C556.355 416.849 557.631 415.846 559.057 414.914C560.484 409.614 564.687 404.743 560.709 402.594C560.258 401.806 559.883 401.089 559.583 400.373C560.709 397.221 561.91 393.926 563.111 390.774C564.537 388.124 566.038 385.33 567.464 382.537C570.692 379.958 572.944 374.012 570.092 375.445C569.191 377.522 568.29 379.671 567.464 381.749C567.014 380.746 566.714 380.101 566.263 379.241C566.939 376.806 567.765 374.299 568.59 371.935C567.99 370.646 568.59 367.78 566.939 368.138C565.588 369.858 563.936 369.929 562.961 368.998C561.76 366.921 560.784 369.356 560.258 369.356C560.183 369.356 560.183 369.285 560.108 369.285C559.508 369.356 558.832 369.356 558.307 369.213C556.656 368.282 554.929 367.279 553.278 366.276C552.602 364.772 552.227 363.124 550.5 362.694C548.624 362.838 546.897 362.408 545.171 361.906C543.445 361.405 541.793 360.832 539.917 360.76C535.563 360.545 530.684 363.626 525.055 361.548C524.454 361.548 523.854 361.548 523.328 361.405C523.253 361.19 522.728 360.617 521.977 359.758C521.977 359.686 521.977 359.543 521.977 359.471C521.827 359.399 521.677 359.328 521.527 359.256C521.377 359.113 521.302 358.969 521.151 358.826C521.226 358.253 521.302 357.752 521.302 357.25C522.202 353.167 521.602 353.74 522.127 351.95C522.352 352.952 522.578 353.955 522.803 354.958C523.478 355.531 524.079 356.033 524.754 356.749C527.757 359.614 550.2 357.179 553.128 361.118C554.329 360.259 554.028 353.669 556.355 356.176C556.656 356.534 556.956 356.892 557.256 357.035C557.781 357.895 558.232 358.826 558.832 359.543C559.133 359.543 559.508 359.543 560.183 359.614C560.033 357.68 559.808 355.818 559.658 353.884C560.934 353.096 562.135 352.236 563.411 351.448C563.486 351.448 563.561 351.448 563.636 351.448C563.861 351.806 564.087 352.164 564.237 352.308C566.113 355.173 565.288 352.379 565.738 351.52C565.888 351.018 565.963 350.517 566.113 349.944C566.263 349.442 566.414 348.941 566.489 348.225C567.164 348.081 567.84 347.723 568.515 347.437C569.341 347.795 570.167 348.153 570.992 348.368C571.518 347.508 572.043 346.864 572.569 346.004C572.944 345.646 573.394 345.503 573.845 345.216C575.946 345.646 577.523 346.72 577.748 341.205C578.273 340.202 578.724 338.984 579.324 337.981C579.774 337.408 580 336.692 580 335.832C580.075 335.761 580.225 335.761 580.3 335.689C581.726 333.898 583.152 332.179 584.578 330.388L586.68 329.815C587.13 329.314 587.581 328.956 587.956 328.597C590.058 327.236 591.859 323.225 593.21 320.216C593.511 319.572 593.736 319.07 593.886 318.641C594.562 317.996 595.237 317.423 595.838 316.993C595.537 319.285 597.264 317.065 597.864 317.279C598.765 315.202 599.666 313.053 600.566 310.976C600.717 311.477 600.942 311.979 601.167 312.337C601.542 311.907 601.843 311.549 602.143 311.119C602.818 309.686 603.344 308.54 603.944 307.323C603.644 306.678 603.269 306.033 602.818 305.603C603.344 302.022 601.317 303.24 602.068 300.231C600.717 301.019 600.041 299.586 598.99 299.371C599.14 297.437 599.215 295.503 599.29 293.641C598.915 293.426 598.465 293.139 598.089 292.924C598.24 292.208 598.315 291.635 598.465 291.134C598.765 290.417 598.915 289.916 599.065 289.414C600.041 290.274 600.942 291.062 601.993 291.635C602.293 293.283 603.569 294.285 604.62 295.432C605.07 295.217 605.596 295.073 605.971 295.002C607.697 293.211 609.349 291.492 611.15 289.701L614.453 289.271C614.978 288.77 615.579 288.412 616.104 288.053C619.032 286.764 620.308 282.538 621.358 279.386C621.584 278.741 621.734 278.24 621.884 277.738C622.71 277.094 623.535 276.521 624.361 276.091C624.736 278.526 626.688 276.234 627.739 276.449C628.339 274.228 628.865 272.008 629.465 269.787C629.915 270.36 630.366 270.862 630.891 271.291C631.267 270.862 631.642 270.432 631.942 270.002C632.392 268.498 632.768 267.28 633.143 265.991C632.618 265.418 631.867 264.773 631.041 264.271Z" fill="#122F2A"/>
</svg>
