<svg width="112" height="130" viewBox="0 0 112 130" fill="none" xmlns="http://www.w3.org/2000/svg">
<path id="Vector" d="M55.9005 129.437L53.5005 126.237C28.2005 91.9373 12.1005 68.5372 4.90049 50.5372C-5.49951 24.5372 4.10051 12.5372 8.80051 8.6372C16.9005 1.7372 29.5005 1.33729 40.2005 7.73729C47.5005 12.1373 53.0005 20.7372 56.3005 29.4372C66.1005 5.73725 80.5005 -1.46271 91.4005 0.237295C103 1.93729 111.201 13.0373 111.301 27.2373C111.601 58.4373 85.9005 91.2372 63.2005 120.137L55.9005 129.437ZM24.3005 9.1372C19.9005 9.1372 15.8005 10.4372 12.7005 13.1372C5.00047 19.6372 4.20046 32.4373 10.5005 48.2373C17.3005 65.1373 32.3005 87.2372 56.0005 119.437L58.4005 116.337C79.4005 89.6373 105.5 56.3373 105.2 27.2373C105.1 16.1373 99.0005 7.4372 90.5005 6.1372C81.2005 4.7372 67.3005 12.8372 58.8005 39.9372L55.3005 51.1372L53.0005 39.6372C51.1005 30.2372 45.3005 17.8373 37.0005 12.8373C32.9005 10.4373 28.5005 9.1372 24.3005 9.1372Z" fill="#3CCFB4"/>
</svg>
