<svg width="100" height="180" viewBox="0 0 100 180" fill="none" xmlns="http://www.w3.org/2000/svg">
<g id="Group 1410097613">
<path id="Vector" d="M1.04469 180L-27.9511 129.327C-31.4864 123.261 -32.7461 116.489 -31.5742 109.848C-30.4023 103.208 -26.8502 96.9926 -21.3583 91.9721C-18.336 89.238 -14.7588 86.9425 -10.7813 85.185C2.3411 79.3967 20.5702 78.257 27.0208 67.3463C32.1749 58.6255 27.416 46.4343 36.2539 39.9545C42.2301 35.5492 51.3526 36.292 59.3525 35.4084C79.9057 33.1417 96.6803 16.827 95.7159 0C104.285 10.7057 98.5617 24.9843 91.0993 36.2279C83.6369 47.4715 74.1983 59.1377 76.2378 71.79C77.5975 80.2803 84.048 88.681 80.8543 96.8512C77.5342 105.354 65.5027 109.132 58.151 115.778C47.8744 125.088 47.7479 138.919 42.3408 150.61C35.5741 165.055 19.3687 175.966 1.04469 180Z" fill="#E98EAB"/>
<g id="Vector_2" style="mix-blend-mode:overlay">
<path d="M12.1648 150.434C14.5329 146.753 16.8076 143.029 18.9888 139.263C23.9546 135.58 29.1552 132.115 34.5689 128.883C40.3548 125.528 46.3623 122.438 52.5639 119.624C39.5514 123.184 28.0605 129.726 19.4563 138.473C24.3173 130.056 28.7108 121.461 32.637 112.687C36.1811 109.191 40.0345 105.914 44.1662 102.881C47.9995 100.164 52.0206 97.6308 56.2097 95.2928C47.0115 98.2071 39.1601 103.407 33.7588 110.162C36.8748 102.97 39.6896 95.6966 42.2031 88.3427C48.0616 83.4165 55.2263 79.6596 63.1428 77.3628C59.081 77.5631 55.1289 78.5211 51.5888 80.1633C48.0486 81.8055 45.0141 84.0886 42.7173 86.8379C46.8849 74.2992 50.0954 61.5604 52.3302 48.6953C50.2528 57.197 47.8587 65.6263 45.1478 73.9834C45.0446 71.3857 44.209 68.8427 42.7063 66.5531C41.2036 64.2635 39.0745 62.2892 36.4853 60.7846C40.5695 65.4267 43.2402 70.8 44.2753 76.4574C41.5852 84.6955 38.6353 92.8741 35.4258 100.993C35.3545 97.3513 34.2008 93.7786 32.0645 90.5835C29.9282 87.3885 26.8734 84.6673 23.1643 82.6551C27.8987 87.0313 31.4506 92.1765 33.5874 97.754C34.1171 99.1951 34.5689 100.674 34.9429 102.179C30.487 113.299 25.5481 124.283 20.1262 135.131C20.5211 132.821 20.6359 130.485 20.469 128.156C19.8483 118.937 15.2233 110.204 7.42847 103.531C12.0078 109.096 15.4249 115.246 17.5399 121.729C18.952 126.421 19.6996 131.23 19.7679 136.062C17.2906 140.883 14.7822 145.678 12.1648 150.434Z" fill="#5A0037"/>
</g>
<g id="Vector_3" style="mix-blend-mode:overlay" opacity="0.5">
<path d="M0.901699 180L-28.1607 129.334C-28.6203 128.54 -29.0482 127.721 -29.4285 126.914L-11.7597 157.644C6.6064 153.675 22.8332 142.753 29.5838 128.323C35.035 116.633 35.1617 102.804 45.4302 93.4955C52.7989 86.8502 64.8581 83.0602 68.2017 74.5583C71.3709 66.402 64.9214 58.0026 63.5586 49.5134C62.8705 44.307 63.7121 39.0428 66.0148 34.1485C83.446 29.5262 96.6143 14.9424 95.6952 0C104.3 10.7042 98.5635 24.9808 91.0681 36.2228C83.5727 47.4648 74.2233 59.1549 76.2675 71.8054C77.6303 80.2945 84.0956 88.694 80.8946 96.863C77.5669 105.365 65.5077 109.142 58.1391 115.787C47.8389 125.096 47.7122 138.924 42.2927 150.615C35.5104 165.058 19.2836 175.967 0.901699 180Z" fill="#5A0037"/>
</g>
</g>
</svg>
