<svg width="230" height="187" viewBox="0 0 230 187" fill="none" xmlns="http://www.w3.org/2000/svg">
<path d="M-125 59.1232L-98.8006 0.658352L-97.8084 1.17543C-94.9912 2.65526 -91.1268 4.78547 -86.416 7.33122C-48.2237 28.1049 53.2127 83.3058 77.0561 71.748C88.9778 65.9691 118.798 66.7621 142.795 67.4086C156.738 67.7881 168.804 68.0874 174.074 67.0802C177.356 66.4136 178.924 67.9496 179.559 68.9224C180.948 71.0299 180.588 74.5637 178.797 76.7679C173.234 83.5488 157.83 84.7241 145.441 85.6567C139.946 86.056 131.608 86.7392 131.408 87.9537C131.408 87.9537 131.37 88.8062 135.322 91.084C143.524 95.7379 159.264 99.2772 175.912 103.007C193.565 106.969 211.814 111.053 223.783 117.032C227.378 118.825 228.335 122.152 227.676 124.646C226.964 127.261 224.388 129.765 220.112 129.407C220.112 129.407 219.657 129.312 218.903 129.118C191.81 122.665 171.822 118.961 164.014 118.975C162.097 118.986 161.098 119.081 160.58 119.212C162.922 120.986 173.393 124.845 183.564 128.606C195.24 132.932 209.782 138.29 223.377 144.31C226.562 145.737 228.733 147.978 229.492 150.636C230.095 152.79 229.662 154.951 228.301 156.623C224.923 160.833 220.359 158.897 214.031 156.206C212.743 155.665 211.36 155.081 209.868 154.485C205.742 152.853 200.369 150.591 194.691 148.155C181.62 142.587 159.741 133.29 157.416 134.892C157.82 137.32 174.265 145.087 186.279 150.797C199.438 157.02 211.879 162.885 215.918 166.76C217.896 168.661 218.21 171.373 216.651 173.573C215.051 175.863 211.174 177.603 205.595 175.03L205.372 174.93C202.615 173.658 177.07 161.958 176.783 161.829C146.144 148.099 143.97 151.327 143.903 151.478L143.889 151.508C143.254 152.926 149.264 160.51 171.522 174.252C173.858 175.697 179.29 179.109 176.623 184.036C175.919 185.351 174.795 186.151 173.27 186.482C166.066 187.963 150.5 177.039 135.421 166.478C130.353 162.939 125.557 159.558 121.136 156.708C115.535 153.075 110.525 149.236 105.249 145.133C94.3757 136.71 83.115 128.041 66.2748 121.581C25.5371 106.659 -12.9734 94.6175 -53.6941 81.8759C-76.4375 74.7632 -99.9539 67.4128 -123.768 59.5307L-125 59.1232ZM-97.7548 3.44546L-122.183 57.9584C-98.7654 65.6994 -75.6128 72.923 -53.2468 79.939C-12.4942 92.6949 26.0162 104.736 66.8495 119.702C83.9898 126.26 95.3827 135.06 106.416 143.554C111.672 147.613 116.638 151.468 122.156 155.028C126.609 157.893 131.405 161.273 136.506 164.827C150.514 174.618 166.404 185.76 172.677 184.478C173.607 184.279 174.274 183.816 174.702 183.031C175.943 180.688 174.804 178.621 170.393 175.919C163.063 171.366 139.445 156.218 141.946 150.637C141.973 150.577 141.987 150.547 142.014 150.487C142.704 149.202 144.789 145.318 177.563 160.005C177.754 160.09 199.49 170.048 206.183 173.12L206.406 173.22C210.806 175.264 213.727 174.038 214.921 172.399C215.883 171.019 215.714 169.349 214.478 168.18C210.704 164.568 197.817 158.504 185.422 152.623C165.355 143.123 155.843 138.317 155.432 135.054C155.338 134.324 155.609 133.72 156.17 133.32C159.188 131.194 173.705 137.12 195.507 146.419C201.198 148.825 206.558 151.118 210.62 152.721C212.112 153.317 213.527 153.915 214.847 154.47C221.366 157.247 224.327 158.32 226.693 155.432C227.652 154.231 227.955 152.701 227.531 151.17C226.965 149.105 225.228 147.349 222.635 146.223C209.135 140.246 194.638 134.873 182.948 130.576C162.275 122.942 157.871 121.077 158.189 118.829C158.385 117.54 159.964 117.088 163.984 117.078C174.886 117.073 203.383 123.468 219.386 127.27C219.968 127.422 220.314 127.505 220.391 127.503C223.563 127.765 225.25 125.877 225.712 124.164C226.12 122.572 225.675 120.235 222.945 118.903C211.217 113.068 193.078 108.996 175.565 105.061C158.744 101.29 142.832 97.7098 134.356 92.8973C130.582 90.7353 129.073 89.1533 129.39 87.5927C129.921 85.0414 134.885 84.5486 145.225 83.7487C156.583 82.8975 172.142 81.719 177.189 75.5764C178.465 74.0106 178.778 71.4341 177.869 70.0486C177.284 69.1345 176.184 68.8588 174.641 69.1452C169.143 70.2319 156.981 69.8897 142.916 69.5278C119.183 68.8907 89.626 68.1071 78.1532 73.6525C53.3349 85.679 -45.2158 32.0611 -87.2725 9.15714C-91.5693 6.79695 -95.065 4.86819 -97.7548 3.44546Z" fill="#F74F22"/>
</svg>
