<svg width="100" height="100" viewBox="0 0 100 100" fill="none" xmlns="http://www.w3.org/2000/svg">
<g id="dog (1) 1">
<g id="Group">
<path id="Vector" d="M83.3586 51.8608C85.0657 44.0301 80.6484 19.9695 72.0721 10.8856C66.046 6.41396 58.0466 5.53428 49.9999 7.4198C40.8892 5.28499 31.8375 6.69143 25.6439 12.8472C17.8085 20.6345 12.3786 43.384 14.2266 51.8608C15.9391 59.716 26.8661 72.3554 38.2075 78.4222C59.3711 85.662 81.0411 62.4916 83.3586 51.8608Z" fill="#E0BBA4"/>
<path id="Vector_2" d="M74.356 12.8473C73.6327 12.1284 72.8691 11.4769 72.0723 10.8857C78.8934 20.2912 83.054 42.0181 81.3468 49.8489C79.0292 60.4797 59.0164 81.1994 38.2075 78.4224C42.2162 80.5666 46.2763 81.8914 49.9999 81.8914C64.2588 81.8914 83.4556 62.4924 85.7731 51.861C87.6214 43.3841 82.1914 20.6346 74.356 12.8473Z" fill="#CF9875"/>
<path id="Vector_3" d="M34.0139 60.1393C34.0139 60.1393 38.2045 65.347 38.2045 73.022H61.7954C61.7954 65.347 65.986 60.1393 65.986 60.1393L50 57.7466L34.0139 60.1393Z" fill="#5F6C75"/>
<path id="Vector_4" d="M51.5091 58.6166V47.9937H48.491V58.6264L51.5091 58.6166Z" fill="#CF9875"/>
<path id="Vector_5" d="M25.6608 47.0997C25.4473 46.2939 25.9276 45.4679 26.7334 45.2547C27.5385 45.0402 28.365 45.5213 28.5783 46.3271C29.6956 50.5464 32.0165 54.2971 34.4161 55.5116C40.1421 58.41 49.9998 55.1309 49.9998 55.1309C49.9998 55.1309 59.8574 58.41 65.5835 55.5116C67.9829 54.2971 70.3041 50.5464 71.4214 46.3271C71.6346 45.5217 72.4606 45.0408 73.2662 45.2547C74.0719 45.4679 74.5522 46.2939 74.3389 47.0997C72.9725 52.2599 70.2443 57.984 65.986 60.1394C60.26 63.0378 49.9998 59.7587 49.9998 59.7587C49.9998 59.7587 39.7399 63.0378 34.0137 60.1394C29.7556 57.984 27.0272 52.2601 25.6608 47.0997Z" fill="#CF9875"/>
<path id="Vector_6" d="M26.7253 5.80193C26.8259 5.34096 26.7289 3.09891 24.8056 2.45082C23.97 2.37376 23.0881 2.53794 22.2472 3.00937L4.63698 12.883C1.3567 14.722 -0.479718 18.4023 0.109014 22.1166C0.729336 26.0303 2.52994 30.5162 4.88567 33.9532C6.71022 36.2681 9.58829 37.5061 10.9245 37.5061C17.068 37.5064 23.869 18.8824 26.7253 5.80193Z" fill="#C27E4E"/>
<path id="Vector_7" d="M24.8057 2.45068C24.8411 2.88006 24.8141 3.32875 24.7133 3.78972C21.8572 16.8704 15.056 35.4941 8.9125 35.4941C7.57629 35.4941 6.20868 34.9237 4.88574 33.9533C7.11472 37.2054 9.84047 39.5183 12.5342 39.5183C18.6777 39.5183 25.8811 20.8943 28.7375 7.81386C29.3463 5.02553 27.2793 2.67865 24.8057 2.45068Z" fill="#995E34"/>
<path id="Vector_8" d="M97.8788 20.1046C98.1786 18.2132 97.9052 14.9963 95.008 12.6839L77.7529 3.00922C74.4225 1.14181 70.448 4.08346 71.2625 7.81384C73.2515 16.9223 77.3482 28.7165 81.7273 35.0408C82.9557 36.6573 84.8899 37.5062 85.4537 37.5062C90.9943 37.5064 96.6716 27.7215 97.8788 20.1046Z" fill="#C27E4E"/>
<path id="Vector_9" d="M95.3629 12.8831L95.008 12.6841C95.8363 14.3193 96.1665 16.2012 95.8667 18.0927C94.6595 25.7096 88.9822 35.4945 83.4416 35.4945C82.8778 35.4945 82.3048 35.3364 81.7273 35.0412C83.637 37.7994 85.6001 39.5187 87.4657 39.5187C93.0064 39.5187 98.6836 29.7338 99.8909 22.1169C100.48 18.4024 98.6432 14.7221 95.3629 12.8831Z" fill="#995E34"/>
<path id="Vector_10" d="M59.7834 88.3136C59.7834 86.17 59.7834 74.841 59.7834 73.0219C59.7834 70.4066 58.114 68.2203 56.1116 67.5404C55.3043 67.3559 54.4432 67.2549 53.5476 67.2549C52.2774 67.2549 51.0746 67.4561 49.9999 67.8146C48.9253 67.4561 47.7225 67.2549 46.4522 67.2549C41.8971 67.2549 38.2043 69.837 38.2043 73.0221V89.3199C38.2043 91.2418 39.147 93.0086 40.7231 94.4108C42.6726 95.7804 45.7989 96.5617 47.9876 96.5617C54.5023 96.5613 59.7834 92.8688 59.7834 88.3136Z" fill="#DA8BC1"/>
<path id="Vector_11" d="M56.1117 67.5405C57.1534 68.5059 57.7715 69.7073 57.7715 71.0099V87.3077C57.7715 91.8629 53.4964 95.5556 46.9819 95.5556C44.793 95.5556 42.631 95.1371 40.7234 94.4107C42.8829 96.3321 46.2341 97.5677 50 97.5677C56.5145 97.5677 61.7956 93.8749 61.7956 89.3198C61.7956 87.1761 61.7956 74.8411 61.7956 73.022C61.7956 70.4629 59.4111 68.2947 56.1117 67.5405Z" fill="#D273B3"/>
<path id="Vector_12" d="M59.5099 33.5891C58.9205 34.1784 58.9205 35.1339 59.5099 35.7231C60.0992 36.3122 61.0547 36.3124 61.6439 35.7229C62.2688 35.0981 63.4712 34.71 64.7819 34.71C66.0928 34.71 67.2952 35.0981 67.9201 35.7229C68.2147 36.0177 68.601 36.1649 68.9871 36.1649C69.3733 36.1649 69.7596 36.0176 70.0541 35.7231C70.6435 35.1337 70.6435 34.1782 70.0541 33.5891C68.8485 32.3834 66.927 31.6919 64.7819 31.6919C62.6372 31.6919 60.7155 32.3834 59.5099 33.5891Z" fill="#5F6C75"/>
<path id="Vector_13" d="M29.9457 33.5891C29.3563 34.1784 29.3563 35.1339 29.9457 35.7231C30.535 36.3122 31.4905 36.3124 32.0797 35.7229C32.7046 35.0981 33.907 34.71 35.2179 34.71C36.5286 34.71 37.731 35.0981 38.3559 35.7229C38.6505 36.0177 39.0368 36.1649 39.4229 36.1649C39.809 36.1649 40.1954 36.0176 40.4899 35.7231C41.0793 35.1337 41.0793 34.1782 40.4899 33.5891C39.2843 32.3834 37.3628 31.6919 35.2177 31.6919C33.073 31.6919 31.1513 32.3834 29.9457 33.5891Z" fill="#5F6C75"/>
<path id="Vector_14" d="M70.8441 21.8436C69.2229 20.2223 66.6125 19.2925 63.6821 19.2925C60.7517 19.2925 58.1413 20.2223 56.5201 21.8436C55.9308 22.4329 55.9308 23.3883 56.5201 23.9776C57.1095 24.5667 58.065 24.5669 58.6541 23.9774C59.6823 22.9494 61.6089 22.3106 63.6819 22.3106C65.7549 22.3106 67.6815 22.9494 68.7097 23.9774C69.0042 24.2722 69.3906 24.4194 69.7767 24.4194C70.1628 24.4194 70.5491 24.2722 70.8437 23.9776C71.4334 23.3883 71.4334 22.4329 70.8441 21.8436Z" fill="#A2ABB8"/>
<path id="Vector_15" d="M48.491 67.4341V84.19C48.491 85.0236 49.1666 85.6991 50 85.6991C50.8334 85.6991 51.5091 85.0236 51.5091 84.19V67.4341C50 67.6959 50 67.6959 48.491 67.4341Z" fill="#D273B3"/>
<path id="Vector_16" d="M42.4126 24.4194C42.7987 24.4194 43.185 24.2722 43.4796 23.9776C44.0689 23.3881 44.0689 22.4327 43.4796 21.8436C41.8584 20.2223 39.248 19.2925 36.3176 19.2925C33.3872 19.2925 30.7768 20.2223 29.1556 21.8436C28.5663 22.4329 28.5663 23.3883 29.1556 23.9776C29.745 24.5667 30.7005 24.5669 31.2896 23.9774C32.3178 22.9494 34.2444 22.3106 36.3174 22.3106C38.3904 22.3106 40.317 22.9494 41.3452 23.9774C41.6403 24.272 42.0264 24.4194 42.4126 24.4194Z" fill="#A2ABB8"/>
<path id="Vector_17" d="M56.0808 45.92C57.0055 44.9952 57.6647 41.3606 55.9872 40.0196C52.7126 38.9371 44.382 39.13 42.9128 40.599C42.1108 41.4011 41.6896 42.6656 41.6482 43.954C42.7774 47.0996 49.0502 47.9934 49.9997 47.9934C51.1084 47.9936 55.2351 46.7658 56.0808 45.92Z" fill="#7E8B96"/>
<path id="Vector_18" d="M57.0869 40.599C56.8643 40.3765 56.4832 40.1835 55.9873 40.0195C56.2374 41.6654 55.9997 43.3853 55.0748 44.3103C54.2289 45.1562 51.1084 45.9813 49.9999 45.9813C49.0502 45.9813 44.3309 45.1813 41.6484 43.9539C41.6024 45.3829 42.0235 46.8413 42.913 47.7308C43.7589 48.5767 48.8915 50.0054 49.9999 50.0054C51.1084 50.0054 56.2412 48.5765 57.0869 47.7308C58.7786 46.0393 58.7786 42.2906 57.0869 40.599Z" fill="#5F6C75"/>
</g>
</g>
</svg>
