<svg width="100" height="100" viewBox="0 0 100 100" fill="none" xmlns="http://www.w3.org/2000/svg">
<g id="pet-care 1">
<path id="Vector" d="M78.125 31.25H51.5625L57.8125 64.0625V85.9375C55.2236 85.9375 53.125 88.0361 53.125 90.625C53.125 93.2139 55.2236 95.3125 57.8125 95.3125H95.3125V65.625L78.125 31.25Z" fill="#DADCDE"/>
<path id="Vector_2" d="M80.4316 35.8652C76.9297 41.9043 71.5977 46.875 65.627 46.875C60.8301 46.875 56.4473 43.668 53.0918 39.2773L51.5625 31.25H78.125L80.4316 35.8652Z" fill="#C3C6C7"/>
<path id="Vector_3" d="M82.8125 18.75C82.8125 28.2424 75.1174 43.75 65.625 43.75C56.1326 43.75 48.4375 28.2424 48.4375 18.75C48.4375 9.25762 56.1326 4.6875 65.625 4.6875C75.1174 4.6875 82.8125 9.25762 82.8125 18.75Z" fill="#E9EEF2"/>
<path id="Vector_4" d="M56.25 9.37491C56.25 13.6896 52.7521 23.4374 48.4375 23.4374C44.1229 23.4374 40.625 13.6896 40.625 9.37491C40.625 5.06026 44.1229 6.24991 48.4375 6.24991C52.7521 6.24991 56.25 5.06026 56.25 9.37491Z" fill="#9AA3A8"/>
<path id="Vector_5" d="M90.625 9.37491C90.625 13.6896 87.1271 23.4374 82.8125 23.4374C78.4979 23.4374 75 13.6896 75 9.37491C75 5.06026 78.4979 6.24991 82.8125 6.24991C87.1271 6.24991 90.625 5.06026 90.625 9.37491Z" fill="#9AA3A8"/>
<path id="Vector_6" d="M51.5625 82.8125V87.5C51.5625 91.8146 48.0646 95.3125 43.75 95.3125H12.5C8.18535 95.3125 4.6875 91.8146 4.6875 87.5V82.8125C4.6875 78.4979 8.18535 75 12.5 75V46.875H43.75V75C48.0646 75 51.5625 78.4979 51.5625 82.8125Z" fill="#F7B030"/>
<path id="Vector_7" d="M7.8125 42.1875V40.625C7.8125 40.625 4.6875 37.5 4.6875 17.1875C4.6875 17.1875 15.625 17.1875 21.875 23.4375L23.4375 25L7.8125 42.1875Z" fill="#EBA72E"/>
<path id="Vector_8" d="M48.4375 42.1875V40.625C48.4375 40.625 51.5625 37.5 51.5625 17.1875C51.5625 17.1875 40.625 17.1875 34.375 23.4375L32.8125 25L48.4375 42.1875Z" fill="#EBA72E"/>
<path id="Vector_9" d="M48.4375 43.75C48.4375 56.7617 34.3516 54.6035 29.6387 53.5176C28.6934 53.2988 28.125 53.125 28.125 53.125C28.125 53.125 27.5566 53.2988 26.6113 53.5176C21.8984 54.6035 7.8125 56.7617 7.8125 43.75C7.8125 32.5312 16.9062 23.4375 28.125 23.4375C39.3438 23.4375 48.4375 32.5312 48.4375 43.75Z" fill="#FFB632"/>
<path id="Vector_10" d="M43.75 52.834V55.959C39.209 58.4219 32.5879 57.3223 29.6387 56.6426C28.6934 56.4238 28.125 56.25 28.125 56.25C28.125 56.25 27.5566 56.4238 26.6113 56.6426C23.6621 57.3223 17.041 58.4219 12.5 55.959V52.834C17.041 55.2969 23.6621 54.1973 26.6113 53.5176C27.5566 53.2988 28.125 53.125 28.125 53.125C28.125 53.125 28.6934 53.2988 29.6387 53.5176C32.5879 54.1973 39.209 55.2969 43.75 52.834Z" fill="#EBA72E"/>
<path id="Vector_11" d="M28.125 46.875L25 42.1875H31.25L28.125 46.875Z" fill="#AD6643"/>
<path id="Vector_12" d="M29.6875 43.75V53.125C29.6875 53.2598 29.6699 53.3926 29.6387 53.5176C28.6934 53.2988 28.125 53.125 28.125 53.125C28.125 53.125 27.5566 53.2988 26.6113 53.5176C26.5801 53.3926 26.5625 53.2598 26.5625 53.125V43.75C26.5625 42.8867 27.2617 42.1875 28.125 42.1875C28.9883 42.1875 29.6875 42.8867 29.6875 43.75Z" fill="#AD6643"/>
<path id="Vector_13" d="M23.4375 37.5001C23.0375 37.5001 22.6377 37.3476 22.3326 37.0425C21.2187 35.9286 19.4064 35.9286 18.2924 37.0425C17.682 37.6524 16.693 37.6524 16.0826 37.0425C15.4725 36.4321 15.4725 35.4431 16.0826 34.8327C17.2125 33.703 18.7148 33.0806 20.3125 33.0806C21.9102 33.0806 23.4125 33.703 24.5424 34.8327C25.1525 35.4431 25.1525 36.4321 24.5424 37.0425C24.2373 37.3476 23.8375 37.5001 23.4375 37.5001Z" fill="#AD6643"/>
<path id="Vector_14" d="M39.0625 37.5001C38.6625 37.5001 38.2627 37.3476 37.9576 37.0425C36.8437 35.9286 35.0314 35.9286 33.9174 37.0425C33.307 37.6524 32.318 37.6524 31.7076 37.0425C31.0975 36.4321 31.0975 35.4431 31.7076 34.8327C32.8375 33.703 34.3398 33.0806 35.9375 33.0806C37.5352 33.0806 39.0375 33.703 40.1674 34.8327C40.7775 35.4431 40.7775 36.4321 40.1674 37.0425C39.8623 37.3476 39.4625 37.5001 39.0625 37.5001Z" fill="#AD6643"/>
<path id="Vector_15" d="M60.9375 20.3123C60.8357 20.3123 60.7324 20.3025 60.6326 20.281C60.533 20.2615 60.4334 20.2322 60.3396 20.1931C60.2461 20.1541 60.1543 20.1053 60.0701 20.0486C59.9844 19.992 59.9041 19.9256 59.8318 19.8533C59.541 19.5642 59.375 19.1599 59.375 18.7498C59.375 18.648 59.3848 18.5447 59.4063 18.4449C59.4258 18.3453 59.4551 18.2457 59.4939 18.1519C59.533 18.0584 59.5818 17.9666 59.6385 17.8824C59.6951 17.7967 59.7596 17.7164 59.8318 17.6441C60.1951 17.2808 60.7342 17.1148 61.242 17.2183C61.3416 17.2379 61.4414 17.2672 61.535 17.306C61.6287 17.3451 61.7205 17.3939 61.8045 17.4506C61.8904 17.5072 61.9707 17.5717 62.043 17.6439C62.115 17.7162 62.1795 17.7963 62.2361 17.8822C62.2928 17.9664 62.3416 18.058 62.3807 18.1517C62.4197 18.2455 62.4492 18.3451 62.4686 18.4447C62.4902 18.5447 62.5 18.648 62.5 18.7498C62.5 19.1599 62.3338 19.5642 62.043 19.8531C61.9707 19.9254 61.8906 19.9918 61.8045 20.0484C61.7205 20.1051 61.6289 20.1539 61.535 20.1929C61.4414 20.232 61.3416 20.2615 61.242 20.2808C61.1426 20.3025 61.0391 20.3123 60.9375 20.3123Z" fill="#9AA3A8"/>
<path id="Vector_16" d="M70.3125 20.3127C70.2107 20.3127 70.1074 20.3029 70.0076 20.2814C69.908 20.2619 69.8084 20.2326 69.7146 20.1935C69.621 20.1545 69.5292 20.1057 69.4451 20.049C69.3593 19.9924 69.2791 19.926 69.2068 19.8559C68.9177 19.5648 68.7498 19.1623 68.7498 18.7504C68.7498 18.6486 68.7595 18.5453 68.781 18.4455C68.8005 18.3459 68.8298 18.2463 68.8687 18.1525C68.9078 18.059 68.9566 17.9672 69.0132 17.883C69.0699 17.7973 69.1343 17.717 69.2066 17.6447C69.2789 17.5725 69.3589 17.508 69.4449 17.4514C69.5291 17.3947 69.6207 17.3459 69.7144 17.3068C69.8082 17.268 69.9078 17.2385 70.0074 17.2191C70.5154 17.1156 71.0542 17.2836 71.4177 17.6449C71.7085 17.9359 71.8748 18.3383 71.8748 18.7504C71.8748 19.1623 71.7085 19.5648 71.4177 19.8559C71.1269 20.1447 70.7244 20.3127 70.3125 20.3127Z" fill="#9AA3A8"/>
<path id="Vector_17" d="M65.625 43.75C68.2138 43.75 70.3125 41.6513 70.3125 39.0625C70.3125 36.4737 68.2138 34.375 65.625 34.375C63.0362 34.375 60.9375 36.4737 60.9375 39.0625C60.9375 41.6513 63.0362 43.75 65.625 43.75Z" fill="#9AA3A8"/>
<path id="Vector_18" d="M85.6699 73.4375L78.7715 66.541C77.1387 64.9063 74.9668 64.0078 72.6562 64.0078C70.3457 64.0078 68.1738 64.9063 66.541 66.541C65.3301 67.752 64.5527 69.2383 64.2109 70.7988L67.3145 74.0645C66.8301 72.2266 67.3086 70.1914 68.75 68.75C69.8281 67.6719 71.2422 67.1328 72.6562 67.1328C74.0703 67.1328 75.4844 67.6719 76.5625 68.75L84.375 76.5625L85.6699 73.4375Z" fill="#DADCDE"/>
<path id="Vector_19" d="M4.68807 51.5627C4.06775 51.5627 3.48104 51.1912 3.2367 50.58C2.91619 49.7789 3.30584 48.8695 4.10721 48.5492L8.29275 46.8748L4.10721 45.2005C3.30584 44.88 2.91619 43.9707 3.2367 43.1697C3.55701 42.3685 4.46658 41.9787 5.26756 42.2992L13.0801 45.4242C13.6736 45.6613 14.0625 46.2359 14.0625 46.8748C14.0625 47.5136 13.6736 48.0882 13.0803 48.3255L5.26775 51.4505C5.07752 51.5265 4.88104 51.5627 4.68807 51.5627Z" fill="#AD6643"/>
<path id="Vector_20" d="M51.5619 51.5629C51.3689 51.5629 51.1725 51.5267 50.9822 51.4508L43.1697 48.3258C42.5764 48.0885 42.1875 47.5138 42.1875 46.875C42.1875 46.2361 42.5764 45.6615 43.1697 45.4242L50.9822 42.2992C51.7838 41.9787 52.693 42.3683 53.0131 43.1697C53.3336 43.9709 52.9439 44.8803 52.1426 45.2006L47.9572 46.875L52.1428 48.5492C52.9441 48.8697 53.3338 49.7791 53.0133 50.5801C52.7689 51.1912 52.182 51.5629 51.5619 51.5629Z" fill="#AD6643"/>
<path id="Vector_21" d="M64.0625 95.3125V57.8125C64.0625 56.9496 64.7621 56.25 65.625 56.25C66.4879 56.25 67.1875 56.9496 67.1875 57.8125V95.3125H64.0625Z" fill="#C3C6C7"/>
<path id="Vector_22" d="M85.4805 79.2305C84.8691 79.8398 83.8809 79.8398 83.2695 79.2305L75.457 71.418C74.709 70.6699 73.7148 70.2578 72.6563 70.2578C71.5977 70.2578 70.6035 70.6699 69.8555 71.418C69.1074 72.166 68.6953 73.1602 68.6953 74.2188C68.6953 75.2773 69.1074 76.2715 69.8555 77.0195L82.3555 89.5195C82.8027 89.9668 82.9356 90.6387 82.6934 91.2227C82.4512 91.8066 81.8828 92.1875 81.25 92.1875H78.125C77.2637 92.1875 76.5625 92.8887 76.5625 93.75C76.5625 94.6113 77.2637 95.3125 78.125 95.3125H73.707C73.5313 94.8242 73.4375 94.2969 73.4375 93.75C73.4375 91.3711 75.2188 89.4004 77.5176 89.1016L67.6445 79.2305C64.8828 76.4668 64.8828 71.9707 67.6445 69.207C70.4082 66.4453 74.9043 66.4453 77.668 69.207L85.4805 77.0195C86.0898 77.6309 86.0898 78.6191 85.4805 79.2305Z" fill="#C3C6C7"/>
<g id="Group">
<path id="Vector_23" d="M21.6426 91.4473C21.3574 91.9062 20.8535 92.1875 20.3125 92.1875C19.4512 92.1875 18.75 92.8887 18.75 93.75C18.75 94.6113 19.4512 95.3125 20.3125 95.3125H15.8945C15.7187 94.8242 15.625 94.2969 15.625 93.75C15.625 91.9766 16.6152 90.4297 18.0703 89.6348L10.8398 75.1758C11.375 75.0605 11.9297 75 12.5 75V71.5039L21.7109 89.9258C21.9531 90.4102 21.9258 90.9863 21.6426 91.4473Z" fill="#EBA72E"/>
<path id="Vector_24" d="M27.9415 95.3126H24.7931L21.8868 72.0685C21.7794 71.213 22.3868 70.4317 23.2442 70.3243C24.1017 70.2169 24.881 70.8243 24.9884 71.6817L27.9415 95.3126Z" fill="#EBA72E"/>
<path id="Vector_25" d="M34.3633 72.0685L31.457 95.3126H28.3086L31.2617 71.6817C31.3691 70.8243 32.1504 70.2169 33.0059 70.3243C33.8633 70.4317 34.4707 71.213 34.3633 72.0685Z" fill="#EBA72E"/>
<path id="Vector_26" d="M40.6249 93.75C40.6249 94.2969 40.5312 94.8242 40.3554 95.3125H35.9374C36.7988 95.3125 37.4999 94.6113 37.4999 93.75C37.4999 92.8887 36.7988 92.1875 35.9374 92.1875C35.3964 92.1875 34.8925 91.9062 34.6073 91.4473C34.3241 90.9863 34.2968 90.4102 34.539 89.9258L43.7499 71.5039V75C44.3202 75 44.8749 75.0605 45.4101 75.1758L38.1796 89.6348C39.6347 90.4297 40.6249 91.9766 40.6249 93.75Z" fill="#EBA72E"/>
</g>
<path id="Vector_27" d="M50 89.0625C57.7665 89.0625 64.0625 82.7665 64.0625 75C64.0625 67.2335 57.7665 60.9375 50 60.9375C42.2335 60.9375 35.9375 67.2335 35.9375 75C35.9375 82.7665 42.2335 89.0625 50 89.0625Z" fill="#3DC285"/>
<path id="Vector_28" d="M57.8125 71.875V78.125H53.125V82.8125H46.875V78.125H42.1875V71.875H46.875V67.1875H53.125V71.875H57.8125Z" fill="#E9EEF2"/>
</g>
</svg>
